<svg xmlns="http://www.w3.org/2000/svg" width="33.106" height="42.14" viewBox="0 0 33.106 42.14">
  <g id="Group_313" data-name="Group 313" transform="translate(-398.032 -23.776)">
    <path id="Path_5137" data-name="Path 5137" d="M2123.857,993.345c-.437-1.226-1.626-2.143-3.443-2.652a12.709,12.709,0,0,0-4.519-.363c-2.508.263-4.125,3.641-4.8,5.38-3.441-1.031-7.558-.558-10.343,0l-.009-.02c-2.23-4.124-5.327-8.967-7.4-8.663-1.81.278-2.471,3.661-1.962,10.054a1.02,1.02,0,0,0,1.011.935l.081,0a1.014,1.014,0,0,0,.932-1.094c-.312-3.928-.031-7.063.319-7.808.739.483,2.836,3.22,4.968,7.073l-.139.038a1.021,1.021,0,0,0,.525,1.973c2.309-.615,8.126-1.87,12.26-.252a1.011,1.011,0,0,0,1.346-.643c.455-1.485,1.95-4.792,3.413-4.946,2.64-.281,5.425.519,5.84,1.677a22.636,22.636,0,0,1,.3,5.873c-.162,2.946-.639,4.169-.841,4.482a3.121,3.121,0,0,1-2.065-1.169l-3.449-5.41a1.024,1.024,0,0,0-1.4-.3,1.012,1.012,0,0,0-.306,1.4l3.415,5.349a5.053,5.053,0,0,0,3.6,2.162,1.71,1.71,0,0,0,.314.028,1.787,1.787,0,0,0,1.377-.676h0C2124.675,1003.669,2124.551,995.28,2123.857,993.345Z" transform="translate(-1693.192 -963.235)" fill="#000000"/>
    <path id="Path_5138" data-name="Path 5138" d="M2096.121,1003.273a.833.833,0,0,0,.128.011.982.982,0,0,0,.762-.453,2.829,2.829,0,0,0,.411-2.245.828.828,0,0,0-1.563-.286,2.576,2.576,0,0,0-.442,1.079,2.614,2.614,0,0,0,.03,1.165A.922.922,0,0,0,2096.121,1003.273Z" transform="translate(-1691.75 -958.762)" fill="#000000"/>
    <path id="Path_5139" data-name="Path 5139" d="M2106.288,1003.273a.8.8,0,0,0,.128.011.98.98,0,0,0,.761-.453,2.593,2.593,0,0,0,.442-1.079,2.623,2.623,0,0,0-.03-1.166.917.917,0,0,0-.674-.728c-.579-.108-1.153.547-1.332,1.521S2105.707,1003.166,2106.288,1003.273Z" transform="translate(-1688.207 -958.762)" fill="#000000"/>
    <path id="Path_5140" data-name="Path 5140" d="M2117.069,1008.229a1.013,1.013,0,0,0-.26,1.412c2.24,3.257,1.547,5.808,1.314,6.444a1.972,1.972,0,0,1-1.552.65,1.745,1.745,0,0,1-.8-.359,10.609,10.609,0,0,0-1.093-1.266,1.014,1.014,0,0,0-1.6,1.209,5.849,5.849,0,0,0,1.181,1.436c1.053,1.575.716,2.655.437,3.145-3.144.232-5.482-3.081-5.5-3.115a1.016,1.016,0,0,0-1.838.754c.5,2.755-.115,3.793-.4,4.107-2.251-.341-4.664-4.06-5.677-6.378a1.011,1.011,0,0,0-.885-.607,1,1,0,0,0-.936.523,28.319,28.319,0,0,1-4.556,5.982c-.106.1-.2.177-.279.241a5.735,5.735,0,0,1,.1-1.1,1.194,1.194,0,0,0,.018-.148c.367-8.68,2.747-10.569,2.818-10.625a7.032,7.032,0,0,0,1.5,3.5,1.7,1.7,0,0,0,1.185.514,1.623,1.623,0,0,0,.188-.011c1.5-.187,3.6-2.98,3.947-4.8a2.8,2.8,0,0,0-2.088-3.226,6.562,6.562,0,0,0-2.174-.2,30.754,30.754,0,0,1,4.406-4.759,1.016,1.016,0,0,0,.34-.7,1.016,1.016,0,0,0-1.687-.82c-.935.828-5.607,5.089-5.813,7.623a8.645,8.645,0,0,0-.015,1.051,1.017,1.017,0,0,0-.811.082c-.563.322-3.392,2.422-3.82,12.22-.191,1.051-.333,2.878.811,3.513a1.481,1.481,0,0,0,.73.189,3.361,3.361,0,0,0,2.028-1.045,26.981,26.981,0,0,0,3.986-4.9c1.345,2.406,3.834,5.9,6.966,5.943h.02a.967.967,0,0,0,.374-.074c.3-.121,1.728-.838,1.926-3.543a7.319,7.319,0,0,0,5.87,1.768,1.024,1.024,0,0,0,.561-.294,4.37,4.37,0,0,0,.916-3.783,4.287,4.287,0,0,0,2.789-1.375.981.981,0,0,0,.205-.286c.077-.156,1.831-3.915-1.412-8.628A1.018,1.018,0,0,0,2117.069,1008.229Zm-17.7.35a3.641,3.641,0,0,1,2.428-.1.776.776,0,0,1,.586.875,6.32,6.32,0,0,1-2.055,3.07A8.99,8.99,0,0,1,2099.365,1008.579Z" transform="translate(-1692.721 -958.787)" fill="#000000"/>
  </g>
</svg>
