<svg xmlns="http://www.w3.org/2000/svg" xmlns:xlink="http://www.w3.org/1999/xlink" width="38.854" height="33.922" viewBox="0 0 38.854 33.922">
  <defs>
    <clipPath id="clip-path">
      <rect id="Rectangle_180" data-name="Rectangle 180" width="38.854" height="33.922" fill="none"/>
    </clipPath>
  </defs>
  <g id="Group_341" data-name="Group 341" transform="translate(0 0)">
    <g id="Group_340" data-name="Group 340" transform="translate(0 0)" clip-path="url(#clip-path)">
      <path id="Path_5364" data-name="Path 5364" d="M4.99,9.521.843,12.229a.642.642,0,0,0-.286.532l.221,8.433a.608.608,0,0,0,.278.5L19.362,33.824a.117.117,0,0,1,.033.016s0,.008.016.016h.033a.556.556,0,0,0,.524,0H20s0-.008.016-.016a.062.062,0,0,0,.033-.016L38.355,21.693a.627.627,0,0,0,.278-.5l.221-8.433v-.016a.661.661,0,0,0-.065-.278l-.025-.049a.588.588,0,0,0-.2-.2L20.041,1.08a.692.692,0,0,0-.286-.09L.638,0A.615.615,0,0,0,.025.425.743.743,0,0,0,0,.613v5.5a.625.625,0,0,0,.294.524l4.72,2.879ZM1.211,1.734,17.832,12.343l-2.258,2.192L1.211,5.767Zm18.5,21.783L7.272,15.8l3.812-2.56,4.254,2.6a.605.605,0,0,0,.744-.082l2.56-2.487,1.873,3.681a.622.622,0,0,0,.548.335h8.7L19.713,23.525Zm12.033-7.468H21.439l-1.611-3.166L36.18,13.3l-4.425,2.748ZM9.93,12.532l-3.8,2.552-3.8-2.356,3.828-2.5L9.93,12.532M1.824,13.857,19.1,24.572v7.575L2.012,20.826l-.188-6.977Zm35.582,6.977L20.319,32.155V24.581L37.595,13.865l-.188,6.977ZM19.525,2.209l16.4,9.857-16.932-.434L2.887,1.35l16.646.867Z"/>
    </g>
  </g>
</svg>
