<svg xmlns="http://www.w3.org/2000/svg" xmlns:xlink="http://www.w3.org/1999/xlink" width="39.293" height="41.943" viewBox="0 0 39.293 41.943">
  <defs>
    <clipPath id="clip-path">
      <rect id="Rectangle_179" data-name="Rectangle 179" width="39.293" height="41.943" fill="none"/>
    </clipPath>
  </defs>
  <g id="Group_339" data-name="Group 339" transform="translate(0)">
    <g id="Group_338" data-name="Group 338" transform="translate(0 0)" clip-path="url(#clip-path)">
      <path id="Path_5361" data-name="Path 5361" d="M36.813,19.17V38.16a7.492,7.492,0,0,1-7.5,7.486H19.576A7.489,7.489,0,0,1,12.09,38.16V19.17" transform="translate(-2.583 -4.096)" fill="none" stroke="#000" stroke-linecap="round" stroke-linejoin="round" stroke-width="1"/>
      <line id="Line_58" data-name="Line 58" x2="33.726" transform="translate(5.174 15.074)" fill="none" stroke="#000" stroke-linecap="round" stroke-linejoin="round" stroke-width="1"/>
      <line id="Line_59" data-name="Line 59" y2="7.053" transform="translate(15.9 3.719)" fill="none" stroke="#000" stroke-linecap="round" stroke-linejoin="round" stroke-width="1"/>
      <line id="Line_60" data-name="Line 60" y2="10.38" transform="translate(22.033 0.393)" fill="none" stroke="#000" stroke-linecap="round" stroke-linejoin="round" stroke-width="1"/>
      <line id="Line_61" data-name="Line 61" y2="7.053" transform="translate(28.214 3.719)" fill="none" stroke="#000" stroke-linecap="round" stroke-linejoin="round" stroke-width="1"/>
      <path id="Path_5362" data-name="Path 5362" d="M4.935,26.49H9.653v11.6H4.935A4.44,4.44,0,0,1,.5,33.654V30.933A4.445,4.445,0,0,1,4.927,26.49Z" transform="translate(-0.107 -5.66)" fill="none" stroke="#000" stroke-linecap="round" stroke-linejoin="round" stroke-width="1"/>
      <path id="Path_5363" data-name="Path 5363" d="M32.615,26.158a1.942,1.942,0,0,0-1.429-1.1,5.257,5.257,0,0,0-1.875-.15c-1.041.112-1.709,1.51-1.99,2.232a9.425,9.425,0,0,0-4.288,0s0,0,0-.008c-.926-1.71-2.209-3.719-3.066-3.593-.749.116-1.025,1.518-.815,4.169a.423.423,0,0,0,.419.388H19.6a.417.417,0,0,0,.288-.145.429.429,0,0,0,.1-.307,9.784,9.784,0,0,1,.131-3.235,11.8,11.8,0,0,1,2.059,2.931c-.02,0-.039.012-.058.015a.418.418,0,0,0-.284.254.424.424,0,0,0,.5.565c.956-.253,3.369-.776,5.083-.1a.432.432,0,0,0,.338-.011.422.422,0,0,0,.219-.254c.188-.615.807-1.986,1.414-2.052,1.095-.116,2.247.215,2.42.7a9.357,9.357,0,0,1,.123,2.436,4.511,4.511,0,0,1-.349,1.86,1.307,1.307,0,0,1-.857-.484L29.3,28.018a.43.43,0,0,0-.584-.127.42.42,0,0,0-.127.583l1.418,2.217a2.087,2.087,0,0,0,1.49.895.709.709,0,0,0,.131.012.75.75,0,0,0,.572-.281c.749-.88.7-4.357.41-5.16M30,34.173a.446.446,0,0,0-.177.269.418.418,0,0,0,.069.315,2.946,2.946,0,0,1,.546,2.67.811.811,0,0,1-.646.269.723.723,0,0,1-.33-.15A4.329,4.329,0,0,0,29,37.02a.416.416,0,0,0-.549-.039.428.428,0,0,0-.116.542,2.512,2.512,0,0,0,.492.6,1.187,1.187,0,0,1,.18,1.3,3,3,0,0,1-2.282-1.291.429.429,0,0,0-.507-.153.421.421,0,0,0-.254.465c.208,1.141-.046,1.571-.165,1.7C24.87,40,23.871,38.461,23.448,37.5a.423.423,0,0,0-.365-.254.412.412,0,0,0-.388.219,11.609,11.609,0,0,1-1.89,2.478,1.064,1.064,0,0,1-.115.1,2.522,2.522,0,0,1,.042-.457c0-.019,0-.039.007-.061.154-3.6,1.142-4.384,1.169-4.407a2.909,2.909,0,0,0,.622,1.448.705.705,0,0,0,.492.215.471.471,0,0,0,.076,0c.623-.076,1.491-1.237,1.637-1.99a1.159,1.159,0,0,0-.864-1.337,2.767,2.767,0,0,0-.9-.085A12.886,12.886,0,0,1,24.793,31.4a.419.419,0,0,0,.039-.592.429.429,0,0,0-.292-.142.424.424,0,0,0-.3.1c-.388.342-2.324,2.11-2.409,3.163a3.924,3.924,0,0,0-.008.434.411.411,0,0,0-.334.035c-.234.134-1.406,1-1.583,5.068-.08.434-.138,1.191.334,1.456a.633.633,0,0,0,.3.077,1.4,1.4,0,0,0,.841-.434,11.312,11.312,0,0,0,1.652-2.029c.558,1,1.591,2.448,2.89,2.463h.007a.39.39,0,0,0,.158-.031c.127-.05.715-.346.8-1.467a3.044,3.044,0,0,0,2.436.734.427.427,0,0,0,.23-.123,1.807,1.807,0,0,0,.381-1.568,1.782,1.782,0,0,0,1.157-.569.436.436,0,0,0,.084-.12,3.663,3.663,0,0,0-.584-3.577.442.442,0,0,0-.6-.1m-7.338.146a1.5,1.5,0,0,1,1.007-.042.321.321,0,0,1,.242.362,2.614,2.614,0,0,1-.853,1.272,3.737,3.737,0,0,1-.4-1.591m-.945-2.19a.245.245,0,0,0,.053,0,.408.408,0,0,0,.315-.189,1.085,1.085,0,0,0,.184-.449,1.067,1.067,0,0,0-.012-.484.343.343,0,0,0-.649-.119,1.084,1.084,0,0,0-.185.445,1.128,1.128,0,0,0,.012.484.379.379,0,0,0,.281.307m5.686,0a.245.245,0,0,0,.053,0,.407.407,0,0,0,.315-.189,1.075,1.075,0,0,0,.185-.449,1.128,1.128,0,0,0-.012-.484.387.387,0,0,0-.281-.3c-.238-.046-.477.226-.553.63s.05.745.292.792" transform="translate(-4.077 -5.029)" fill="#050505"/>
    </g>
  </g>
</svg>
