<svg xmlns="http://www.w3.org/2000/svg" xmlns:xlink="http://www.w3.org/1999/xlink" width="27.522" height="39.341" viewBox="0 0 27.522 39.341">
  <defs>
    <clipPath id="clip-path">
      <rect id="Rectangle_178" data-name="Rectangle 178" width="27.522" height="39.341" fill="none"/>
    </clipPath>
  </defs>
  <g id="Group_337" data-name="Group 337" transform="translate(0 0)">
    <g id="Group_336" data-name="Group 336" transform="translate(0 0)" clip-path="url(#clip-path)">
      <path id="Path_5358" data-name="Path 5358" d="M.5.5V38.318H20.909l5.59-5.59V.5Z" transform="translate(0.262 0.262)" fill="none" stroke="#000" stroke-width="1"/>
      <path id="Path_5359" data-name="Path 5359" d="M13.9,27.276V21.61h5.59" transform="translate(7.271 11.303)" fill="none" stroke="#000" stroke-width="1"/>
      <path id="Path_5360" data-name="Path 5360" d="M19.664,8.578a2.286,2.286,0,0,0-1.683-1.295,6.2,6.2,0,0,0-2.207-.177c-1.226.131-2.013,1.779-2.342,2.629a11.1,11.1,0,0,0-5.049,0l0-.009c-1.091-2.013-2.6-4.379-3.61-4.23-.882.136-1.208,1.787-.96,4.907a.5.5,0,0,0,.493.457h.041a.5.5,0,0,0,.34-.171.506.506,0,0,0,.117-.362,11.548,11.548,0,0,1,.154-3.809A13.951,13.951,0,0,1,7.379,9.971c-.023,0-.046.014-.069.018a.5.5,0,0,0-.335.3.5.5,0,0,0,.592.666c1.127-.3,3.968-.914,5.986-.122a.515.515,0,0,0,.4-.014.493.493,0,0,0,.257-.3c.222-.723.95-2.339,1.665-2.416,1.29-.136,2.647.253,2.851.818a11.1,11.1,0,0,1,.145,2.868,5.285,5.285,0,0,1-.413,2.19,1.543,1.543,0,0,1-1.008-.57l-1.683-2.643a.506.506,0,0,0-.687-.149.5.5,0,0,0-.218.312.492.492,0,0,0,.069.375L16.6,13.915a2.457,2.457,0,0,0,1.755,1.054.838.838,0,0,0,.154.014.878.878,0,0,0,.675-.331c.882-1.036.818-5.13.483-6.074M16.58,18.014a.52.52,0,0,0-.209.317.489.489,0,0,0,.082.372,3.466,3.466,0,0,1,.641,3.144.959.959,0,0,1-.76.317.858.858,0,0,1-.388-.177,5.022,5.022,0,0,0-.535-.62.489.489,0,0,0-.646-.046.5.5,0,0,0-.136.638,2.954,2.954,0,0,0,.579.7,1.4,1.4,0,0,1,.212,1.534,3.538,3.538,0,0,1-2.687-1.52.505.505,0,0,0-.6-.181.5.5,0,0,0-.3.548c.245,1.343-.055,1.851-.195,2-1.1-.168-2.275-1.982-2.772-3.113a.5.5,0,0,0-.43-.3.484.484,0,0,0-.457.257,13.714,13.714,0,0,1-2.227,2.918,1.067,1.067,0,0,1-.136.117,3.016,3.016,0,0,1,.05-.538c0-.023,0-.046.009-.073.181-4.239,1.343-5.16,1.375-5.188a3.42,3.42,0,0,0,.733,1.7.83.83,0,0,0,.579.254.583.583,0,0,0,.091,0c.733-.091,1.755-1.458,1.927-2.344a1.364,1.364,0,0,0-1.019-1.573,3.256,3.256,0,0,0-1.062-.1,15.029,15.029,0,0,1,2.148-2.32.49.49,0,0,0,.168-.34A.5.5,0,0,0,9.8,14c-.457.4-2.737,2.483-2.837,3.722-.012.158-.012.335-.008.512a.486.486,0,0,0-.394.04c-.276.158-1.656,1.182-1.864,5.967-.094.51-.161,1.4.394,1.713a.739.739,0,0,0,.356.091,1.645,1.645,0,0,0,.992-.512,13.372,13.372,0,0,0,1.945-2.388c.656,1.176,1.873,2.882,3.4,2.9h.009a.445.445,0,0,0,.186-.037c.149-.059.842-.407.941-1.727a3.588,3.588,0,0,0,2.868.864A.5.5,0,0,0,16.059,25a2.121,2.121,0,0,0,.448-1.846,2.089,2.089,0,0,0,1.362-.67.5.5,0,0,0,.1-.14,4.317,4.317,0,0,0-.688-4.211.52.52,0,0,0-.7-.122m-8.64.172a1.772,1.772,0,0,1,1.185-.05.377.377,0,0,1,.285.425,3.079,3.079,0,0,1-1,1.5,4.413,4.413,0,0,1-.466-1.873M6.826,15.607a.3.3,0,0,0,.064,0,.479.479,0,0,0,.37-.222,1.264,1.264,0,0,0,.218-.529,1.244,1.244,0,0,0-.014-.57.457.457,0,0,0-.331-.358.453.453,0,0,0-.434.218,1.277,1.277,0,0,0-.216.524,1.313,1.313,0,0,0,.014.57.446.446,0,0,0,.329.362m6.7,0a.3.3,0,0,0,.064,0,.479.479,0,0,0,.37-.222,1.285,1.285,0,0,0,.218-.529,1.361,1.361,0,0,0-.014-.57.457.457,0,0,0-.331-.358c-.28-.055-.56.267-.652.742s.059.877.344.932" transform="translate(1.95 2.872)" fill="#050505"/>
    </g>
  </g>
</svg>
