<svg id="Group_335" data-name="Group 335" xmlns="http://www.w3.org/2000/svg" xmlns:xlink="http://www.w3.org/1999/xlink" width="40.101" height="46.49" viewBox="0 0 40.101 46.49">
  <defs>
    <clipPath id="clip-path">
      <rect id="Rectangle_177" data-name="Rectangle 177" width="40.101" height="46.49" fill="none"/>
    </clipPath>
  </defs>
  <g id="Group_334" data-name="Group 334" transform="translate(0 0)" clip-path="url(#clip-path)">
    <path id="Path_5356" data-name="Path 5356" d="M34.06,10H31.03A11.343,11.343,0,0,0,8.606,10H5.576a5.207,5.207,0,0,0-5.2,5.2V31.813A13.861,13.861,0,0,0,14.212,45.65H25.424A13.861,13.861,0,0,0,39.261,31.813V15.205A5.207,5.207,0,0,0,34.06,10ZM19.818,3.523A8.1,8.1,0,0,1,27.757,10H11.879A8.1,8.1,0,0,1,19.818,3.523Zm16.2,28.29a10.6,10.6,0,0,1-10.6,10.6H14.212a10.6,10.6,0,0,1-10.6-10.6V15.205a1.957,1.957,0,0,1,1.961-1.961H34.06a1.957,1.957,0,0,1,1.961,1.961Z" transform="translate(0.233 0.233)" fill="none" stroke="#000" stroke-width="0.75"/>
    <path id="Path_5357" data-name="Path 5357" d="M24.428,13.113a2.432,2.432,0,0,0-1.79-1.377,6.6,6.6,0,0,0-2.348-.188c-1.3.139-2.142,1.892-2.492,2.8a11.811,11.811,0,0,0-5.371,0l0-.01c-1.16-2.142-2.767-4.658-3.84-4.5-.938.144-1.285,1.9-1.021,5.22a.529.529,0,0,0,.525.486H8.13a.532.532,0,0,0,.361-.181.539.539,0,0,0,.125-.386,12.284,12.284,0,0,1,.164-4.052,14.841,14.841,0,0,1,2.579,3.672c-.024,0-.049.015-.073.019a.526.526,0,0,0-.356.318.532.532,0,0,0,.63.708c1.2-.318,4.221-.972,6.368-.13a.548.548,0,0,0,.423-.015.525.525,0,0,0,.274-.318c.237-.77,1.011-2.489,1.771-2.57,1.372-.144,2.816.269,3.033.87a11.807,11.807,0,0,1,.154,3.051,5.622,5.622,0,0,1-.439,2.33,1.642,1.642,0,0,1-1.073-.606l-1.79-2.811a.538.538,0,0,0-.731-.159.531.531,0,0,0-.232.332.524.524,0,0,0,.073.4l1.776,2.777a2.614,2.614,0,0,0,1.867,1.121.892.892,0,0,0,.164.015.934.934,0,0,0,.718-.352c.938-1.1.87-5.457.514-6.462M21.147,23.15a.553.553,0,0,0-.222.337.52.52,0,0,0,.087.4,3.688,3.688,0,0,1,.682,3.344,1.02,1.02,0,0,1-.809.337.912.912,0,0,1-.413-.188,5.343,5.343,0,0,0-.569-.659.52.52,0,0,0-.687-.049.534.534,0,0,0-.144.679,3.143,3.143,0,0,0,.616.745,1.486,1.486,0,0,1,.225,1.632c-1.63.12-2.848-1.6-2.858-1.617a.537.537,0,0,0-.635-.193.53.53,0,0,0-.318.583c.261,1.429-.058,1.969-.207,2.132-1.168-.178-2.421-2.108-2.949-3.312A.531.531,0,0,0,12.49,27a.515.515,0,0,0-.486.274,14.589,14.589,0,0,1-2.369,3.1,1.135,1.135,0,0,1-.144.125,3.209,3.209,0,0,1,.053-.572c0-.024,0-.049.01-.078.193-4.509,1.429-5.489,1.463-5.519a3.638,3.638,0,0,0,.779,1.813.883.883,0,0,0,.616.271.62.62,0,0,0,.1,0c.779-.1,1.867-1.551,2.05-2.494a1.451,1.451,0,0,0-1.084-1.674,3.464,3.464,0,0,0-1.129-.107,15.988,15.988,0,0,1,2.285-2.468.521.521,0,0,0,.178-.361.527.527,0,0,0-.875-.428c-.486.428-2.912,2.641-3.019,3.96-.013.169-.013.356-.008.544a.517.517,0,0,0-.42.042c-.293.169-1.761,1.257-1.983,6.348-.1.543-.172,1.492.42,1.823a.786.786,0,0,0,.379.1,1.75,1.75,0,0,0,1.055-.544,14.226,14.226,0,0,0,2.069-2.541c.7,1.251,1.993,3.066,3.618,3.085h.01a.473.473,0,0,0,.2-.039c.159-.063.9-.433,1-1.837a3.817,3.817,0,0,0,3.051.919.536.536,0,0,0,.288-.154,2.257,2.257,0,0,0,.476-1.964,2.222,2.222,0,0,0,1.449-.713.531.531,0,0,0,.107-.149,4.593,4.593,0,0,0-.732-4.48.553.553,0,0,0-.745-.13m-9.192.183a1.885,1.885,0,0,1,1.261-.053.4.4,0,0,1,.3.452,3.276,3.276,0,0,1-1.068,1.594,4.7,4.7,0,0,1-.5-1.993M10.771,20.59a.321.321,0,0,0,.068,0,.51.51,0,0,0,.394-.237,1.345,1.345,0,0,0,.232-.562,1.323,1.323,0,0,0-.015-.606.43.43,0,0,0-.813-.149,1.359,1.359,0,0,0-.23.557,1.4,1.4,0,0,0,.015.606.475.475,0,0,0,.35.386m7.123,0a.321.321,0,0,0,.068,0,.51.51,0,0,0,.394-.237,1.366,1.366,0,0,0,.232-.562,1.448,1.448,0,0,0-.015-.606.486.486,0,0,0-.352-.381c-.3-.058-.6.284-.693.789s.063.933.366.992" transform="translate(4.636 6.096)" fill="#050505"/>
  </g>
</svg>
