<svg xmlns="http://www.w3.org/2000/svg" xmlns:xlink="http://www.w3.org/1999/xlink" width="297.134" height="230.449" viewBox="0 0 297.134 230.449">
  <defs>
    <clipPath id="clip-path">
      <rect id="Rectangle_201" data-name="Rectangle 201" width="297.134" height="230.449" fill="#fff"/>
    </clipPath>
  </defs>
  <g id="Group_364" data-name="Group 364" transform="translate(9 -3)">
    <g id="Group_363" data-name="Group 363" transform="translate(-9 3)" clip-path="url(#clip-path)">
      <path id="Path_5449" data-name="Path 5449" d="M130.379,216.863a1.78,1.78,0,0,0-1.308-1.006,4.823,4.823,0,0,0-1.717-.137c-.953.1-1.566,1.382-1.822,2.044a8.628,8.628,0,0,0-3.926,0l0-.007c-.848-1.566-2.023-3.406-2.807-3.29-.686.106-.94,1.39-.746,3.817a.387.387,0,0,0,.383.356h.032a.385.385,0,0,0,.355-.415,9.006,9.006,0,0,1,.12-2.963,10.853,10.853,0,0,1,1.886,2.685c-.018,0-.036.01-.053.014a.378.378,0,0,0-.26.232.388.388,0,0,0,.46.517,8.449,8.449,0,0,1,4.655-.1.391.391,0,0,0,.309-.011.381.381,0,0,0,.2-.232c.172-.563.738-1.818,1.294-1.878,1-.106,2.058.2,2.217.636a8.588,8.588,0,0,1,.112,2.231,4.136,4.136,0,0,1-.32,1.7,1.194,1.194,0,0,1-.784-.444l-1.309-2.054a.393.393,0,0,0-.535-.116.385.385,0,0,0-.116.534l1.3,2.03a1.911,1.911,0,0,0,1.365.82.669.669,0,0,0,.12.011.685.685,0,0,0,.524-.257c.686-.806.637-3.99.376-4.725m-2.4,7.339a.4.4,0,0,0-.162.246.382.382,0,0,0,.064.288,2.7,2.7,0,0,1,.5,2.445.743.743,0,0,1-.591.247.668.668,0,0,1-.3-.138,3.994,3.994,0,0,0-.415-.482.383.383,0,0,0-.5-.035.391.391,0,0,0-.105.5,2.278,2.278,0,0,0,.45.545,1.09,1.09,0,0,1,.166,1.193,2.748,2.748,0,0,1-2.09-1.182.385.385,0,0,0-.7.285c.19,1.045-.042,1.439-.151,1.558-.855-.13-1.769-1.54-2.156-2.42a.387.387,0,0,0-.335-.232.376.376,0,0,0-.355.2,10.633,10.633,0,0,1-1.731,2.27c-.039.038-.074.066-.105.091a2.388,2.388,0,0,1,.038-.419c0-.017,0-.035.007-.056.141-3.3,1.045-4.014,1.07-4.035a2.66,2.66,0,0,0,.57,1.326.644.644,0,0,0,.45.2.518.518,0,0,0,.07,0c.57-.071,1.365-1.133,1.5-1.823a1.061,1.061,0,0,0-.791-1.224,2.531,2.531,0,0,0-.827-.077,11.721,11.721,0,0,1,1.671-1.8.384.384,0,0,0,.035-.542.39.39,0,0,0-.267-.13.383.383,0,0,0-.278.1c-.356.313-2.129,1.931-2.206,2.9a3.468,3.468,0,0,0-.007.4.371.371,0,0,0-.306.032c-.215.123-1.288.918-1.45,4.64-.073.4-.126,1.09.307,1.333a.575.575,0,0,0,.277.07,1.281,1.281,0,0,0,.771-.4,10.442,10.442,0,0,0,1.513-1.858c.51.915,1.456,2.241,2.645,2.255h.007a.352.352,0,0,0,.144-.028c.116-.045.655-.316.732-1.344a2.781,2.781,0,0,0,2.23.672.389.389,0,0,0,.212-.112,1.656,1.656,0,0,0,.348-1.436,1.63,1.63,0,0,0,1.059-.52.428.428,0,0,0,.077-.109,3.354,3.354,0,0,0-.535-3.275.4.4,0,0,0-.545-.1m-6.719.133a1.375,1.375,0,0,1,.922-.038.292.292,0,0,1,.221.33,2.388,2.388,0,0,1-.781,1.165,3.433,3.433,0,0,1-.362-1.457m-.866-2.005a.211.211,0,0,0,.05,0,.372.372,0,0,0,.288-.173,1,1,0,0,0,.169-.411.965.965,0,0,0-.011-.444.314.314,0,0,0-.594-.109,1.007,1.007,0,0,0-.169.408,1.025,1.025,0,0,0,.011.444.348.348,0,0,0,.256.281m5.207,0a.207.207,0,0,0,.049,0,.375.375,0,0,0,.289-.173,1.011,1.011,0,0,0,.169-.411,1.04,1.04,0,0,0-.011-.444.355.355,0,0,0-.257-.278c-.218-.042-.436.208-.506.577s.045.683.267.725" fill="#fff"/>
      <path id="Path_5450" data-name="Path 5450" d="M13.419,8.667l-.216.027V0h2.026V19.44H13.366l-.135-2.511a5.292,5.292,0,0,1-1.85,1.917,5.536,5.536,0,0,1-3.038.783,6.12,6.12,0,0,1-3.253-.85,5.705,5.705,0,0,1-2.16-2.417,8.235,8.235,0,0,1-.77-3.672,8.146,8.146,0,0,1,.77-3.658A5.806,5.806,0,0,1,5.09,6.615a6.047,6.047,0,0,1,3.253-.864,5.676,5.676,0,0,1,3.187.837,5.345,5.345,0,0,1,1.889,2.079M4.348,12.69a5.423,5.423,0,0,0,1.187,3.686,4.077,4.077,0,0,0,3.241,1.363,4.342,4.342,0,0,0,2.267-.594,4.147,4.147,0,0,0,1.58-1.728,5.923,5.923,0,0,0,.58-2.727,5.841,5.841,0,0,0-.58-2.714A4.184,4.184,0,0,0,8.776,7.641,4.087,4.087,0,0,0,5.549,9a5.379,5.379,0,0,0-1.2,3.686" fill="#fff"/>
      <path id="Path_5451" data-name="Path 5451" d="M25.03,19.63a6.217,6.217,0,0,1-3.362-.918A6.4,6.4,0,0,1,19.36,16.2a7.7,7.7,0,0,1-.837-3.644,7.216,7.216,0,0,1,.837-3.51,6.23,6.23,0,0,1,2.3-2.417,6.31,6.31,0,0,1,3.32-.878,6.6,6.6,0,0,1,3.281.811A5.808,5.808,0,0,1,30.51,8.8a6.137,6.137,0,0,1,.756,3.267q0,.3-.026.621t-.055.7H20.737a4.769,4.769,0,0,0,.621,2.241,4.2,4.2,0,0,0,1.5,1.525,4.058,4.058,0,0,0,2.119.554,5.5,5.5,0,0,0,2.66-.595,3.482,3.482,0,0,0,1.579-1.7l1.755.7a5.849,5.849,0,0,1-2.349,2.606,6.955,6.955,0,0,1-3.59.9m4.022-7.992a3.681,3.681,0,0,0-1.971-3.456,4.513,4.513,0,0,0-2.187-.514,3.88,3.88,0,0,0-1.971.514A4.267,4.267,0,0,0,21.451,9.6a4.52,4.52,0,0,0-.688,2.039Z" fill="#fff"/>
      <path id="Path_5452" data-name="Path 5452" d="M42.146,5.94h1.863l.108,1.917a4.481,4.481,0,0,1,1.7-1.553,5.219,5.219,0,0,1,2.457-.553,5.349,5.349,0,0,1,2.7.662,4.482,4.482,0,0,1,1.809,1.97,7.373,7.373,0,0,1,.648,3.281V19.44H51.407V11.907a4.9,4.9,0,0,0-.905-3.2,3.185,3.185,0,0,0-2.6-1.094,3.4,3.4,0,0,0-2.74,1.161,5.178,5.178,0,0,0-.986,3.429V19.44H42.146Z" fill="#fff"/>
      <path id="Path_5453" data-name="Path 5453" d="M68.391,19.44H66.555L66.419,17.5a4.212,4.212,0,0,1-1.674,1.58,5.219,5.219,0,0,1-2.457.553,5.5,5.5,0,0,1-2.726-.648,4.334,4.334,0,0,1-1.8-1.944,7.412,7.412,0,0,1-.635-3.267V5.94h2v7.614a4.747,4.747,0,0,0,.906,3.146,3.222,3.222,0,0,0,2.6,1.066,3.507,3.507,0,0,0,2.74-1.121,4.916,4.916,0,0,0,1.013-3.388V5.94h2Z" fill="#fff"/>
      <path id="Path_5454" data-name="Path 5454" d="M78.192,19.63a6.217,6.217,0,0,1-3.362-.918A6.4,6.4,0,0,1,72.522,16.2a7.7,7.7,0,0,1-.837-3.644,7.216,7.216,0,0,1,.837-3.51,6.23,6.23,0,0,1,2.295-2.417,6.31,6.31,0,0,1,3.32-.878,6.6,6.6,0,0,1,3.281.811A5.808,5.808,0,0,1,83.672,8.8a6.137,6.137,0,0,1,.756,3.267q0,.3-.026.621t-.055.7H73.9a4.769,4.769,0,0,0,.621,2.241,4.2,4.2,0,0,0,1.5,1.525,4.058,4.058,0,0,0,2.119.554,5.5,5.5,0,0,0,2.66-.595,3.482,3.482,0,0,0,1.579-1.7l1.755.7a5.848,5.848,0,0,1-2.349,2.606,6.955,6.955,0,0,1-3.59.9m4.022-7.992a3.681,3.681,0,0,0-1.971-3.456,4.513,4.513,0,0,0-2.187-.514,3.88,3.88,0,0,0-1.971.514A4.267,4.267,0,0,0,74.613,9.6a4.52,4.52,0,0,0-.688,2.039Z" fill="#fff"/>
      <path id="Path_5455" data-name="Path 5455" d="M88.856,15.309a2.98,2.98,0,0,0,.594,1.336,2.685,2.685,0,0,0,1.12.8,4.386,4.386,0,0,0,1.606.27,3.6,3.6,0,0,0,2.174-.553,1.674,1.674,0,0,0,.742-1.391,1.508,1.508,0,0,0-.445-1.134,3.484,3.484,0,0,0-1.174-.716,12.959,12.959,0,0,0-1.62-.5q-.7-.161-1.513-.39a7.273,7.273,0,0,1-1.539-.635,3.543,3.543,0,0,1-1.187-1.053,2.874,2.874,0,0,1-.459-1.7A3.385,3.385,0,0,1,87.79,7.6a4.129,4.129,0,0,1,1.754-1.363,6.43,6.43,0,0,1,2.579-.487,6.028,6.028,0,0,1,2.983.73,3.891,3.891,0,0,1,1.822,2.267L95.039,9.4a1.933,1.933,0,0,0-.689-1.08A2.835,2.835,0,0,0,93.244,7.8a5.546,5.546,0,0,0-1.2-.136,3.606,3.606,0,0,0-1.957.473,1.569,1.569,0,0,0-.744,1.418,1.416,1.416,0,0,0,.244.851,1.811,1.811,0,0,0,.674.553,5.015,5.015,0,0,0,1.027.365c.395.1.828.211,1.3.336q.783.19,1.592.473a7.417,7.417,0,0,1,1.513.73A3.728,3.728,0,0,1,96.835,14a3.1,3.1,0,0,1,.445,1.715,3.377,3.377,0,0,1-.649,2.066,4.2,4.2,0,0,1-1.795,1.363,6.777,6.777,0,0,1-2.66.486,5.97,5.97,0,0,1-3.442-.931,4.517,4.517,0,0,1-1.822-2.742Z" fill="#fff"/>
      <path id="Path_5456" data-name="Path 5456" d="M101.438,5.94V2.16h2.024V5.94h3.591V7.83h-3.591v7.263a2.6,2.6,0,0,0,.527,1.809,2.163,2.163,0,0,0,1.35.675,6.825,6.825,0,0,0,1.714,0v1.755a6.2,6.2,0,0,1-2.065.135,4.187,4.187,0,0,1-1.809-.607,3.534,3.534,0,0,1-1.269-1.418,5.118,5.118,0,0,1-.472-2.349V7.83H99.413V5.94Z" fill="#fff"/>
      <path id="Path_5457" data-name="Path 5457" d="M110.078,5.94h1.862l.109,1.971a5.213,5.213,0,0,1,1.309-1.242,4.921,4.921,0,0,1,1.7-.715,5.066,5.066,0,0,1,1.985-.014V7.965a4.851,4.851,0,0,0-2.039,0,3.433,3.433,0,0,0-1.552.81,3.889,3.889,0,0,0-1,1.5,5.757,5.757,0,0,0-.352,2.092V19.44h-2.024Z" fill="#fff"/>
      <path id="Path_5458" data-name="Path 5458" d="M128.248,19.44l-.162-2.43a4.339,4.339,0,0,1-1.674,1.931,5.234,5.234,0,0,1-2.807.689,6.079,6.079,0,0,1-2.485-.459,3.444,3.444,0,0,1-2.133-3.322,3.528,3.528,0,0,1,1.269-2.8,6.534,6.534,0,0,1,3.672-1.336l4.158-.459v-1.08a2.246,2.246,0,0,0-.837-1.823,3.464,3.464,0,0,0-2.267-.688,3.993,3.993,0,0,0-2.336.648,3.292,3.292,0,0,0-1.283,1.863l-1.836-.648a5.052,5.052,0,0,1,1.985-2.781,6.049,6.049,0,0,1,3.523-1,5.323,5.323,0,0,1,3.739,1.228,4.309,4.309,0,0,1,1.337,3.335V19.44Zm-.162-6.453-4.185.486a3.909,3.909,0,0,0-2.052.743,1.881,1.881,0,0,0-.7,1.525,1.861,1.861,0,0,0,.688,1.513,3.048,3.048,0,0,0,1.984.566,4.491,4.491,0,0,0,2.43-.594,3.54,3.54,0,0,0,1.391-1.606,5.4,5.4,0,0,0,.445-2.2Z" fill="#fff"/>
      <path id="Path_5459" data-name="Path 5459" d="M135.16,15.309a2.991,2.991,0,0,0,.594,1.336,2.688,2.688,0,0,0,1.121.8,4.382,4.382,0,0,0,1.606.27,3.606,3.606,0,0,0,2.174-.553,1.677,1.677,0,0,0,.742-1.391,1.508,1.508,0,0,0-.445-1.134,3.479,3.479,0,0,0-1.175-.716,12.959,12.959,0,0,0-1.62-.5q-.7-.161-1.512-.39a7.273,7.273,0,0,1-1.539-.635,3.546,3.546,0,0,1-1.188-1.053,2.881,2.881,0,0,1-.459-1.7,3.392,3.392,0,0,1,.635-2.039,4.136,4.136,0,0,1,1.754-1.363,6.435,6.435,0,0,1,2.58-.487,6.033,6.033,0,0,1,2.983.73,3.891,3.891,0,0,1,1.822,2.267l-1.889.649a1.944,1.944,0,0,0-.689-1.08,2.839,2.839,0,0,0-1.107-.513,5.537,5.537,0,0,0-1.2-.136,3.61,3.61,0,0,0-1.958.473,1.568,1.568,0,0,0-.743,1.418,1.422,1.422,0,0,0,.243.851,1.822,1.822,0,0,0,.675.553,5.015,5.015,0,0,0,1.027.365c.395.1.827.211,1.3.336q.782.19,1.592.473a7.384,7.384,0,0,1,1.512.73A3.728,3.728,0,0,1,143.139,14a3.1,3.1,0,0,1,.445,1.715,3.383,3.383,0,0,1-.648,2.066,4.212,4.212,0,0,1-1.8,1.363,6.768,6.768,0,0,1-2.659.486,5.965,5.965,0,0,1-3.442-.931,4.517,4.517,0,0,1-1.822-2.742Z" fill="#fff"/>
      <path id="Path_5460" data-name="Path 5460" d="M155.221,5.94l4.267,11.232L163.781,5.94h2.132l-5.4,13.5h-2.1l-5.346-13.5Z" fill="#fff"/>
      <path id="Path_5461" data-name="Path 5461" d="M174.068,19.63a6.217,6.217,0,0,1-3.362-.918A6.4,6.4,0,0,1,168.4,16.2a7.7,7.7,0,0,1-.837-3.644,7.216,7.216,0,0,1,.837-3.51,6.231,6.231,0,0,1,2.295-2.417,6.31,6.31,0,0,1,3.32-.878,6.6,6.6,0,0,1,3.281.811A5.808,5.808,0,0,1,179.548,8.8a6.137,6.137,0,0,1,.756,3.267q0,.3-.026.621t-.055.7H169.775a4.769,4.769,0,0,0,.621,2.241,4.2,4.2,0,0,0,1.5,1.525,4.058,4.058,0,0,0,2.119.554,5.5,5.5,0,0,0,2.66-.595,3.482,3.482,0,0,0,1.579-1.7l1.755.7a5.849,5.849,0,0,1-2.349,2.606,6.955,6.955,0,0,1-3.59.9m4.022-7.992a3.681,3.681,0,0,0-1.971-3.456,4.513,4.513,0,0,0-2.187-.514,3.88,3.88,0,0,0-1.971.514A4.267,4.267,0,0,0,170.489,9.6a4.52,4.52,0,0,0-.688,2.039Z" fill="#fff"/>
      <path id="Path_5462" data-name="Path 5462" d="M183.625,5.94h1.862l.109,1.917A4.474,4.474,0,0,1,187.3,6.3a5.216,5.216,0,0,1,2.457-.553,5.352,5.352,0,0,1,2.7.662,4.482,4.482,0,0,1,1.809,1.97,7.387,7.387,0,0,1,.648,3.281V19.44h-2.025V11.907a4.909,4.909,0,0,0-.9-3.2,3.185,3.185,0,0,0-2.6-1.094,3.4,3.4,0,0,0-2.741,1.161,5.178,5.178,0,0,0-.986,3.429V19.44h-2.024Z" fill="#fff"/>
      <path id="Path_5463" data-name="Path 5463" d="M199.689,5.94V2.16h2.024V5.94H205.3V7.83h-3.592v7.263a2.6,2.6,0,0,0,.528,1.809,2.161,2.161,0,0,0,1.349.675,6.833,6.833,0,0,0,1.715,0v1.755a6.2,6.2,0,0,1-2.065.135,4.192,4.192,0,0,1-1.81-.607,3.532,3.532,0,0,1-1.268-1.418,5.1,5.1,0,0,1-.473-2.349V7.83h-2.025V5.94Z" fill="#fff"/>
      <path id="Path_5464" data-name="Path 5464" d="M216.78,19.44l-.162-2.43a4.339,4.339,0,0,1-1.674,1.931,5.234,5.234,0,0,1-2.807.689,6.079,6.079,0,0,1-2.485-.459,3.444,3.444,0,0,1-2.133-3.322,3.528,3.528,0,0,1,1.269-2.8,6.534,6.534,0,0,1,3.672-1.336l4.158-.459v-1.08a2.246,2.246,0,0,0-.837-1.823,3.464,3.464,0,0,0-2.267-.688,3.993,3.993,0,0,0-2.336.648,3.292,3.292,0,0,0-1.283,1.863l-1.836-.648a5.052,5.052,0,0,1,1.985-2.781,6.048,6.048,0,0,1,3.523-1,5.323,5.323,0,0,1,3.739,1.228,4.309,4.309,0,0,1,1.337,3.335V19.44Zm-.162-6.453-4.185.486a3.909,3.909,0,0,0-2.052.743,1.881,1.881,0,0,0-.7,1.525,1.861,1.861,0,0,0,.688,1.513,3.048,3.048,0,0,0,1.984.566,4.491,4.491,0,0,0,2.43-.594,3.54,3.54,0,0,0,1.391-1.606,5.4,5.4,0,0,0,.445-2.2Z" fill="#fff"/>
      <path id="Path_5465" data-name="Path 5465" d="M223.692,15.309a2.98,2.98,0,0,0,.594,1.336,2.685,2.685,0,0,0,1.12.8,4.386,4.386,0,0,0,1.606.27,3.6,3.6,0,0,0,2.174-.553,1.674,1.674,0,0,0,.742-1.391,1.508,1.508,0,0,0-.445-1.134,3.484,3.484,0,0,0-1.174-.716,12.96,12.96,0,0,0-1.62-.5q-.7-.161-1.513-.39a7.273,7.273,0,0,1-1.539-.635,3.543,3.543,0,0,1-1.187-1.053,2.874,2.874,0,0,1-.459-1.7,3.385,3.385,0,0,1,.635-2.039,4.129,4.129,0,0,1,1.754-1.363,6.43,6.43,0,0,1,2.579-.487,6.028,6.028,0,0,1,2.983.73,3.891,3.891,0,0,1,1.822,2.267l-1.889.649a1.933,1.933,0,0,0-.689-1.08A2.835,2.835,0,0,0,228.08,7.8a5.546,5.546,0,0,0-1.2-.136,3.606,3.606,0,0,0-1.957.473,1.569,1.569,0,0,0-.744,1.418,1.416,1.416,0,0,0,.244.851,1.811,1.811,0,0,0,.674.553,5.015,5.015,0,0,0,1.027.365c.4.1.828.211,1.3.336q.783.19,1.592.473a7.417,7.417,0,0,1,1.513.73A3.728,3.728,0,0,1,231.671,14a3.1,3.1,0,0,1,.445,1.715,3.377,3.377,0,0,1-.649,2.066,4.2,4.2,0,0,1-1.795,1.363,6.777,6.777,0,0,1-2.66.486,5.97,5.97,0,0,1-3.442-.931,4.517,4.517,0,0,1-1.822-2.742Z" fill="#fff"/>
      <path id="Path_5466" data-name="Path 5466" d="M11.448,54.44l-.162-2.43a4.339,4.339,0,0,1-1.674,1.931A5.234,5.234,0,0,1,6.8,54.63a6.079,6.079,0,0,1-2.485-.459,3.579,3.579,0,0,1-1.58-1.31,3.6,3.6,0,0,1-.553-2.012,3.528,3.528,0,0,1,1.269-2.795,6.534,6.534,0,0,1,3.672-1.336l4.158-.459v-1.08a2.246,2.246,0,0,0-.837-1.823,3.464,3.464,0,0,0-2.267-.688,3.993,3.993,0,0,0-2.336.648,3.292,3.292,0,0,0-1.283,1.863l-1.836-.648A5.052,5.052,0,0,1,4.712,41.75a6.049,6.049,0,0,1,3.523-1,5.323,5.323,0,0,1,3.739,1.228,4.309,4.309,0,0,1,1.337,3.335V54.44Zm-.162-6.453L7.1,48.473a3.909,3.909,0,0,0-2.052.743,1.881,1.881,0,0,0-.7,1.525,1.861,1.861,0,0,0,.688,1.513,3.048,3.048,0,0,0,1.984.566,4.491,4.491,0,0,0,2.43-.594,3.54,3.54,0,0,0,1.391-1.606,5.4,5.4,0,0,0,.445-2.2Z" fill="#fff"/>
      <path id="Path_5467" data-name="Path 5467" d="M26.082,40.94h2.106l-7.721,18.9H18.522l2.3-5.589L15.363,40.94h2.214L21.9,51.848Z" fill="#fff"/>
      <path id="Path_5468" data-name="Path 5468" d="M41.823,54.44H39.987L39.851,52.5a4.212,4.212,0,0,1-1.674,1.58,5.219,5.219,0,0,1-2.457.553,5.5,5.5,0,0,1-2.726-.648,4.334,4.334,0,0,1-1.8-1.944,7.412,7.412,0,0,1-.635-3.267V40.94h2v7.614a4.747,4.747,0,0,0,.906,3.146,3.222,3.222,0,0,0,2.6,1.066,3.507,3.507,0,0,0,2.74-1.121,4.916,4.916,0,0,0,1.013-3.388V40.94h2Z" fill="#fff"/>
      <path id="Path_5469" data-name="Path 5469" d="M56.376,43.667l-.216.027V35h2.025V54.44H56.322l-.135-2.511a5.284,5.284,0,0,1-1.85,1.917,5.532,5.532,0,0,1-3.037.783,6.121,6.121,0,0,1-3.254-.85,5.71,5.71,0,0,1-2.159-2.417,8.222,8.222,0,0,1-.77-3.672,8.133,8.133,0,0,1,.77-3.658,5.811,5.811,0,0,1,2.159-2.417,6.048,6.048,0,0,1,3.254-.864,5.672,5.672,0,0,1,3.186.837,5.34,5.34,0,0,1,1.89,2.079M47.3,47.69a5.419,5.419,0,0,0,1.188,3.686,4.073,4.073,0,0,0,3.24,1.363A4.345,4.345,0,0,0,54,52.145a4.145,4.145,0,0,0,1.579-1.728,5.922,5.922,0,0,0,.581-2.727,5.841,5.841,0,0,0-.581-2.714,4.181,4.181,0,0,0-3.847-2.335A4.089,4.089,0,0,0,48.505,44a5.379,5.379,0,0,0-1.2,3.686" fill="#fff"/>
      <path id="Path_5470" data-name="Path 5470" d="M70.766,54.44,70.6,52.01a4.339,4.339,0,0,1-1.674,1.931,5.234,5.234,0,0,1-2.807.689,6.079,6.079,0,0,1-2.485-.459,3.444,3.444,0,0,1-2.133-3.322,3.528,3.528,0,0,1,1.269-2.795,6.534,6.534,0,0,1,3.672-1.336l4.158-.459v-1.08a2.246,2.246,0,0,0-.837-1.823,3.464,3.464,0,0,0-2.267-.688,3.993,3.993,0,0,0-2.336.648,3.292,3.292,0,0,0-1.283,1.863l-1.836-.648A5.052,5.052,0,0,1,64.03,41.75a6.049,6.049,0,0,1,3.523-1,5.323,5.323,0,0,1,3.739,1.228,4.309,4.309,0,0,1,1.337,3.335V54.44ZM70.6,47.987l-4.185.486a3.909,3.909,0,0,0-2.052.743,1.881,1.881,0,0,0-.7,1.525,1.861,1.861,0,0,0,.688,1.513,3.048,3.048,0,0,0,1.984.566,4.491,4.491,0,0,0,2.43-.594,3.54,3.54,0,0,0,1.391-1.606,5.4,5.4,0,0,0,.445-2.2Z" fill="#fff"/>
      <path id="Path_5471" data-name="Path 5471" d="M76.571,40.94h1.863l.108,1.917a4.481,4.481,0,0,1,1.7-1.553,5.219,5.219,0,0,1,2.457-.553,5.349,5.349,0,0,1,2.7.662,4.482,4.482,0,0,1,1.809,1.97,7.373,7.373,0,0,1,.648,3.281V54.44H85.832V46.907a4.9,4.9,0,0,0-.9-3.2,3.185,3.185,0,0,0-2.605-1.094,3.4,3.4,0,0,0-2.74,1.161A5.178,5.178,0,0,0,78.6,47.2V54.44H76.571Z" fill="#fff"/>
      <path id="Path_5472" data-name="Path 5472" d="M107.783,54.44l-.162-2.43a4.34,4.34,0,0,1-1.674,1.931,5.234,5.234,0,0,1-2.807.689,6.079,6.079,0,0,1-2.485-.459,3.444,3.444,0,0,1-2.133-3.322,3.528,3.528,0,0,1,1.269-2.795,6.534,6.534,0,0,1,3.672-1.336l4.158-.459v-1.08a2.246,2.246,0,0,0-.837-1.823,3.464,3.464,0,0,0-2.267-.688,3.993,3.993,0,0,0-2.336.648,3.292,3.292,0,0,0-1.283,1.863l-1.836-.648a5.052,5.052,0,0,1,1.985-2.781,6.049,6.049,0,0,1,3.523-1,5.323,5.323,0,0,1,3.739,1.228,4.309,4.309,0,0,1,1.337,3.335V54.44Zm-.162-6.453-4.185.486a3.909,3.909,0,0,0-2.052.743,1.881,1.881,0,0,0-.7,1.525,1.861,1.861,0,0,0,.688,1.513,3.048,3.048,0,0,0,1.984.566,4.491,4.491,0,0,0,2.43-.594,3.54,3.54,0,0,0,1.391-1.606,5.4,5.4,0,0,0,.445-2.2Z" fill="#fff"/>
      <path id="Path_5473" data-name="Path 5473" d="M121.148,40.94h1.862l.136,1.944a4.421,4.421,0,0,1,1.606-1.552,4.781,4.781,0,0,1,2.417-.581,5.055,5.055,0,0,1,2.605.688,4.587,4.587,0,0,1,1.822,2.039,4.207,4.207,0,0,1,1.891-2.052,5.884,5.884,0,0,1,2.807-.675,5.292,5.292,0,0,1,2.673.662,4.484,4.484,0,0,1,1.81,1.97,7.373,7.373,0,0,1,.647,3.281V54.44H139.4V46.907a4.909,4.909,0,0,0-.9-3.2,3.154,3.154,0,0,0-2.578-1.094,3.361,3.361,0,0,0-2.7,1.175,5.23,5.23,0,0,0-1,3.469V54.44h-2.024V46.907a5.074,5.074,0,0,0-.864-3.2,3.039,3.039,0,0,0-2.538-1.094,3.242,3.242,0,0,0-2.66,1.175,5.386,5.386,0,0,0-.959,3.469V54.44h-2.024Z" fill="#fff"/>
      <path id="Path_5474" data-name="Path 5474" d="M153.791,54.44l-.162-2.43a4.339,4.339,0,0,1-1.674,1.931,5.234,5.234,0,0,1-2.807.689,6.079,6.079,0,0,1-2.485-.459,3.444,3.444,0,0,1-2.133-3.322,3.528,3.528,0,0,1,1.269-2.795,6.534,6.534,0,0,1,3.672-1.336l4.158-.459v-1.08a2.246,2.246,0,0,0-.837-1.823,3.464,3.464,0,0,0-2.267-.688,3.993,3.993,0,0,0-2.336.648,3.292,3.292,0,0,0-1.283,1.863l-1.836-.648a5.052,5.052,0,0,1,1.985-2.781,6.049,6.049,0,0,1,3.523-1,5.323,5.323,0,0,1,3.739,1.228,4.309,4.309,0,0,1,1.337,3.335V54.44Zm-.162-6.453-4.185.486a3.909,3.909,0,0,0-2.052.743,1.881,1.881,0,0,0-.7,1.525,1.861,1.861,0,0,0,.688,1.513,3.048,3.048,0,0,0,1.984.566,4.491,4.491,0,0,0,2.43-.594,3.541,3.541,0,0,0,1.391-1.606,5.4,5.4,0,0,0,.445-2.2Z" fill="#fff"/>
      <path id="Path_5475" data-name="Path 5475" d="M159.6,40.94h1.863l.108,1.917a4.481,4.481,0,0,1,1.7-1.553,5.219,5.219,0,0,1,2.457-.553,5.349,5.349,0,0,1,2.7.662,4.482,4.482,0,0,1,1.809,1.97,7.373,7.373,0,0,1,.648,3.281V54.44h-2.025V46.907a4.9,4.9,0,0,0-.9-3.2,3.185,3.185,0,0,0-2.6-1.094,3.4,3.4,0,0,0-2.74,1.161,5.178,5.178,0,0,0-.986,3.429V54.44H159.6Z" fill="#fff"/>
      <path id="Path_5476" data-name="Path 5476" d="M175.66,40.94V37.16h2.025v3.78h3.591v1.89h-3.591v7.263a2.6,2.6,0,0,0,.527,1.809,2.163,2.163,0,0,0,1.35.675,6.825,6.825,0,0,0,1.714,0v1.755a6.2,6.2,0,0,1-2.065.135,4.187,4.187,0,0,1-1.809-.607,3.534,3.534,0,0,1-1.269-1.418,5.117,5.117,0,0,1-.473-2.349V42.83h-2.024V40.94Z" fill="#fff"/>
      <path id="Path_5477" data-name="Path 5477" d="M189.971,54.63a6.217,6.217,0,0,1-3.362-.918A6.4,6.4,0,0,1,184.3,51.2a7.7,7.7,0,0,1-.837-3.644,7.216,7.216,0,0,1,.837-3.51,6.231,6.231,0,0,1,2.295-2.417,6.31,6.31,0,0,1,3.32-.878,6.6,6.6,0,0,1,3.281.811,5.808,5.808,0,0,1,2.254,2.241,6.137,6.137,0,0,1,.756,3.267q0,.3-.026.621t-.055.7H185.678a4.769,4.769,0,0,0,.621,2.241,4.2,4.2,0,0,0,1.5,1.525,4.058,4.058,0,0,0,2.119.554,5.5,5.5,0,0,0,2.66-.6,3.482,3.482,0,0,0,1.579-1.7l1.755.7a5.849,5.849,0,0,1-2.349,2.606,6.955,6.955,0,0,1-3.59.905m4.022-7.992a3.681,3.681,0,0,0-1.971-3.456,4.513,4.513,0,0,0-2.187-.514,3.88,3.88,0,0,0-1.971.514,4.267,4.267,0,0,0-1.472,1.417,4.52,4.52,0,0,0-.688,2.039Z" fill="#fff"/>
      <path id="Path_5478" data-name="Path 5478" d="M199.528,40.94h1.863l.108,1.917a4.481,4.481,0,0,1,1.7-1.553,5.219,5.219,0,0,1,2.457-.553,5.349,5.349,0,0,1,2.7.662,4.482,4.482,0,0,1,1.809,1.97,7.373,7.373,0,0,1,.648,3.281V54.44h-2.025V46.907a4.9,4.9,0,0,0-.9-3.2,3.185,3.185,0,0,0-2.6-1.094,3.4,3.4,0,0,0-2.74,1.161,5.178,5.178,0,0,0-.986,3.429V54.44h-2.025Z" fill="#fff"/>
      <path id="Path_5479" data-name="Path 5479" d="M220.4,54.63a6.217,6.217,0,0,1-3.362-.918A6.4,6.4,0,0,1,214.73,51.2a7.7,7.7,0,0,1-.837-3.644,7.216,7.216,0,0,1,.837-3.51,6.231,6.231,0,0,1,2.295-2.417,6.31,6.31,0,0,1,3.32-.878,6.6,6.6,0,0,1,3.281.811A5.808,5.808,0,0,1,225.88,43.8a6.137,6.137,0,0,1,.756,3.267q0,.3-.026.621t-.055.7H216.107a4.769,4.769,0,0,0,.621,2.241,4.2,4.2,0,0,0,1.5,1.525,4.058,4.058,0,0,0,2.119.554,5.5,5.5,0,0,0,2.66-.6,3.482,3.482,0,0,0,1.579-1.7l1.755.7a5.849,5.849,0,0,1-2.349,2.606,6.955,6.955,0,0,1-3.59.905m4.022-7.992a3.681,3.681,0,0,0-1.971-3.456,4.513,4.513,0,0,0-2.187-.514,3.88,3.88,0,0,0-1.971.514,4.267,4.267,0,0,0-1.472,1.417,4.52,4.52,0,0,0-.688,2.039Z" fill="#fff"/>
      <path id="Path_5480" data-name="Path 5480" d="M229.957,40.94h1.862l.109,1.971a5.214,5.214,0,0,1,1.309-1.242,4.921,4.921,0,0,1,1.7-.715,5.067,5.067,0,0,1,1.985-.014v2.025a4.851,4.851,0,0,0-2.039,0,3.433,3.433,0,0,0-1.552.81,3.889,3.889,0,0,0-1,1.5,5.757,5.757,0,0,0-.352,2.092V54.44h-2.024Z" fill="#fff"/>
      <path id="Path_5481" data-name="Path 5481" d="M258.279,54.44h-1.836l-.135-1.944a4.212,4.212,0,0,1-1.674,1.58,5.219,5.219,0,0,1-2.457.553,5.506,5.506,0,0,1-2.727-.648,4.337,4.337,0,0,1-1.795-1.944,7.4,7.4,0,0,1-.635-3.267V40.94h2v7.614a4.747,4.747,0,0,0,.9,3.146,3.224,3.224,0,0,0,2.6,1.066,3.506,3.506,0,0,0,2.74-1.121,4.911,4.911,0,0,0,1.013-3.388V40.94h2Z" fill="#fff"/>
      <path id="Path_5482" data-name="Path 5482" d="M262.41,40.94h1.863l.108,1.917a4.481,4.481,0,0,1,1.7-1.553,5.219,5.219,0,0,1,2.457-.553,5.35,5.35,0,0,1,2.7.662,4.482,4.482,0,0,1,1.809,1.97,7.373,7.373,0,0,1,.648,3.281V54.44h-2.025V46.907a4.9,4.9,0,0,0-.9-3.2,3.185,3.185,0,0,0-2.6-1.094,3.4,3.4,0,0,0-2.74,1.161,5.178,5.178,0,0,0-.986,3.429V54.44H262.41Z" fill="#fff"/>
      <path id="Path_5483" data-name="Path 5483" d="M3,75.94H4.86l.135,1.944A4.429,4.429,0,0,1,6.6,76.332a4.781,4.781,0,0,1,2.417-.581,5.058,5.058,0,0,1,2.606.688,4.593,4.593,0,0,1,1.822,2.039,4.209,4.209,0,0,1,1.89-2.052,5.885,5.885,0,0,1,2.808-.675,5.294,5.294,0,0,1,2.673.662,4.482,4.482,0,0,1,1.809,1.97,7.359,7.359,0,0,1,.648,3.281V89.44H21.249V81.907a4.915,4.915,0,0,0-.9-3.2,3.156,3.156,0,0,0-2.578-1.094,3.358,3.358,0,0,0-2.7,1.175,5.23,5.23,0,0,0-1,3.469V89.44H12.042V81.907a5.074,5.074,0,0,0-.864-3.2,3.038,3.038,0,0,0-2.537-1.094A3.243,3.243,0,0,0,5.98,78.789a5.392,5.392,0,0,0-.958,3.469V89.44H3Z" fill="#fff"/>
      <path id="Path_5484" data-name="Path 5484" d="M33.021,89.63a6.947,6.947,0,0,1-3.429-.838A6,6,0,0,1,27.216,86.4a8.324,8.324,0,0,1,.013-7.412,6.045,6.045,0,0,1,2.4-2.4,7.488,7.488,0,0,1,6.884,0,6.076,6.076,0,0,1,2.4,2.389,8.21,8.21,0,0,1-.014,7.412,6.115,6.115,0,0,1-2.43,2.4,7.1,7.1,0,0,1-3.456.838m-.027-1.917a4.944,4.944,0,0,0,2.241-.527,4.117,4.117,0,0,0,1.714-1.647,5.535,5.535,0,0,0,.662-2.848,5.621,5.621,0,0,0-.648-2.863,4.084,4.084,0,0,0-1.688-1.633,4.859,4.859,0,0,0-2.227-.527,4.777,4.777,0,0,0-2.214.527,4,4,0,0,0-1.66,1.647,5.719,5.719,0,0,0-.635,2.849,5.816,5.816,0,0,0,.621,2.862,3.959,3.959,0,0,0,1.634,1.633,4.7,4.7,0,0,0,2.2.527" fill="#fff"/>
      <path id="Path_5485" data-name="Path 5485" d="M53.541,78.667l-.216.027V70H55.35V89.44H53.487l-.135-2.511a5.284,5.284,0,0,1-1.85,1.917,5.532,5.532,0,0,1-3.037.783,6.121,6.121,0,0,1-3.254-.85,5.71,5.71,0,0,1-2.159-2.417,8.222,8.222,0,0,1-.77-3.672,8.133,8.133,0,0,1,.77-3.658,5.811,5.811,0,0,1,2.159-2.417,6.048,6.048,0,0,1,3.254-.864,5.672,5.672,0,0,1,3.186.837,5.341,5.341,0,0,1,1.89,2.079M44.469,82.69a5.419,5.419,0,0,0,1.188,3.686,4.073,4.073,0,0,0,3.24,1.363,4.345,4.345,0,0,0,2.268-.594,4.145,4.145,0,0,0,1.579-1.728,5.922,5.922,0,0,0,.581-2.727,5.841,5.841,0,0,0-.581-2.714A4.181,4.181,0,0,0,48.9,77.641,4.089,4.089,0,0,0,45.67,79a5.379,5.379,0,0,0-1.2,3.686" fill="#fff"/>
      <path id="Path_5486" data-name="Path 5486" d="M65.151,89.63a6.22,6.22,0,0,1-3.362-.918A6.4,6.4,0,0,1,59.481,86.2a7.713,7.713,0,0,1-.837-3.644,7.228,7.228,0,0,1,.837-3.51,6.238,6.238,0,0,1,2.3-2.417,6.314,6.314,0,0,1,3.321-.878,6.592,6.592,0,0,1,3.28.811A5.8,5.8,0,0,1,70.632,78.8a6.137,6.137,0,0,1,.756,3.267c0,.2-.01.4-.027.621s-.037.45-.054.7H60.858a4.78,4.78,0,0,0,.621,2.241,4.2,4.2,0,0,0,1.5,1.525,4.056,4.056,0,0,0,2.119.554,5.488,5.488,0,0,0,2.659-.6,3.479,3.479,0,0,0,1.58-1.7l1.755.7a5.851,5.851,0,0,1-2.35,2.606,6.95,6.95,0,0,1-3.59.9m4.023-7.992A3.684,3.684,0,0,0,67.2,78.182a4.509,4.509,0,0,0-2.186-.514,3.88,3.88,0,0,0-1.971.514A4.25,4.25,0,0,0,61.573,79.6a4.5,4.5,0,0,0-.688,2.039Z" fill="#fff"/>
      <rect id="Rectangle_192" data-name="Rectangle 192" width="2.024" height="19.44" transform="translate(74.709 70)" fill="#fff"/>
      <path id="Path_5487" data-name="Path 5487" d="M86.7,89.63a6.944,6.944,0,0,1-3.428-.838A5.99,5.99,0,0,1,80.892,86.4a8.316,8.316,0,0,1,.013-7.412,6.043,6.043,0,0,1,2.4-2.4,7.49,7.49,0,0,1,6.885,0,6.074,6.074,0,0,1,2.4,2.389,8.2,8.2,0,0,1-.014,7.412,6.108,6.108,0,0,1-2.43,2.4,7.1,7.1,0,0,1-3.456.838m-.027-1.917a4.944,4.944,0,0,0,2.241-.527,4.125,4.125,0,0,0,1.715-1.647,5.545,5.545,0,0,0,.661-2.848,5.631,5.631,0,0,0-.647-2.863,4.1,4.1,0,0,0-1.688-1.633,4.859,4.859,0,0,0-2.227-.527,4.774,4.774,0,0,0-2.214.527,4,4,0,0,0-1.661,1.647,5.73,5.73,0,0,0-.634,2.849,5.817,5.817,0,0,0,.62,2.862,3.965,3.965,0,0,0,1.634,1.633,4.7,4.7,0,0,0,2.2.527" fill="#fff"/>
      <rect id="Rectangle_193" data-name="Rectangle 193" width="2.024" height="19.44" transform="translate(104.354 70)" fill="#fff"/>
      <path id="Path_5488" data-name="Path 5488" d="M116.342,89.63a6.947,6.947,0,0,1-3.429-.838,6,6,0,0,1-2.376-2.389,8.324,8.324,0,0,1,.013-7.412,6.045,6.045,0,0,1,2.4-2.4,7.488,7.488,0,0,1,6.884,0,6.076,6.076,0,0,1,2.4,2.389,8.21,8.21,0,0,1-.014,7.412,6.114,6.114,0,0,1-2.43,2.4,7.1,7.1,0,0,1-3.456.838m-.027-1.917a4.944,4.944,0,0,0,2.241-.527,4.117,4.117,0,0,0,1.714-1.647,5.535,5.535,0,0,0,.662-2.848,5.621,5.621,0,0,0-.648-2.863,4.084,4.084,0,0,0-1.688-1.633,4.859,4.859,0,0,0-2.227-.527,4.777,4.777,0,0,0-2.214.527,4,4,0,0,0-1.66,1.647,5.719,5.719,0,0,0-.635,2.849,5.816,5.816,0,0,0,.621,2.862,3.959,3.959,0,0,0,1.634,1.633,4.7,4.7,0,0,0,2.2.527" fill="#fff"/>
      <path id="Path_5489" data-name="Path 5489" d="M132.191,89.63a6.745,6.745,0,0,1-3.456-.864,5.976,5.976,0,0,1-2.309-2.417,7.579,7.579,0,0,1-.823-3.6,7.8,7.8,0,0,1,.823-3.658,6.024,6.024,0,0,1,2.309-2.457,6.664,6.664,0,0,1,3.456-.878,6.842,6.842,0,0,1,3.645.959,5.514,5.514,0,0,1,2.268,2.659l-1.863.649a3.327,3.327,0,0,0-1.472-1.715,4.741,4.741,0,0,0-2.471-.635,4.489,4.489,0,0,0-2.389.621,4.134,4.134,0,0,0-1.566,1.755,6.039,6.039,0,0,0-.553,2.674A5.258,5.258,0,0,0,129,86.349a4.13,4.13,0,0,0,3.241,1.364,4.84,4.84,0,0,0,2.457-.621,3.864,3.864,0,0,0,1.593-1.675l1.835.649a5.6,5.6,0,0,1-2.294,2.619,6.917,6.917,0,0,1-3.645.945" fill="#fff"/>
      <path id="Path_5490" data-name="Path 5490" d="M149.9,89.44l-.162-2.43a4.339,4.339,0,0,1-1.674,1.931,5.234,5.234,0,0,1-2.807.689,6.079,6.079,0,0,1-2.485-.459,3.444,3.444,0,0,1-2.133-3.322,3.528,3.528,0,0,1,1.269-2.795,6.534,6.534,0,0,1,3.672-1.336l4.158-.459v-1.08a2.246,2.246,0,0,0-.837-1.823,3.464,3.464,0,0,0-2.267-.688,3.993,3.993,0,0,0-2.336.648,3.292,3.292,0,0,0-1.283,1.863l-1.836-.648a5.052,5.052,0,0,1,1.985-2.781,6.048,6.048,0,0,1,3.523-1,5.323,5.323,0,0,1,3.739,1.228,4.309,4.309,0,0,1,1.337,3.335V89.44Zm-.162-6.453-4.185.486a3.909,3.909,0,0,0-2.052.743,1.881,1.881,0,0,0-.7,1.525,1.861,1.861,0,0,0,.688,1.513,3.048,3.048,0,0,0,1.984.566,4.491,4.491,0,0,0,2.43-.594A3.54,3.54,0,0,0,149.3,85.62a5.4,5.4,0,0,0,.445-2.2Z" fill="#fff"/>
      <rect id="Rectangle_194" data-name="Rectangle 194" width="2.025" height="19.44" transform="translate(155.708 70)" fill="#fff"/>
      <path id="Path_5491" data-name="Path 5491" d="M179.845,78.667l-.216.027V70h2.026V89.44h-1.863l-.135-2.511a5.292,5.292,0,0,1-1.85,1.917,5.536,5.536,0,0,1-3.038.783,6.12,6.12,0,0,1-3.253-.85,5.705,5.705,0,0,1-2.16-2.417,8.235,8.235,0,0,1-.77-3.672,8.146,8.146,0,0,1,.77-3.658,5.806,5.806,0,0,1,2.16-2.417,6.047,6.047,0,0,1,3.253-.864,5.676,5.676,0,0,1,3.187.837,5.345,5.345,0,0,1,1.889,2.079m-9.071,4.023a5.423,5.423,0,0,0,1.187,3.686,4.077,4.077,0,0,0,3.241,1.363,4.342,4.342,0,0,0,2.267-.594,4.147,4.147,0,0,0,1.58-1.728,5.922,5.922,0,0,0,.58-2.727,5.841,5.841,0,0,0-.58-2.714,4.184,4.184,0,0,0-3.847-2.335A4.087,4.087,0,0,0,171.975,79a5.379,5.379,0,0,0-1.2,3.686" fill="#fff"/>
      <path id="Path_5492" data-name="Path 5492" d="M191.456,89.63a6.22,6.22,0,0,1-3.362-.918,6.4,6.4,0,0,1-2.308-2.512,7.7,7.7,0,0,1-.837-3.644,7.216,7.216,0,0,1,.837-3.51,6.231,6.231,0,0,1,2.295-2.417,6.31,6.31,0,0,1,3.32-.878,6.6,6.6,0,0,1,3.281.811,5.808,5.808,0,0,1,2.254,2.241,6.128,6.128,0,0,1,.756,3.267q0,.3-.026.621t-.055.7H187.163a4.758,4.758,0,0,0,.622,2.241,4.188,4.188,0,0,0,1.5,1.525,4.058,4.058,0,0,0,2.119.554,5.5,5.5,0,0,0,2.66-.6,3.482,3.482,0,0,0,1.579-1.7l1.755.7a5.849,5.849,0,0,1-2.349,2.606,6.955,6.955,0,0,1-3.59.9m4.023-7.992a3.684,3.684,0,0,0-1.972-3.456,4.513,4.513,0,0,0-2.187-.514,3.88,3.88,0,0,0-1.971.514,4.267,4.267,0,0,0-1.472,1.417,4.52,4.52,0,0,0-.688,2.039Z" fill="#fff"/>
      <path id="Path_5493" data-name="Path 5493" d="M8.667,124.63a6.22,6.22,0,0,1-3.362-.918A6.4,6.4,0,0,1,3,121.2a7.713,7.713,0,0,1-.837-3.644A7.227,7.227,0,0,1,3,114.046a6.238,6.238,0,0,1,2.295-2.417,6.314,6.314,0,0,1,3.321-.878,6.592,6.592,0,0,1,3.28.811,5.8,5.8,0,0,1,2.255,2.241,6.137,6.137,0,0,1,.756,3.267c0,.2-.01.4-.027.621s-.037.45-.054.7H4.374a4.78,4.78,0,0,0,.621,2.241,4.2,4.2,0,0,0,1.5,1.525,4.056,4.056,0,0,0,2.119.554,5.488,5.488,0,0,0,2.659-.6,3.479,3.479,0,0,0,1.58-1.7l1.755.7a5.851,5.851,0,0,1-2.35,2.606,6.95,6.95,0,0,1-3.59.9m4.023-7.992a3.684,3.684,0,0,0-1.972-3.456,4.509,4.509,0,0,0-2.186-.514,3.88,3.88,0,0,0-1.971.514A4.25,4.25,0,0,0,5.089,114.6a4.5,4.5,0,0,0-.688,2.039Z" fill="#fff"/>
      <path id="Path_5494" data-name="Path 5494" d="M23.977,124.63a6.745,6.745,0,0,1-3.456-.864,5.976,5.976,0,0,1-2.309-2.417,7.579,7.579,0,0,1-.823-3.6,7.8,7.8,0,0,1,.823-3.658,6.024,6.024,0,0,1,2.309-2.457,6.664,6.664,0,0,1,3.456-.878,6.842,6.842,0,0,1,3.645.959,5.514,5.514,0,0,1,2.268,2.659l-1.863.649a3.327,3.327,0,0,0-1.472-1.715,4.741,4.741,0,0,0-2.471-.635,4.489,4.489,0,0,0-2.389.621,4.134,4.134,0,0,0-1.566,1.755,6.039,6.039,0,0,0-.553,2.674,5.258,5.258,0,0,0,1.214,3.631,4.13,4.13,0,0,0,3.241,1.364,4.84,4.84,0,0,0,2.457-.621,3.864,3.864,0,0,0,1.593-1.675l1.835.649a5.6,5.6,0,0,1-2.294,2.619,6.917,6.917,0,0,1-3.645.945" fill="#fff"/>
      <path id="Path_5495" data-name="Path 5495" d="M39.069,124.63a6.947,6.947,0,0,1-3.429-.838,6,6,0,0,1-2.376-2.389,8.324,8.324,0,0,1,.013-7.412,6.045,6.045,0,0,1,2.4-2.4,7.488,7.488,0,0,1,6.884,0,6.076,6.076,0,0,1,2.4,2.389,8.21,8.21,0,0,1-.014,7.412,6.115,6.115,0,0,1-2.43,2.4,7.1,7.1,0,0,1-3.456.838m-.027-1.917a4.944,4.944,0,0,0,2.241-.527A4.117,4.117,0,0,0,43,120.539a5.535,5.535,0,0,0,.662-2.848,5.621,5.621,0,0,0-.648-2.863,4.084,4.084,0,0,0-1.688-1.633,4.859,4.859,0,0,0-2.227-.527,4.777,4.777,0,0,0-2.214.527,4,4,0,0,0-1.66,1.647,5.719,5.719,0,0,0-.635,2.849,5.816,5.816,0,0,0,.621,2.862,3.959,3.959,0,0,0,1.634,1.633,4.7,4.7,0,0,0,2.2.527" fill="#fff"/>
      <path id="Path_5496" data-name="Path 5496" d="M49.167,110.94H51.03l.108,1.917a4.481,4.481,0,0,1,1.7-1.553,5.219,5.219,0,0,1,2.457-.553,5.349,5.349,0,0,1,2.7.662,4.482,4.482,0,0,1,1.809,1.97,7.373,7.373,0,0,1,.648,3.281v7.776H58.428v-7.533a4.9,4.9,0,0,0-.905-3.2,3.185,3.185,0,0,0-2.6-1.094,3.4,3.4,0,0,0-2.74,1.161,5.178,5.178,0,0,0-.986,3.429v7.236H49.167Z" fill="#fff"/>
      <path id="Path_5497" data-name="Path 5497" d="M70.2,124.63a6.947,6.947,0,0,1-3.429-.838,6,6,0,0,1-2.376-2.389,8.324,8.324,0,0,1,.013-7.412,6.045,6.045,0,0,1,2.4-2.4,7.488,7.488,0,0,1,6.884,0,6.076,6.076,0,0,1,2.4,2.389,8.21,8.21,0,0,1-.014,7.412,6.114,6.114,0,0,1-2.43,2.4,7.1,7.1,0,0,1-3.456.838m-.027-1.917a4.944,4.944,0,0,0,2.241-.527,4.117,4.117,0,0,0,1.714-1.647,5.535,5.535,0,0,0,.662-2.848,5.621,5.621,0,0,0-.648-2.863,4.084,4.084,0,0,0-1.688-1.633,4.859,4.859,0,0,0-2.227-.527,4.777,4.777,0,0,0-2.214.527,4,4,0,0,0-1.66,1.647,5.719,5.719,0,0,0-.635,2.849,5.817,5.817,0,0,0,.621,2.862,3.959,3.959,0,0,0,1.634,1.633,4.7,4.7,0,0,0,2.2.527" fill="#fff"/>
      <path id="Path_5498" data-name="Path 5498" d="M80.3,110.94H82.16l.136,1.944a4.421,4.421,0,0,1,1.606-1.552,4.781,4.781,0,0,1,2.417-.581,5.055,5.055,0,0,1,2.605.688,4.587,4.587,0,0,1,1.822,2.039,4.207,4.207,0,0,1,1.891-2.052,5.884,5.884,0,0,1,2.807-.675,5.292,5.292,0,0,1,2.673.662,4.484,4.484,0,0,1,1.81,1.97,7.373,7.373,0,0,1,.647,3.281v7.776H98.55v-7.533a4.909,4.909,0,0,0-.905-3.2,3.154,3.154,0,0,0-2.578-1.094,3.361,3.361,0,0,0-2.7,1.175,5.23,5.23,0,0,0-1,3.469v7.182H89.343v-7.533a5.074,5.074,0,0,0-.864-3.2,3.039,3.039,0,0,0-2.538-1.094,3.242,3.242,0,0,0-2.66,1.175,5.386,5.386,0,0,0-.959,3.469v7.182H80.3Z" fill="#fff"/>
      <path id="Path_5499" data-name="Path 5499" d="M107.837,105.189v1.7l-5.049,2.808V108.24Zm-3.348,5.751h2.16v13.5h-2.16Z" fill="#fff"/>
      <path id="Path_5500" data-name="Path 5500" d="M119.23,124.44l-.161-2.43a4.335,4.335,0,0,1-1.675,1.931,5.234,5.234,0,0,1-2.807.689,6.086,6.086,0,0,1-2.485-.459,3.448,3.448,0,0,1-2.133-3.322,3.526,3.526,0,0,1,1.27-2.795,6.531,6.531,0,0,1,3.672-1.336l4.158-.459v-1.08a2.244,2.244,0,0,0-.838-1.823,3.46,3.46,0,0,0-2.267-.688,3.988,3.988,0,0,0-2.335.648,3.3,3.3,0,0,0-1.284,1.863l-1.836-.648a5.057,5.057,0,0,1,1.985-2.781,6.051,6.051,0,0,1,3.523-1,5.325,5.325,0,0,1,3.74,1.228,4.309,4.309,0,0,1,1.336,3.335v9.126Zm-.161-6.453-4.186.486a3.9,3.9,0,0,0-2.051.743,2.008,2.008,0,0,0-.014,3.038,3.048,3.048,0,0,0,1.984.566,4.5,4.5,0,0,0,2.431-.594,3.544,3.544,0,0,0,1.39-1.606,5.386,5.386,0,0,0,.446-2.2Z" fill="#fff"/>
      <path id="Path_5501" data-name="Path 5501" d="M138.347,124.63a6.748,6.748,0,0,1-3.456-.864,5.976,5.976,0,0,1-2.309-2.417,7.591,7.591,0,0,1-.823-3.6,7.815,7.815,0,0,1,.823-3.658,6.024,6.024,0,0,1,2.309-2.457,6.666,6.666,0,0,1,3.456-.878,6.848,6.848,0,0,1,3.646.959,5.512,5.512,0,0,1,2.267,2.659l-1.863.649a3.325,3.325,0,0,0-1.471-1.715,4.744,4.744,0,0,0-2.471-.635,4.487,4.487,0,0,0-2.389.621,4.137,4.137,0,0,0-1.567,1.755,6.039,6.039,0,0,0-.552,2.674,5.253,5.253,0,0,0,1.214,3.631,4.126,4.126,0,0,0,3.24,1.364,4.84,4.84,0,0,0,2.457-.621,3.864,3.864,0,0,0,1.593-1.675l1.836.649a5.61,5.61,0,0,1-2.294,2.619,6.923,6.923,0,0,1-3.646.945" fill="#fff"/>
      <path id="Path_5502" data-name="Path 5502" d="M153.44,124.63a6.947,6.947,0,0,1-3.429-.838,6,6,0,0,1-2.376-2.389,8.324,8.324,0,0,1,.013-7.412,6.045,6.045,0,0,1,2.4-2.4,7.488,7.488,0,0,1,6.884,0,6.076,6.076,0,0,1,2.4,2.389,8.211,8.211,0,0,1-.014,7.412,6.115,6.115,0,0,1-2.43,2.4,7.1,7.1,0,0,1-3.456.838m-.027-1.917a4.944,4.944,0,0,0,2.241-.527,4.117,4.117,0,0,0,1.714-1.647,5.535,5.535,0,0,0,.662-2.848,5.621,5.621,0,0,0-.648-2.863,4.084,4.084,0,0,0-1.688-1.633,4.859,4.859,0,0,0-2.227-.527,4.777,4.777,0,0,0-2.214.527,4,4,0,0,0-1.66,1.647,5.719,5.719,0,0,0-.635,2.849,5.816,5.816,0,0,0,.621,2.862,3.959,3.959,0,0,0,1.634,1.633,4.7,4.7,0,0,0,2.2.527" fill="#fff"/>
      <rect id="Rectangle_195" data-name="Rectangle 195" width="2.024" height="19.44" transform="translate(163.538 105)" fill="#fff"/>
      <path id="Path_5503" data-name="Path 5503" d="M178.144,124.44l-.161-2.43a4.335,4.335,0,0,1-1.675,1.931,5.234,5.234,0,0,1-2.807.689,6.085,6.085,0,0,1-2.485-.459,3.448,3.448,0,0,1-2.133-3.322,3.526,3.526,0,0,1,1.27-2.795,6.531,6.531,0,0,1,3.672-1.336l4.158-.459v-1.08a2.244,2.244,0,0,0-.838-1.823,3.46,3.46,0,0,0-2.267-.688,3.988,3.988,0,0,0-2.335.648,3.3,3.3,0,0,0-1.284,1.863l-1.836-.648a5.057,5.057,0,0,1,1.985-2.781,6.051,6.051,0,0,1,3.523-1,5.325,5.325,0,0,1,3.74,1.228,4.309,4.309,0,0,1,1.336,3.335v9.126Zm-.161-6.453-4.186.486a3.9,3.9,0,0,0-2.051.743,2.008,2.008,0,0,0-.014,3.038,3.048,3.048,0,0,0,1.984.566,4.494,4.494,0,0,0,2.431-.594,3.544,3.544,0,0,0,1.39-1.606,5.386,5.386,0,0,0,.446-2.2Z" fill="#fff"/>
      <path id="Path_5504" data-name="Path 5504" d="M185.759,113.667a5.12,5.12,0,0,1,1.863-2.079,5.722,5.722,0,0,1,3.213-.837,6.044,6.044,0,0,1,3.253.864,5.806,5.806,0,0,1,2.16,2.417,9.032,9.032,0,0,1-.014,7.33,5.792,5.792,0,0,1-2.173,2.417,6.066,6.066,0,0,1-3.226.85,5.516,5.516,0,0,1-3.051-.783,5.315,5.315,0,0,1-1.836-1.917l-.136,2.511H183.95V105h2.025v8.694Zm9.072,4.023a5.379,5.379,0,0,0-1.2-3.686,4.086,4.086,0,0,0-3.226-1.363,4.341,4.341,0,0,0-2.282.608,4.146,4.146,0,0,0-1.579,1.727,5.957,5.957,0,0,0-.567,2.714,6.041,6.041,0,0,0,.567,2.727,4.032,4.032,0,0,0,1.579,1.728,4.416,4.416,0,0,0,2.282.594,4.083,4.083,0,0,0,3.226-1.363,5.379,5.379,0,0,0,1.2-3.686" fill="#fff"/>
      <path id="Path_5505" data-name="Path 5505" d="M206.143,124.63a6.944,6.944,0,0,1-3.428-.838,5.989,5.989,0,0,1-2.376-2.389,8.316,8.316,0,0,1,.013-7.412,6.043,6.043,0,0,1,2.4-2.4,7.49,7.49,0,0,1,6.885,0,6.074,6.074,0,0,1,2.4,2.389,8.2,8.2,0,0,1-.014,7.412,6.108,6.108,0,0,1-2.43,2.4,7.1,7.1,0,0,1-3.456.838m-.027-1.917a4.944,4.944,0,0,0,2.241-.527,4.125,4.125,0,0,0,1.715-1.647,5.545,5.545,0,0,0,.661-2.848,5.631,5.631,0,0,0-.647-2.863,4.1,4.1,0,0,0-1.688-1.633,4.859,4.859,0,0,0-2.227-.527,4.774,4.774,0,0,0-2.214.527,4,4,0,0,0-1.661,1.647,5.73,5.73,0,0,0-.634,2.849,5.817,5.817,0,0,0,.62,2.862,3.965,3.965,0,0,0,1.634,1.633,4.7,4.7,0,0,0,2.2.527" fill="#fff"/>
      <path id="Path_5506" data-name="Path 5506" d="M216.241,110.94H218.1l.108,1.971a5.23,5.23,0,0,1,1.309-1.242,4.929,4.929,0,0,1,1.7-.715,5.066,5.066,0,0,1,1.985-.014v2.025a4.846,4.846,0,0,0-2.038,0,3.436,3.436,0,0,0-1.553.81,3.9,3.9,0,0,0-1,1.5,5.757,5.757,0,0,0-.351,2.092v7.074h-2.025Z" fill="#fff"/>
      <path id="Path_5507" data-name="Path 5507" d="M234.412,124.44l-.162-2.43a4.34,4.34,0,0,1-1.674,1.931,5.234,5.234,0,0,1-2.807.689,6.079,6.079,0,0,1-2.485-.459,3.444,3.444,0,0,1-2.133-3.322,3.528,3.528,0,0,1,1.269-2.795,6.534,6.534,0,0,1,3.672-1.336l4.158-.459v-1.08a2.246,2.246,0,0,0-.837-1.823,3.464,3.464,0,0,0-2.267-.688,3.993,3.993,0,0,0-2.336.648,3.292,3.292,0,0,0-1.283,1.863l-1.836-.648a5.052,5.052,0,0,1,1.985-2.781,6.049,6.049,0,0,1,3.523-1,5.323,5.323,0,0,1,3.739,1.228,4.309,4.309,0,0,1,1.337,3.335v9.126Zm-.162-6.453-4.185.486a3.908,3.908,0,0,0-2.052.743,1.881,1.881,0,0,0-.7,1.525,1.861,1.861,0,0,0,.688,1.513,3.048,3.048,0,0,0,1.984.566,4.491,4.491,0,0,0,2.43-.594,3.54,3.54,0,0,0,1.391-1.606,5.4,5.4,0,0,0,.445-2.2Z" fill="#fff"/>
      <path id="Path_5508" data-name="Path 5508" d="M241.081,110.94v-3.78H243.1v3.78H246.7v1.89H243.1v7.263a2.6,2.6,0,0,0,.528,1.809,2.161,2.161,0,0,0,1.349.675,6.833,6.833,0,0,0,1.715,0v1.755a6.2,6.2,0,0,1-2.065.135,4.192,4.192,0,0,1-1.81-.607,3.532,3.532,0,0,1-1.268-1.418,5.1,5.1,0,0,1-.473-2.349V112.83h-2.025v-1.89Z" fill="#fff"/>
      <path id="Path_5509" data-name="Path 5509" d="M251.151,108.24a1.388,1.388,0,0,1-1.025-.4,1.353,1.353,0,0,1-.405-1,1.385,1.385,0,0,1,1.43-1.432,1.405,1.405,0,0,1,1.4,1.432,1.338,1.338,0,0,1-.418,1,1.374,1.374,0,0,1-.987.4m-1.025,2.7h2v13.5h-2Z" fill="#fff"/>
      <path id="Path_5510" data-name="Path 5510" d="M257.47,110.94l4.266,11.232,4.293-11.232h2.133l-5.4,13.5h-2.106l-5.346-13.5Z" fill="#fff"/>
      <path id="Path_5511" data-name="Path 5511" d="M279.1,124.44l-.162-2.43a4.339,4.339,0,0,1-1.674,1.931,5.233,5.233,0,0,1-2.807.689,6.079,6.079,0,0,1-2.485-.459,3.444,3.444,0,0,1-2.133-3.322,3.528,3.528,0,0,1,1.269-2.795,6.534,6.534,0,0,1,3.672-1.336l4.158-.459v-1.08a2.246,2.246,0,0,0-.837-1.823,3.464,3.464,0,0,0-2.267-.688,3.993,3.993,0,0,0-2.336.648,3.292,3.292,0,0,0-1.283,1.863l-1.836-.648a5.052,5.052,0,0,1,1.985-2.781,6.049,6.049,0,0,1,3.523-1,5.323,5.323,0,0,1,3.739,1.228,4.309,4.309,0,0,1,1.337,3.335v9.126Zm-.162-6.453-4.185.486a3.909,3.909,0,0,0-2.052.743,1.881,1.881,0,0,0-.7,1.525,1.861,1.861,0,0,0,.688,1.513,3.048,3.048,0,0,0,1.984.566,4.491,4.491,0,0,0,2.43-.594,3.54,3.54,0,0,0,1.391-1.606,5.4,5.4,0,0,0,.445-2.2Z" fill="#fff"/>
      <path id="Path_5512" data-name="Path 5512" d="M285.847,121.174h2.376l-2.916,7.182h-1.458Z" fill="#fff"/>
      <path id="Path_5513" data-name="Path 5513" d="M4.1,155.309a2.98,2.98,0,0,0,.594,1.336,2.685,2.685,0,0,0,1.12.8,4.386,4.386,0,0,0,1.606.27,3.6,3.6,0,0,0,2.174-.553,1.674,1.674,0,0,0,.742-1.391,1.508,1.508,0,0,0-.445-1.134,3.484,3.484,0,0,0-1.174-.716,12.961,12.961,0,0,0-1.62-.5q-.7-.16-1.513-.39a7.274,7.274,0,0,1-1.539-.635,3.543,3.543,0,0,1-1.187-1.053,2.874,2.874,0,0,1-.459-1.7,3.385,3.385,0,0,1,.635-2.039,4.13,4.13,0,0,1,1.754-1.363,6.43,6.43,0,0,1,2.579-.487,6.028,6.028,0,0,1,2.983.73,3.891,3.891,0,0,1,1.822,2.267l-1.889.649a1.933,1.933,0,0,0-.689-1.08,2.835,2.835,0,0,0-1.106-.513,5.546,5.546,0,0,0-1.2-.136,3.606,3.606,0,0,0-1.957.473,1.569,1.569,0,0,0-.744,1.418,1.416,1.416,0,0,0,.244.851,1.811,1.811,0,0,0,.674.553,5.015,5.015,0,0,0,1.027.365c.395.1.828.211,1.3.336q.783.19,1.592.473a7.418,7.418,0,0,1,1.513.73A3.728,3.728,0,0,1,12.083,154a3.1,3.1,0,0,1,.445,1.715,3.371,3.371,0,0,1-.649,2.066,4.2,4.2,0,0,1-1.8,1.363,6.777,6.777,0,0,1-2.66.486,5.97,5.97,0,0,1-3.442-.931,4.517,4.517,0,0,1-1.822-2.742Z" fill="#fff"/>
      <path id="Path_5514" data-name="Path 5514" d="M21.654,159.63a6.947,6.947,0,0,1-3.429-.838,6,6,0,0,1-2.376-2.389,8.324,8.324,0,0,1,.013-7.412,6.045,6.045,0,0,1,2.4-2.4,7.022,7.022,0,0,1,3.442-.838,7.027,7.027,0,0,1,3.442.838,6.076,6.076,0,0,1,2.4,2.389,8.21,8.21,0,0,1-.014,7.412,6.115,6.115,0,0,1-2.43,2.4,7.1,7.1,0,0,1-3.456.838m-.027-1.917a4.944,4.944,0,0,0,2.241-.527,4.117,4.117,0,0,0,1.714-1.647,5.535,5.535,0,0,0,.662-2.848,5.621,5.621,0,0,0-.648-2.863,4.084,4.084,0,0,0-1.688-1.633,4.859,4.859,0,0,0-2.227-.527,4.777,4.777,0,0,0-2.214.527,4,4,0,0,0-1.66,1.647,5.719,5.719,0,0,0-.635,2.849,5.816,5.816,0,0,0,.621,2.862,3.959,3.959,0,0,0,1.634,1.633,4.7,4.7,0,0,0,2.2.527" fill="#fff"/>
      <path id="Path_5515" data-name="Path 5515" d="M32.859,155.309a2.98,2.98,0,0,0,.594,1.336,2.685,2.685,0,0,0,1.12.8,4.386,4.386,0,0,0,1.606.27,3.6,3.6,0,0,0,2.174-.553,1.674,1.674,0,0,0,.742-1.391,1.508,1.508,0,0,0-.445-1.134,3.484,3.484,0,0,0-1.174-.716,12.961,12.961,0,0,0-1.62-.5q-.7-.16-1.513-.39a7.274,7.274,0,0,1-1.539-.635,3.543,3.543,0,0,1-1.187-1.053,2.874,2.874,0,0,1-.459-1.7,3.385,3.385,0,0,1,.635-2.039,4.13,4.13,0,0,1,1.754-1.363,6.43,6.43,0,0,1,2.579-.487,6.028,6.028,0,0,1,2.983.73,3.891,3.891,0,0,1,1.822,2.267l-1.889.649a1.933,1.933,0,0,0-.689-1.08,2.835,2.835,0,0,0-1.106-.513,5.547,5.547,0,0,0-1.2-.136,3.606,3.606,0,0,0-1.957.473,1.569,1.569,0,0,0-.744,1.418,1.416,1.416,0,0,0,.244.851,1.811,1.811,0,0,0,.674.553,5.015,5.015,0,0,0,1.027.365c.395.1.828.211,1.3.336q.783.19,1.592.473a7.418,7.418,0,0,1,1.513.73A3.728,3.728,0,0,1,40.838,154a3.1,3.1,0,0,1,.445,1.715,3.377,3.377,0,0,1-.649,2.066,4.2,4.2,0,0,1-1.795,1.363,6.777,6.777,0,0,1-2.66.486,5.97,5.97,0,0,1-3.442-.931,4.517,4.517,0,0,1-1.822-2.742Z" fill="#fff"/>
      <path id="Path_5516" data-name="Path 5516" d="M45.44,145.94v-3.78h2.025v3.78h3.591v1.89H47.465v7.263a2.6,2.6,0,0,0,.527,1.809,2.163,2.163,0,0,0,1.35.675,6.824,6.824,0,0,0,1.714,0v1.755a6.2,6.2,0,0,1-2.065.135,4.187,4.187,0,0,1-1.809-.607,3.534,3.534,0,0,1-1.269-1.418,5.117,5.117,0,0,1-.473-2.349V147.83H43.416v-1.89Z" fill="#fff"/>
      <path id="Path_5517" data-name="Path 5517" d="M59.75,159.63a6.22,6.22,0,0,1-3.362-.918A6.4,6.4,0,0,1,54.08,156.2a7.713,7.713,0,0,1-.837-3.644,7.227,7.227,0,0,1,.837-3.51,6.238,6.238,0,0,1,2.295-2.417,6.314,6.314,0,0,1,3.321-.878,6.592,6.592,0,0,1,3.28.811,5.8,5.8,0,0,1,2.255,2.241,6.137,6.137,0,0,1,.756,3.267c0,.2-.01.4-.027.621s-.037.45-.054.7H55.457a4.78,4.78,0,0,0,.621,2.241,4.2,4.2,0,0,0,1.5,1.525,4.056,4.056,0,0,0,2.119.554,5.488,5.488,0,0,0,2.659-.6,3.479,3.479,0,0,0,1.58-1.7l1.755.7a5.851,5.851,0,0,1-2.35,2.606,6.95,6.95,0,0,1-3.59.9m4.023-7.992a3.684,3.684,0,0,0-1.972-3.456,4.509,4.509,0,0,0-2.186-.514,3.88,3.88,0,0,0-1.971.514,4.25,4.25,0,0,0-1.472,1.417,4.5,4.5,0,0,0-.688,2.039Z" fill="#fff"/>
      <path id="Path_5518" data-name="Path 5518" d="M69.309,145.94h1.862l.109,1.917a4.474,4.474,0,0,1,1.7-1.553,5.216,5.216,0,0,1,2.457-.553,5.352,5.352,0,0,1,2.7.662,4.482,4.482,0,0,1,1.809,1.97,7.387,7.387,0,0,1,.648,3.281v7.776H78.57v-7.533a4.909,4.909,0,0,0-.9-3.2,3.185,3.185,0,0,0-2.605-1.094,3.4,3.4,0,0,0-2.741,1.161,5.178,5.178,0,0,0-.986,3.429v7.236H69.309Z" fill="#fff"/>
      <path id="Path_5519" data-name="Path 5519" d="M85.939,143.24a1.388,1.388,0,0,1-1.025-.4,1.357,1.357,0,0,1-.4-1,1.385,1.385,0,0,1,1.43-1.432,1.405,1.405,0,0,1,1.4,1.432,1.338,1.338,0,0,1-.418,1,1.374,1.374,0,0,1-.987.4m-1.025,2.7h2v13.5h-2Z" fill="#fff"/>
      <path id="Path_5520" data-name="Path 5520" d="M93.284,148.667a5.124,5.124,0,0,1,1.862-2.079,5.722,5.722,0,0,1,3.213-.837,6.05,6.05,0,0,1,3.254.864,5.82,5.82,0,0,1,2.16,2.417,9.032,9.032,0,0,1-.014,7.33,5.8,5.8,0,0,1-2.174,2.417,6.061,6.061,0,0,1-3.226.85,5.521,5.521,0,0,1-3.051-.783,5.332,5.332,0,0,1-1.836-1.917l-.135,2.511H91.474V140H93.5v8.694Zm9.071,4.023a5.379,5.379,0,0,0-1.2-3.686,4.089,4.089,0,0,0-3.227-1.363,4.337,4.337,0,0,0-2.281.608,4.148,4.148,0,0,0-1.58,1.727,5.958,5.958,0,0,0-.566,2.714,6.041,6.041,0,0,0,.566,2.727,4.034,4.034,0,0,0,1.58,1.728,4.412,4.412,0,0,0,2.281.594,4.085,4.085,0,0,0,3.227-1.363,5.379,5.379,0,0,0,1.2-3.686" fill="#fff"/>
      <rect id="Rectangle_196" data-name="Rectangle 196" width="2.024" height="19.44" transform="translate(107.837 140)" fill="#fff"/>
      <path id="Path_5521" data-name="Path 5521" d="M119.662,159.63a6.22,6.22,0,0,1-3.362-.918,6.389,6.389,0,0,1-2.307-2.512,7.7,7.7,0,0,1-.838-3.644,7.217,7.217,0,0,1,.838-3.51,6.228,6.228,0,0,1,2.294-2.417,6.316,6.316,0,0,1,3.321-.878,6.592,6.592,0,0,1,3.28.811,5.8,5.8,0,0,1,2.255,2.241,6.128,6.128,0,0,1,.756,3.267c0,.2-.01.4-.027.621s-.037.45-.054.7H115.369a4.78,4.78,0,0,0,.621,2.241,4.2,4.2,0,0,0,1.5,1.525,4.056,4.056,0,0,0,2.119.554,5.488,5.488,0,0,0,2.659-.6,3.479,3.479,0,0,0,1.58-1.7l1.756.7a5.853,5.853,0,0,1-2.351,2.606,6.948,6.948,0,0,1-3.59.9m4.024-7.992a3.684,3.684,0,0,0-1.972-3.456,4.515,4.515,0,0,0-2.187-.514,3.88,3.88,0,0,0-1.971.514,4.25,4.25,0,0,0-1.472,1.417,4.5,4.5,0,0,0-.688,2.039Z" fill="#fff"/>
      <path id="Path_5522" data-name="Path 5522" d="M145.934,145.94h2.1l-7.721,18.9h-1.945l2.295-5.589-5.453-13.311h2.214l4.319,10.908Z" fill="#fff"/>
      <path id="Path_5523" data-name="Path 5523" d="M159.3,155.309a2.98,2.98,0,0,0,.594,1.336,2.685,2.685,0,0,0,1.12.8,4.386,4.386,0,0,0,1.606.27,3.6,3.6,0,0,0,2.174-.553,1.674,1.674,0,0,0,.742-1.391,1.508,1.508,0,0,0-.445-1.134,3.483,3.483,0,0,0-1.174-.716,12.96,12.96,0,0,0-1.62-.5q-.7-.16-1.513-.39a7.274,7.274,0,0,1-1.539-.635,3.543,3.543,0,0,1-1.187-1.053,2.874,2.874,0,0,1-.459-1.7,3.385,3.385,0,0,1,.635-2.039,4.13,4.13,0,0,1,1.754-1.363,6.43,6.43,0,0,1,2.579-.487,6.028,6.028,0,0,1,2.983.73,3.891,3.891,0,0,1,1.822,2.267l-1.889.649a1.933,1.933,0,0,0-.689-1.08,2.835,2.835,0,0,0-1.106-.513,5.547,5.547,0,0,0-1.2-.136,3.606,3.606,0,0,0-1.957.473,1.569,1.569,0,0,0-.744,1.418,1.416,1.416,0,0,0,.244.851,1.811,1.811,0,0,0,.674.553,5.015,5.015,0,0,0,1.027.365c.4.1.828.211,1.3.336q.783.19,1.592.473a7.417,7.417,0,0,1,1.513.73A3.728,3.728,0,0,1,167.277,154a3.1,3.1,0,0,1,.445,1.715,3.377,3.377,0,0,1-.649,2.066,4.2,4.2,0,0,1-1.795,1.363,6.777,6.777,0,0,1-2.66.486,5.97,5.97,0,0,1-3.442-.931,4.517,4.517,0,0,1-1.822-2.742Z" fill="#fff"/>
      <path id="Path_5524" data-name="Path 5524" d="M182.059,159.44h-1.836l-.135-1.944a4.212,4.212,0,0,1-1.674,1.58,5.219,5.219,0,0,1-2.457.553,5.506,5.506,0,0,1-2.727-.648,4.337,4.337,0,0,1-1.795-1.944,7.4,7.4,0,0,1-.635-3.267v-7.83h2v7.614a4.747,4.747,0,0,0,.9,3.146,3.224,3.224,0,0,0,2.6,1.066,3.506,3.506,0,0,0,2.74-1.121,4.911,4.911,0,0,0,1.013-3.388V145.94h2Z" fill="#fff"/>
      <path id="Path_5525" data-name="Path 5525" d="M187.3,155.309a2.98,2.98,0,0,0,.594,1.336,2.685,2.685,0,0,0,1.12.8,4.386,4.386,0,0,0,1.606.27,3.6,3.6,0,0,0,2.174-.553,1.674,1.674,0,0,0,.742-1.391,1.508,1.508,0,0,0-.445-1.134,3.484,3.484,0,0,0-1.174-.716,12.962,12.962,0,0,0-1.62-.5q-.7-.16-1.513-.39a7.274,7.274,0,0,1-1.539-.635,3.543,3.543,0,0,1-1.187-1.053,2.874,2.874,0,0,1-.459-1.7,3.385,3.385,0,0,1,.635-2.039,4.13,4.13,0,0,1,1.754-1.363,6.43,6.43,0,0,1,2.579-.487,6.028,6.028,0,0,1,2.983.73,3.891,3.891,0,0,1,1.822,2.267l-1.889.649a1.933,1.933,0,0,0-.689-1.08,2.835,2.835,0,0,0-1.106-.513,5.546,5.546,0,0,0-1.2-.136,3.606,3.606,0,0,0-1.957.473,1.569,1.569,0,0,0-.744,1.418,1.416,1.416,0,0,0,.244.851,1.811,1.811,0,0,0,.674.553,5.016,5.016,0,0,0,1.027.365c.395.1.828.211,1.3.336q.783.19,1.592.473a7.418,7.418,0,0,1,1.513.73A3.728,3.728,0,0,1,195.276,154a3.1,3.1,0,0,1,.445,1.715,3.377,3.377,0,0,1-.649,2.066,4.2,4.2,0,0,1-1.8,1.363,6.777,6.777,0,0,1-2.66.486,5.97,5.97,0,0,1-3.442-.931,4.517,4.517,0,0,1-1.822-2.742Z" fill="#fff"/>
      <path id="Path_5526" data-name="Path 5526" d="M199.878,145.94v-3.78H201.9v3.78h3.591v1.89H201.9v7.263a2.6,2.6,0,0,0,.527,1.809,2.163,2.163,0,0,0,1.35.675,6.824,6.824,0,0,0,1.714,0v1.755a6.2,6.2,0,0,1-2.065.135,4.187,4.187,0,0,1-1.809-.607,3.534,3.534,0,0,1-1.269-1.418,5.117,5.117,0,0,1-.473-2.349V147.83h-2.024v-1.89Z" fill="#fff"/>
      <path id="Path_5527" data-name="Path 5527" d="M214.188,159.63a6.22,6.22,0,0,1-3.362-.918,6.4,6.4,0,0,1-2.308-2.512,7.713,7.713,0,0,1-.837-3.644,7.228,7.228,0,0,1,.837-3.51,6.238,6.238,0,0,1,2.295-2.417,6.314,6.314,0,0,1,3.321-.878,6.592,6.592,0,0,1,3.28.811,5.8,5.8,0,0,1,2.255,2.241,6.137,6.137,0,0,1,.756,3.267c0,.2-.01.4-.027.621s-.037.45-.054.7H209.9a4.78,4.78,0,0,0,.621,2.241,4.2,4.2,0,0,0,1.5,1.525,4.056,4.056,0,0,0,2.119.554,5.488,5.488,0,0,0,2.659-.6,3.479,3.479,0,0,0,1.58-1.7l1.755.7a5.851,5.851,0,0,1-2.35,2.606,6.95,6.95,0,0,1-3.59.9m4.023-7.992a3.684,3.684,0,0,0-1.972-3.456,4.509,4.509,0,0,0-2.186-.514,3.88,3.88,0,0,0-1.971.514,4.249,4.249,0,0,0-1.472,1.417,4.5,4.5,0,0,0-.688,2.039Z" fill="#fff"/>
      <path id="Path_5528" data-name="Path 5528" d="M223.746,145.94h1.862l.109,1.917a4.474,4.474,0,0,1,1.7-1.553,5.216,5.216,0,0,1,2.457-.553,5.352,5.352,0,0,1,2.7.662,4.482,4.482,0,0,1,1.809,1.97,7.387,7.387,0,0,1,.648,3.281v7.776h-2.025v-7.533a4.909,4.909,0,0,0-.9-3.2,3.185,3.185,0,0,0-2.605-1.094,3.4,3.4,0,0,0-2.741,1.161,5.178,5.178,0,0,0-.986,3.429v7.236h-2.024Z" fill="#fff"/>
      <path id="Path_5529" data-name="Path 5529" d="M239.811,145.94v-3.78h2.023v3.78h3.592v1.89h-3.592v7.263a2.6,2.6,0,0,0,.528,1.809,2.161,2.161,0,0,0,1.349.675,6.832,6.832,0,0,0,1.715,0v1.755a6.2,6.2,0,0,1-2.065.135,4.2,4.2,0,0,1-1.81-.607,3.532,3.532,0,0,1-1.268-1.418,5.1,5.1,0,0,1-.472-2.349V147.83h-2.026v-1.89Z" fill="#fff"/>
      <path id="Path_5530" data-name="Path 5530" d="M256.9,159.44l-.162-2.43a4.34,4.34,0,0,1-1.674,1.931,5.234,5.234,0,0,1-2.807.689,6.079,6.079,0,0,1-2.485-.459,3.444,3.444,0,0,1-2.133-3.322,3.528,3.528,0,0,1,1.269-2.795,6.534,6.534,0,0,1,3.672-1.336l4.158-.459v-1.08a2.246,2.246,0,0,0-.837-1.823,3.464,3.464,0,0,0-2.267-.688,3.993,3.993,0,0,0-2.336.648,3.292,3.292,0,0,0-1.283,1.863l-1.836-.648a5.052,5.052,0,0,1,1.985-2.781,6.049,6.049,0,0,1,3.523-1,5.323,5.323,0,0,1,3.739,1.228,4.309,4.309,0,0,1,1.337,3.335v9.126Zm-.162-6.453-4.185.486a3.908,3.908,0,0,0-2.052.743,1.881,1.881,0,0,0-.7,1.525,1.861,1.861,0,0,0,.688,1.513,3.048,3.048,0,0,0,1.984.566,4.491,4.491,0,0,0,2.43-.594,3.541,3.541,0,0,0,1.391-1.606,5.4,5.4,0,0,0,.445-2.2Z" fill="#fff"/>
      <path id="Path_5531" data-name="Path 5531" d="M264.516,148.667a5.125,5.125,0,0,1,1.862-2.079,5.722,5.722,0,0,1,3.213-.837,6.05,6.05,0,0,1,3.254.864,5.82,5.82,0,0,1,2.16,2.417,9.032,9.032,0,0,1-.014,7.33,5.8,5.8,0,0,1-2.174,2.417,6.061,6.061,0,0,1-3.226.85,5.521,5.521,0,0,1-3.051-.783,5.332,5.332,0,0,1-1.836-1.917l-.135,2.511h-1.863V140h2.026v8.694Zm9.071,4.023a5.379,5.379,0,0,0-1.2-3.686,4.089,4.089,0,0,0-3.227-1.363,4.337,4.337,0,0,0-2.281.608,4.148,4.148,0,0,0-1.58,1.727,5.958,5.958,0,0,0-.566,2.714,6.041,6.041,0,0,0,.566,2.727,4.034,4.034,0,0,0,1.58,1.728,4.413,4.413,0,0,0,2.281.594,4.085,4.085,0,0,0,3.227-1.363,5.379,5.379,0,0,0,1.2-3.686" fill="#fff"/>
      <rect id="Rectangle_197" data-name="Rectangle 197" width="2.024" height="19.44" transform="translate(279.068 140)" fill="#fff"/>
      <path id="Path_5532" data-name="Path 5532" d="M290.894,159.63a6.22,6.22,0,0,1-3.362-.918,6.4,6.4,0,0,1-2.308-2.512,7.713,7.713,0,0,1-.837-3.644,7.227,7.227,0,0,1,.837-3.51,6.238,6.238,0,0,1,2.3-2.417,6.314,6.314,0,0,1,3.321-.878,6.592,6.592,0,0,1,3.28.811,5.8,5.8,0,0,1,2.255,2.241,6.137,6.137,0,0,1,.756,3.267c0,.2-.01.4-.027.621s-.037.45-.054.7H286.6a4.78,4.78,0,0,0,.621,2.241,4.2,4.2,0,0,0,1.5,1.525,4.056,4.056,0,0,0,2.119.554,5.488,5.488,0,0,0,2.659-.6,3.479,3.479,0,0,0,1.58-1.7l1.755.7a5.851,5.851,0,0,1-2.35,2.606,6.95,6.95,0,0,1-3.59.9m4.023-7.992a3.684,3.684,0,0,0-1.972-3.456,4.509,4.509,0,0,0-2.186-.514,3.88,3.88,0,0,0-1.971.514,4.249,4.249,0,0,0-1.472,1.417,4.5,4.5,0,0,0-.688,2.039Z" fill="#fff"/>
      <path id="Path_5533" data-name="Path 5533" d="M3.294,180.94H5.319v13.176a6.26,6.26,0,0,1-.688,3.025A5.023,5.023,0,0,1,2.8,199.1a5.2,5.2,0,0,1-2.5.743L0,197.978a3.439,3.439,0,0,0,2.43-1.148,4.083,4.083,0,0,0,.864-2.74Zm2.025-3.1a1.357,1.357,0,0,0,.405-1,1.389,1.389,0,0,0-.405-1.026,1.358,1.358,0,0,0-1-.406,1.4,1.4,0,0,0-1.013.406,1.365,1.365,0,0,0-.418,1.026,1.334,1.334,0,0,0,.418,1,1.4,1.4,0,0,0,1.013.4,1.357,1.357,0,0,0,1-.4" fill="#fff"/>
      <path id="Path_5534" data-name="Path 5534" d="M20.817,194.44H18.981l-.136-1.944a4.212,4.212,0,0,1-1.674,1.58,5.219,5.219,0,0,1-2.457.553,5.5,5.5,0,0,1-2.726-.648,4.334,4.334,0,0,1-1.8-1.944,7.412,7.412,0,0,1-.635-3.267v-7.83h2v7.614a4.747,4.747,0,0,0,.906,3.146,3.222,3.222,0,0,0,2.6,1.066,3.507,3.507,0,0,0,2.74-1.121,4.916,4.916,0,0,0,1.013-3.388V180.94h2Z" fill="#fff"/>
      <path id="Path_5535" data-name="Path 5535" d="M24.948,180.94H26.81l.109,1.917a4.474,4.474,0,0,1,1.7-1.553,5.216,5.216,0,0,1,2.457-.553,5.352,5.352,0,0,1,2.7.662,4.482,4.482,0,0,1,1.809,1.97,7.387,7.387,0,0,1,.648,3.281v7.776H34.209v-7.533a4.909,4.909,0,0,0-.9-3.2,3.185,3.185,0,0,0-2.605-1.094,3.4,3.4,0,0,0-2.741,1.161,5.178,5.178,0,0,0-.986,3.429v7.236H24.948Z" fill="#fff"/>
      <path id="Path_5536" data-name="Path 5536" d="M41.013,180.94v-3.78h2.024v3.78h3.592v1.89H43.037v7.263a2.6,2.6,0,0,0,.528,1.809,2.161,2.161,0,0,0,1.349.675,6.832,6.832,0,0,0,1.715,0v1.755a6.2,6.2,0,0,1-2.065.135,4.192,4.192,0,0,1-1.81-.607,3.532,3.532,0,0,1-1.268-1.418,5.1,5.1,0,0,1-.473-2.349V182.83H38.988v-1.89Z" fill="#fff"/>
      <path id="Path_5537" data-name="Path 5537" d="M55.484,194.63a6.944,6.944,0,0,1-3.428-.838A5.99,5.99,0,0,1,49.68,191.4a8.316,8.316,0,0,1,.013-7.412,6.043,6.043,0,0,1,2.4-2.4,7.49,7.49,0,0,1,6.885,0,6.074,6.074,0,0,1,2.4,2.389,8.2,8.2,0,0,1-.014,7.412,6.108,6.108,0,0,1-2.43,2.4,7.1,7.1,0,0,1-3.456.838m-.027-1.917a4.944,4.944,0,0,0,2.241-.527,4.125,4.125,0,0,0,1.715-1.647,5.545,5.545,0,0,0,.661-2.848,5.631,5.631,0,0,0-.647-2.863,4.1,4.1,0,0,0-1.688-1.633,4.859,4.859,0,0,0-2.227-.527,4.774,4.774,0,0,0-2.214.527,4,4,0,0,0-1.661,1.647A5.73,5.73,0,0,0,51,187.691a5.817,5.817,0,0,0,.62,2.862,3.965,3.965,0,0,0,1.634,1.633,4.7,4.7,0,0,0,2.2.527" fill="#fff"/>
      <path id="Path_5538" data-name="Path 5538" d="M81.593,194.44l-.161-2.43a4.335,4.335,0,0,1-1.675,1.931,5.234,5.234,0,0,1-2.807.689,6.086,6.086,0,0,1-2.485-.459,3.448,3.448,0,0,1-2.133-3.322,3.526,3.526,0,0,1,1.27-2.795,6.531,6.531,0,0,1,3.672-1.336l4.158-.459v-1.08a2.244,2.244,0,0,0-.838-1.823,3.46,3.46,0,0,0-2.267-.688,3.988,3.988,0,0,0-2.335.648,3.3,3.3,0,0,0-1.284,1.863l-1.836-.648a5.057,5.057,0,0,1,1.985-2.781,6.051,6.051,0,0,1,3.523-1,5.325,5.325,0,0,1,3.74,1.228,4.309,4.309,0,0,1,1.336,3.335v9.126Zm-.161-6.453-4.186.486a3.9,3.9,0,0,0-2.051.743,2.008,2.008,0,0,0-.014,3.038,3.048,3.048,0,0,0,1.984.566,4.5,4.5,0,0,0,2.431-.594,3.544,3.544,0,0,0,1.39-1.606,5.386,5.386,0,0,0,.446-2.2Z" fill="#fff"/>
      <rect id="Rectangle_198" data-name="Rectangle 198" width="2.025" height="19.44" transform="translate(94.958 175)" fill="#fff"/>
      <path id="Path_5539" data-name="Path 5539" d="M109.564,194.44l-.161-2.43a4.335,4.335,0,0,1-1.675,1.931,5.234,5.234,0,0,1-2.807.689,6.086,6.086,0,0,1-2.485-.459,3.448,3.448,0,0,1-2.133-3.322,3.526,3.526,0,0,1,1.27-2.795,6.531,6.531,0,0,1,3.672-1.336l4.158-.459v-1.08a2.244,2.244,0,0,0-.838-1.823,3.46,3.46,0,0,0-2.267-.688,3.988,3.988,0,0,0-2.335.648,3.3,3.3,0,0,0-1.284,1.863l-1.836-.648a5.057,5.057,0,0,1,1.985-2.781,6.051,6.051,0,0,1,3.523-1,5.325,5.325,0,0,1,3.74,1.228,4.309,4.309,0,0,1,1.336,3.335v9.126Zm-.161-6.453-4.186.486a3.9,3.9,0,0,0-2.051.743,2.008,2.008,0,0,0-.014,3.038,3.048,3.048,0,0,0,1.984.566,4.5,4.5,0,0,0,2.431-.594,3.544,3.544,0,0,0,1.39-1.606,5.386,5.386,0,0,0,.446-2.2Z" fill="#fff"/>
      <path id="Path_5540" data-name="Path 5540" d="M116.478,190.309a2.98,2.98,0,0,0,.593,1.336,2.685,2.685,0,0,0,1.12.8,4.392,4.392,0,0,0,1.607.27,3.6,3.6,0,0,0,2.173-.553,1.675,1.675,0,0,0,.743-1.391,1.509,1.509,0,0,0-.446-1.134,3.483,3.483,0,0,0-1.174-.716,12.961,12.961,0,0,0-1.62-.5q-.7-.16-1.513-.39a7.266,7.266,0,0,1-1.538-.635,3.546,3.546,0,0,1-1.188-1.053,2.874,2.874,0,0,1-.459-1.7,3.385,3.385,0,0,1,.635-2.039,4.13,4.13,0,0,1,1.754-1.363,6.43,6.43,0,0,1,2.579-.487,6.034,6.034,0,0,1,2.984.73,3.893,3.893,0,0,1,1.821,2.267l-1.889.649a1.928,1.928,0,0,0-.689-1.08,2.829,2.829,0,0,0-1.106-.513,5.546,5.546,0,0,0-1.2-.136,3.611,3.611,0,0,0-1.957.473,1.569,1.569,0,0,0-.744,1.418,1.416,1.416,0,0,0,.244.851,1.807,1.807,0,0,0,.675.553,4.984,4.984,0,0,0,1.026.365c.4.1.828.211,1.3.336q.783.19,1.592.473a7.393,7.393,0,0,1,1.513.73A3.717,3.717,0,0,1,124.456,189a3.1,3.1,0,0,1,.445,1.715,3.371,3.371,0,0,1-.649,2.066,4.2,4.2,0,0,1-1.795,1.363,6.775,6.775,0,0,1-2.659.486,5.971,5.971,0,0,1-3.443-.931,4.511,4.511,0,0,1-1.821-2.742Z" fill="#fff"/>
      <path id="Path_5541" data-name="Path 5541" d="M136.483,179.347a5.838,5.838,0,0,1,.486-2.511,3.01,3.01,0,0,1,1.553-1.5A6.019,6.019,0,0,1,141.37,175v1.81a2.7,2.7,0,0,0-2.241.526,2.847,2.847,0,0,0-.621,2.012v1.593h2.97v1.889h-2.97V194.44h-2.025V182.829h-1.89V180.94h1.89Z" fill="#fff"/>
      <path id="Path_5542" data-name="Path 5542" d="M152.953,194.44l-.161-2.43a4.335,4.335,0,0,1-1.675,1.931,5.234,5.234,0,0,1-2.807.689,6.086,6.086,0,0,1-2.485-.459,3.448,3.448,0,0,1-2.133-3.322,3.526,3.526,0,0,1,1.27-2.795,6.531,6.531,0,0,1,3.672-1.336l4.158-.459v-1.08a2.244,2.244,0,0,0-.838-1.823,3.46,3.46,0,0,0-2.267-.688,3.988,3.988,0,0,0-2.335.648,3.3,3.3,0,0,0-1.284,1.863l-1.836-.648a5.057,5.057,0,0,1,1.985-2.781,6.051,6.051,0,0,1,3.523-1,5.325,5.325,0,0,1,3.74,1.228,4.308,4.308,0,0,1,1.336,3.335v9.126Zm-.161-6.453-4.186.486a3.9,3.9,0,0,0-2.051.743,2.008,2.008,0,0,0-.014,3.038,3.048,3.048,0,0,0,1.984.566,4.494,4.494,0,0,0,2.431-.594,3.544,3.544,0,0,0,1.39-1.606,5.386,5.386,0,0,0,.446-2.2Z" fill="#fff"/>
      <path id="Path_5543" data-name="Path 5543" d="M158.759,180.94h1.862l.136,1.944a4.421,4.421,0,0,1,1.606-1.552,4.781,4.781,0,0,1,2.417-.581,5.055,5.055,0,0,1,2.6.688,4.587,4.587,0,0,1,1.822,2.039,4.207,4.207,0,0,1,1.891-2.052,5.884,5.884,0,0,1,2.807-.675,5.292,5.292,0,0,1,2.673.662,4.484,4.484,0,0,1,1.81,1.97,7.373,7.373,0,0,1,.647,3.281v7.776h-2.024v-7.533a4.909,4.909,0,0,0-.9-3.2,3.154,3.154,0,0,0-2.578-1.094,3.361,3.361,0,0,0-2.7,1.175,5.23,5.23,0,0,0-1,3.469v7.182H167.8v-7.533a5.074,5.074,0,0,0-.864-3.2,3.039,3.039,0,0,0-2.538-1.094,3.242,3.242,0,0,0-2.66,1.175,5.386,5.386,0,0,0-.959,3.469v7.182h-2.024Z" fill="#fff"/>
      <path id="Path_5544" data-name="Path 5544" d="M184.381,178.24a1.39,1.39,0,0,1-1.026-.4,1.357,1.357,0,0,1-.4-1,1.385,1.385,0,0,1,1.431-1.432,1.405,1.405,0,0,1,1.4,1.432,1.334,1.334,0,0,1-.418,1,1.37,1.37,0,0,1-.986.4m-1.026,2.7h2v13.5h-2Z" fill="#fff"/>
      <rect id="Rectangle_199" data-name="Rectangle 199" width="2.025" height="19.44" transform="translate(189.916 175)" fill="#fff"/>
      <path id="Path_5545" data-name="Path 5545" d="M197.5,178.24a1.387,1.387,0,0,1-1.025-.4,1.354,1.354,0,0,1-.406-1A1.387,1.387,0,0,1,197.5,175.4a1.405,1.405,0,0,1,1.4,1.432,1.334,1.334,0,0,1-.418,1,1.37,1.37,0,0,1-.986.4m-1.025,2.7h2v13.5h-2Z" fill="#fff"/>
      <path id="Path_5546" data-name="Path 5546" d="M211.489,194.44l-.162-2.43a4.339,4.339,0,0,1-1.674,1.931,5.234,5.234,0,0,1-2.807.689,6.079,6.079,0,0,1-2.485-.459,3.444,3.444,0,0,1-2.133-3.322,3.528,3.528,0,0,1,1.269-2.795,6.534,6.534,0,0,1,3.672-1.336l4.158-.459v-1.08a2.246,2.246,0,0,0-.837-1.823,3.464,3.464,0,0,0-2.267-.688,3.993,3.993,0,0,0-2.336.648,3.292,3.292,0,0,0-1.283,1.863l-1.836-.648a5.052,5.052,0,0,1,1.985-2.781,6.049,6.049,0,0,1,3.523-1,5.323,5.323,0,0,1,3.739,1.228,4.309,4.309,0,0,1,1.337,3.335v9.126Zm-.162-6.453-4.185.486a3.908,3.908,0,0,0-2.052.743,1.881,1.881,0,0,0-.7,1.525,1.861,1.861,0,0,0,.688,1.513,3.048,3.048,0,0,0,1.984.566,4.491,4.491,0,0,0,2.43-.594,3.54,3.54,0,0,0,1.391-1.606,5.4,5.4,0,0,0,.445-2.2Z" fill="#fff"/>
      <path id="Path_5547" data-name="Path 5547" d="M218.4,190.309a2.98,2.98,0,0,0,.594,1.336,2.685,2.685,0,0,0,1.12.8,4.386,4.386,0,0,0,1.606.27,3.6,3.6,0,0,0,2.174-.553,1.674,1.674,0,0,0,.742-1.391,1.508,1.508,0,0,0-.445-1.134,3.484,3.484,0,0,0-1.174-.716,12.961,12.961,0,0,0-1.62-.5q-.7-.16-1.513-.39a7.274,7.274,0,0,1-1.539-.635,3.543,3.543,0,0,1-1.187-1.053,2.874,2.874,0,0,1-.459-1.7,3.385,3.385,0,0,1,.635-2.039,4.129,4.129,0,0,1,1.754-1.363,6.43,6.43,0,0,1,2.579-.487,6.028,6.028,0,0,1,2.983.73,3.891,3.891,0,0,1,1.822,2.267l-1.889.649a1.933,1.933,0,0,0-.689-1.08,2.835,2.835,0,0,0-1.106-.513,5.547,5.547,0,0,0-1.2-.136,3.606,3.606,0,0,0-1.957.473,1.569,1.569,0,0,0-.744,1.418,1.416,1.416,0,0,0,.244.851,1.811,1.811,0,0,0,.674.553,5.015,5.015,0,0,0,1.027.365c.4.1.828.211,1.3.336q.783.19,1.592.473a7.417,7.417,0,0,1,1.513.73A3.728,3.728,0,0,1,226.38,189a3.1,3.1,0,0,1,.445,1.715,3.377,3.377,0,0,1-.649,2.066,4.2,4.2,0,0,1-1.795,1.363,6.777,6.777,0,0,1-2.66.486,5.97,5.97,0,0,1-3.442-.931,4.517,4.517,0,0,1-1.822-2.742Z" fill="#fff"/>
      <path id="Path_5548" data-name="Path 5548" d="M8.748,229.63a6.748,6.748,0,0,1-3.456-.864,5.976,5.976,0,0,1-2.309-2.417,7.591,7.591,0,0,1-.823-3.6,7.815,7.815,0,0,1,.823-3.658,6.024,6.024,0,0,1,2.309-2.457,6.666,6.666,0,0,1,3.456-.878,6.848,6.848,0,0,1,3.646.959,5.512,5.512,0,0,1,2.267,2.659l-1.863.649a3.325,3.325,0,0,0-1.471-1.715,4.744,4.744,0,0,0-2.471-.635,4.487,4.487,0,0,0-2.389.621A4.136,4.136,0,0,0,4.9,220.044a6.039,6.039,0,0,0-.552,2.674,5.253,5.253,0,0,0,1.214,3.631,4.126,4.126,0,0,0,3.24,1.364,4.84,4.84,0,0,0,2.457-.621,3.864,3.864,0,0,0,1.593-1.675l1.836.649a5.61,5.61,0,0,1-2.294,2.619,6.923,6.923,0,0,1-3.646.945" fill="#fff"/>
      <path id="Path_5549" data-name="Path 5549" d="M26.46,229.44l-.161-2.43a4.335,4.335,0,0,1-1.675,1.931,5.234,5.234,0,0,1-2.807.689,6.086,6.086,0,0,1-2.485-.459,3.448,3.448,0,0,1-2.133-3.322,3.526,3.526,0,0,1,1.27-2.795,6.531,6.531,0,0,1,3.672-1.336l4.158-.459v-1.08a2.244,2.244,0,0,0-.838-1.823,3.46,3.46,0,0,0-2.267-.688,3.988,3.988,0,0,0-2.335.648,3.3,3.3,0,0,0-1.284,1.863l-1.836-.648a5.057,5.057,0,0,1,1.985-2.781,6.051,6.051,0,0,1,3.523-1,5.325,5.325,0,0,1,3.74,1.228,4.308,4.308,0,0,1,1.336,3.335v9.126Zm-.161-6.453-4.186.486a3.9,3.9,0,0,0-2.051.743,2.008,2.008,0,0,0-.014,3.038,3.048,3.048,0,0,0,1.984.566,4.494,4.494,0,0,0,2.431-.594,3.544,3.544,0,0,0,1.39-1.606,5.386,5.386,0,0,0,.446-2.2Z" fill="#fff"/>
      <path id="Path_5550" data-name="Path 5550" d="M42.282,215.913V229.44H40.257V217.8H31.1v-1.89Zm-9.288-1.566a5.83,5.83,0,0,1,.486-2.51,3,3,0,0,1,1.554-1.5A5.989,5.989,0,0,1,37.881,210v1.809a2.694,2.694,0,0,0-2.241.527,2.843,2.843,0,0,0-.62,2.011V229.44H32.994Zm8.317-1.026a1.421,1.421,0,0,1-1.026-.418,1.355,1.355,0,0,1-.432-1.013,1.469,1.469,0,0,1,2.5-1.066,1.444,1.444,0,0,1,.419,1.066,1.381,1.381,0,0,1-.419,1.013,1.409,1.409,0,0,1-1.038.418" fill="#fff"/>
      <path id="Path_5551" data-name="Path 5551" d="M52.678,229.63a6.745,6.745,0,0,1-3.456-.864,5.976,5.976,0,0,1-2.309-2.417,7.579,7.579,0,0,1-.823-3.6,7.8,7.8,0,0,1,.823-3.658,6.024,6.024,0,0,1,2.309-2.457,6.664,6.664,0,0,1,3.456-.878,6.842,6.842,0,0,1,3.645.959,5.514,5.514,0,0,1,2.268,2.659l-1.863.649a3.327,3.327,0,0,0-1.472-1.715,4.742,4.742,0,0,0-2.471-.635,4.489,4.489,0,0,0-2.389.621,4.134,4.134,0,0,0-1.566,1.755,6.039,6.039,0,0,0-.553,2.674,5.258,5.258,0,0,0,1.214,3.631,4.13,4.13,0,0,0,3.241,1.364,4.84,4.84,0,0,0,2.457-.621,3.864,3.864,0,0,0,1.593-1.675l1.835.649a5.6,5.6,0,0,1-2.294,2.619,6.917,6.917,0,0,1-3.645.945" fill="#fff"/>
      <path id="Path_5552" data-name="Path 5552" d="M72.981,229.44H71.145l-.136-1.944a4.212,4.212,0,0,1-1.674,1.58,5.219,5.219,0,0,1-2.457.553,5.5,5.5,0,0,1-2.726-.648,4.334,4.334,0,0,1-1.8-1.944,7.412,7.412,0,0,1-.635-3.267v-7.83h2v7.614a4.747,4.747,0,0,0,.906,3.146,3.222,3.222,0,0,0,2.605,1.066,3.507,3.507,0,0,0,2.74-1.121,4.916,4.916,0,0,0,1.013-3.388V215.94h2Z" fill="#fff"/>
      <rect id="Rectangle_200" data-name="Rectangle 200" width="2.024" height="19.44" transform="translate(77.112 210)" fill="#fff"/>
      <path id="Path_5553" data-name="Path 5553" d="M84.132,215.94v-3.78h2.025v3.78h3.591v1.89H86.157v7.263a2.6,2.6,0,0,0,.527,1.809,2.163,2.163,0,0,0,1.35.675,6.824,6.824,0,0,0,1.714,0v1.755a6.2,6.2,0,0,1-2.065.135,4.187,4.187,0,0,1-1.809-.607,3.534,3.534,0,0,1-1.269-1.418,5.117,5.117,0,0,1-.473-2.349V217.83H82.108v-1.89Z" fill="#fff"/>
      <path id="Path_5554" data-name="Path 5554" d="M98.6,229.63a6.944,6.944,0,0,1-3.428-.838A5.99,5.99,0,0,1,92.8,226.4a8.316,8.316,0,0,1,.013-7.412,6.043,6.043,0,0,1,2.4-2.4,7.49,7.49,0,0,1,6.885,0,6.074,6.074,0,0,1,2.4,2.389,8.2,8.2,0,0,1-.014,7.412,6.108,6.108,0,0,1-2.43,2.4,7.1,7.1,0,0,1-3.456.838m-.027-1.917a4.944,4.944,0,0,0,2.241-.527,4.125,4.125,0,0,0,1.715-1.647,5.545,5.545,0,0,0,.661-2.848,5.631,5.631,0,0,0-.647-2.863,4.1,4.1,0,0,0-1.688-1.633,4.859,4.859,0,0,0-2.227-.527,4.774,4.774,0,0,0-2.214.527,4,4,0,0,0-1.661,1.647,5.73,5.73,0,0,0-.634,2.849,5.817,5.817,0,0,0,.62,2.862,3.965,3.965,0,0,0,1.634,1.633,4.7,4.7,0,0,0,2.2.527" fill="#fff"/>
      <path id="Path_5555" data-name="Path 5555" d="M108.7,215.94h1.862l.109,1.971a5.213,5.213,0,0,1,1.309-1.242,4.921,4.921,0,0,1,1.7-.715,5.066,5.066,0,0,1,1.985-.014v2.025a4.851,4.851,0,0,0-2.039,0,3.433,3.433,0,0,0-1.552.81,3.889,3.889,0,0,0-1,1.5,5.757,5.757,0,0,0-.352,2.092v7.074H108.7Z" fill="#fff"/>
      <path id="Path_5556" data-name="Path 5556" d="M133.784,225.309a2.991,2.991,0,0,0,.594,1.336,2.688,2.688,0,0,0,1.121.8,4.382,4.382,0,0,0,1.606.27,3.606,3.606,0,0,0,2.174-.553,1.677,1.677,0,0,0,.742-1.391,1.508,1.508,0,0,0-.445-1.134,3.479,3.479,0,0,0-1.175-.716,12.962,12.962,0,0,0-1.62-.5q-.7-.16-1.512-.39a7.274,7.274,0,0,1-1.539-.635,3.546,3.546,0,0,1-1.188-1.053,2.881,2.881,0,0,1-.459-1.7,3.392,3.392,0,0,1,.635-2.039,4.136,4.136,0,0,1,1.754-1.363,6.435,6.435,0,0,1,2.58-.487,6.033,6.033,0,0,1,2.983.73,3.891,3.891,0,0,1,1.822,2.267l-1.889.649a1.944,1.944,0,0,0-.689-1.08,2.839,2.839,0,0,0-1.107-.513,5.537,5.537,0,0,0-1.2-.136,3.61,3.61,0,0,0-1.958.473,1.568,1.568,0,0,0-.743,1.418,1.422,1.422,0,0,0,.243.851,1.823,1.823,0,0,0,.675.553,5.015,5.015,0,0,0,1.027.365c.4.1.827.211,1.3.336q.781.19,1.592.473a7.384,7.384,0,0,1,1.512.73A3.728,3.728,0,0,1,141.763,224a3.1,3.1,0,0,1,.445,1.715,3.383,3.383,0,0,1-.648,2.066,4.212,4.212,0,0,1-1.8,1.363,6.768,6.768,0,0,1-2.659.486,5.965,5.965,0,0,1-3.442-.931,4.517,4.517,0,0,1-1.822-2.742Z" fill="#fff"/>
      <path id="Path_5557" data-name="Path 5557" d="M146.609,229.575a1.388,1.388,0,0,1-1.04-.432,1.535,1.535,0,0,1,0-2.106,1.45,1.45,0,0,1,2.065,0,1.5,1.5,0,0,1,0,2.106,1.4,1.4,0,0,1-1.025.432" fill="#fff"/>
    </g>
  </g>
</svg>
