<svg id="Group_362" data-name="Group 362" xmlns="http://www.w3.org/2000/svg" xmlns:xlink="http://www.w3.org/1999/xlink" width="272.939" height="129.87" viewBox="0 0 272.939 129.87">
  <defs>
    <clipPath id="clip-path">
      <rect id="Rectangle_191" data-name="Rectangle 191" width="272.939" height="129.87" fill="#fff"/>
    </clipPath>
  </defs>
  <g id="Group_361" data-name="Group 361" clip-path="url(#clip-path)">
    <path id="Path_5384" data-name="Path 5384" d="M11.259,8.7l-.216.027V.03h2.025V19.47H11.2l-.135-2.511a5.292,5.292,0,0,1-1.85,1.917,5.532,5.532,0,0,1-3.037.783,6.121,6.121,0,0,1-3.254-.85A5.7,5.7,0,0,1,.77,16.392,8.222,8.222,0,0,1,0,12.72,8.133,8.133,0,0,1,.77,9.062,5.8,5.8,0,0,1,2.929,6.645a6.048,6.048,0,0,1,3.254-.864,5.675,5.675,0,0,1,3.186.837A5.341,5.341,0,0,1,11.259,8.7M2.187,12.72a5.419,5.419,0,0,0,1.188,3.686,4.073,4.073,0,0,0,3.24,1.363,4.345,4.345,0,0,0,2.268-.594,4.152,4.152,0,0,0,1.579-1.728,5.922,5.922,0,0,0,.581-2.727,5.841,5.841,0,0,0-.581-2.714A4.181,4.181,0,0,0,6.615,7.671,4.089,4.089,0,0,0,3.388,9.034a5.379,5.379,0,0,0-1.2,3.686" fill="#fff"/>
    <path id="Path_5385" data-name="Path 5385" d="M22.869,19.659a6.214,6.214,0,0,1-3.361-.918A6.4,6.4,0,0,1,17.2,16.229a7.713,7.713,0,0,1-.837-3.644,7.228,7.228,0,0,1,.837-3.51,6.245,6.245,0,0,1,2.3-2.417,6.314,6.314,0,0,1,3.321-.878,6.6,6.6,0,0,1,3.281.811A5.808,5.808,0,0,1,28.35,8.832a6.137,6.137,0,0,1,.756,3.267q0,.3-.027.621t-.054.7H18.576a4.78,4.78,0,0,0,.621,2.241,4.2,4.2,0,0,0,1.5,1.525,4.056,4.056,0,0,0,2.119.554,5.5,5.5,0,0,0,2.66-.6,3.482,3.482,0,0,0,1.579-1.7l1.755.7a5.854,5.854,0,0,1-2.349,2.606,6.957,6.957,0,0,1-3.591.905m4.023-7.992a3.685,3.685,0,0,0-1.971-3.456A4.513,4.513,0,0,0,22.734,7.7a3.88,3.88,0,0,0-1.971.514,4.267,4.267,0,0,0-1.472,1.417,4.508,4.508,0,0,0-.688,2.039Z" fill="#fff"/>
    <path id="Path_5386" data-name="Path 5386" d="M51.029,19.47H49.193l-.135-1.944a4.219,4.219,0,0,1-1.674,1.58,5.222,5.222,0,0,1-2.457.553,5.506,5.506,0,0,1-2.727-.648,4.339,4.339,0,0,1-1.8-1.944A7.412,7.412,0,0,1,39.77,13.8V5.97h2v7.614a4.747,4.747,0,0,0,.9,3.146,3.224,3.224,0,0,0,2.6,1.066,3.506,3.506,0,0,0,2.74-1.121,4.911,4.911,0,0,0,1.013-3.388V5.97h2Z" fill="#fff"/>
    <path id="Path_5387" data-name="Path 5387" d="M55.16,5.97h1.863l.108,1.917a4.481,4.481,0,0,1,1.7-1.553,5.219,5.219,0,0,1,2.457-.553,5.349,5.349,0,0,1,2.7.662A4.482,4.482,0,0,1,65.8,8.413a7.373,7.373,0,0,1,.648,3.281V19.47H64.421V11.937a4.909,4.909,0,0,0-.9-3.2,3.185,3.185,0,0,0-2.6-1.094A3.4,3.4,0,0,0,58.17,8.805a5.178,5.178,0,0,0-.985,3.429V19.47H55.16Z" fill="#fff"/>
    <path id="Path_5388" data-name="Path 5388" d="M83.672,19.66a6.748,6.748,0,0,1-3.456-.864,5.976,5.976,0,0,1-2.309-2.417,7.579,7.579,0,0,1-.823-3.6,7.8,7.8,0,0,1,.823-3.658,6.024,6.024,0,0,1,2.309-2.457,6.666,6.666,0,0,1,3.456-.878,6.842,6.842,0,0,1,3.645.959A5.508,5.508,0,0,1,89.585,9.4l-1.863.649a3.325,3.325,0,0,0-1.471-1.715A4.747,4.747,0,0,0,83.78,7.7a4.493,4.493,0,0,0-2.39.621,4.134,4.134,0,0,0-1.566,1.755,6.039,6.039,0,0,0-.553,2.674,5.253,5.253,0,0,0,1.215,3.631,4.126,4.126,0,0,0,3.24,1.364,4.84,4.84,0,0,0,2.457-.621,3.864,3.864,0,0,0,1.593-1.675l1.836.649a5.607,5.607,0,0,1-2.295,2.619,6.917,6.917,0,0,1-3.645.945" fill="#fff"/>
    <path id="Path_5389" data-name="Path 5389" d="M101.384,19.47l-.162-2.43a4.339,4.339,0,0,1-1.674,1.931,5.237,5.237,0,0,1-2.808.689,6.077,6.077,0,0,1-2.484-.459,3.444,3.444,0,0,1-2.133-3.322,3.528,3.528,0,0,1,1.269-2.8,6.534,6.534,0,0,1,3.672-1.336l4.158-.459v-1.08a2.246,2.246,0,0,0-.837-1.823A3.465,3.465,0,0,0,98.117,7.7a3.988,3.988,0,0,0-2.335.648A3.292,3.292,0,0,0,94.5,10.209l-1.836-.648A5.05,5.05,0,0,1,94.647,6.78a6.052,6.052,0,0,1,3.524-1,5.324,5.324,0,0,1,3.739,1.228,4.309,4.309,0,0,1,1.337,3.335V19.47Zm-.162-6.453-4.185.486a3.909,3.909,0,0,0-2.052.743,2.007,2.007,0,0,0-.013,3.038,3.046,3.046,0,0,0,1.984.566,4.491,4.491,0,0,0,2.43-.594,3.544,3.544,0,0,0,1.39-1.606,5.386,5.386,0,0,0,.446-2.2Z" fill="#fff"/>
    <path id="Path_5390" data-name="Path 5390" d="M107.918,4.377a5.838,5.838,0,0,1,.486-2.511,3.007,3.007,0,0,1,1.553-1.5,6.019,6.019,0,0,1,2.848-.338v1.81a2.7,2.7,0,0,0-2.241.526,2.847,2.847,0,0,0-.621,2.012V5.97h2.97V7.859h-2.97V19.47h-2.025V7.859h-1.89V5.97h1.89Z" fill="#fff"/>
    <path id="Path_5391" data-name="Path 5391" d="M121.337,19.659a6.223,6.223,0,0,1-3.361-.918,6.4,6.4,0,0,1-2.309-2.512,7.713,7.713,0,0,1-.837-3.644,7.228,7.228,0,0,1,.837-3.51,6.245,6.245,0,0,1,2.295-2.417,6.314,6.314,0,0,1,3.321-.878,6.59,6.59,0,0,1,3.28.811,5.8,5.8,0,0,1,2.255,2.241,6.137,6.137,0,0,1,.756,3.267c0,.2-.01.4-.027.621s-.036.45-.054.7H117.044a4.78,4.78,0,0,0,.621,2.241,4.2,4.2,0,0,0,1.5,1.525,4.056,4.056,0,0,0,2.119.554,5.491,5.491,0,0,0,2.659-.6,3.484,3.484,0,0,0,1.58-1.7l1.755.7a5.854,5.854,0,0,1-2.349,2.606,6.957,6.957,0,0,1-3.591.905m4.023-7.992a3.793,3.793,0,0,0-.5-2.053,3.744,3.744,0,0,0-1.471-1.4A4.513,4.513,0,0,0,121.2,7.7a3.88,3.88,0,0,0-1.971.514,4.267,4.267,0,0,0-1.472,1.417,4.508,4.508,0,0,0-.688,2.039ZM123.605.165v1.7l-5.076,2.808V3.216Z" fill="#fff"/>
    <path id="Path_5392" data-name="Path 5392" d="M144.124,19.659a6.21,6.21,0,0,1-3.36-.918,6.4,6.4,0,0,1-2.31-2.512,7.713,7.713,0,0,1-.837-3.644,7.228,7.228,0,0,1,.837-3.51,6.245,6.245,0,0,1,2.295-2.417,6.316,6.316,0,0,1,3.321-.878,6.6,6.6,0,0,1,3.282.811A5.805,5.805,0,0,1,149.6,8.832a6.128,6.128,0,0,1,.756,3.267q0,.3-.026.621t-.054.7h-10.45a4.78,4.78,0,0,0,.621,2.241,4.216,4.216,0,0,0,1.5,1.525,4.061,4.061,0,0,0,2.119.554,5.492,5.492,0,0,0,2.66-.6,3.473,3.473,0,0,0,1.579-1.7l1.755.7a5.839,5.839,0,0,1-2.35,2.606,6.95,6.95,0,0,1-3.59.905m4.024-7.992a3.793,3.793,0,0,0-.5-2.053,3.753,3.753,0,0,0-1.472-1.4A4.509,4.509,0,0,0,143.99,7.7a3.886,3.886,0,0,0-1.972.514,4.267,4.267,0,0,0-1.472,1.417,4.507,4.507,0,0,0-.687,2.039Z" fill="#fff"/>
    <path id="Path_5393" data-name="Path 5393" d="M154.789,15.339a2.991,2.991,0,0,0,.594,1.336,2.688,2.688,0,0,0,1.121.8,4.382,4.382,0,0,0,1.606.27,3.606,3.606,0,0,0,2.174-.553,1.677,1.677,0,0,0,.742-1.391,1.508,1.508,0,0,0-.445-1.134,3.479,3.479,0,0,0-1.175-.716,12.96,12.96,0,0,0-1.62-.5q-.7-.161-1.512-.39a7.273,7.273,0,0,1-1.539-.635,3.546,3.546,0,0,1-1.188-1.053,2.881,2.881,0,0,1-.459-1.7,3.392,3.392,0,0,1,.635-2.039,4.136,4.136,0,0,1,1.754-1.363,6.435,6.435,0,0,1,2.58-.487,6.033,6.033,0,0,1,2.983.73,3.891,3.891,0,0,1,1.822,2.267l-1.889.649a1.944,1.944,0,0,0-.689-1.08,2.839,2.839,0,0,0-1.107-.513,5.537,5.537,0,0,0-1.2-.136,3.61,3.61,0,0,0-1.958.473,1.568,1.568,0,0,0-.743,1.418,1.422,1.422,0,0,0,.243.851,1.822,1.822,0,0,0,.675.553,5.015,5.015,0,0,0,1.027.365c.4.1.827.211,1.3.336q.781.19,1.592.473a7.384,7.384,0,0,1,1.512.73,3.728,3.728,0,0,1,1.148,1.133,3.1,3.1,0,0,1,.445,1.715,3.383,3.383,0,0,1-.648,2.066,4.212,4.212,0,0,1-1.8,1.363,6.768,6.768,0,0,1-2.659.486,5.965,5.965,0,0,1-3.442-.931,4.517,4.517,0,0,1-1.822-2.742Z" fill="#fff"/>
    <path id="Path_5394" data-name="Path 5394" d="M168.317,16.743l.216-.027V24.87h-2.026V5.97h1.863l.135,2.511a5.332,5.332,0,0,1,1.836-1.917,5.529,5.529,0,0,1,3.051-.783,5.88,5.88,0,0,1,5.373,3.253,7.874,7.874,0,0,1,.811,3.686,8.143,8.143,0,0,1-.77,3.658,5.82,5.82,0,0,1-2.16,2.417,6.041,6.041,0,0,1-3.254.864,5.722,5.722,0,0,1-3.213-.837,5.118,5.118,0,0,1-1.862-2.079m9.071-4.023a5.379,5.379,0,0,0-1.2-3.686,4.089,4.089,0,0,0-3.227-1.363,4.422,4.422,0,0,0-2.281.594,4.04,4.04,0,0,0-1.58,1.728,6.041,6.041,0,0,0-.566,2.727,5.975,5.975,0,0,0,.566,2.7,4.126,4.126,0,0,0,1.58,1.741,4.337,4.337,0,0,0,2.281.608,4.085,4.085,0,0,0,3.227-1.363,5.379,5.379,0,0,0,1.2-3.686" fill="#fff"/>
    <path id="Path_5395" data-name="Path 5395" d="M188.539,19.659a6.217,6.217,0,0,1-3.362-.918,6.4,6.4,0,0,1-2.308-2.512,7.7,7.7,0,0,1-.837-3.644,7.216,7.216,0,0,1,.837-3.51,6.23,6.23,0,0,1,2.295-2.417,6.31,6.31,0,0,1,3.32-.878,6.6,6.6,0,0,1,3.281.811,5.808,5.808,0,0,1,2.254,2.241,6.137,6.137,0,0,1,.756,3.267q0,.3-.026.621t-.055.7H184.246a4.769,4.769,0,0,0,.621,2.241,4.2,4.2,0,0,0,1.5,1.525,4.058,4.058,0,0,0,2.119.554,5.5,5.5,0,0,0,2.66-.6,3.482,3.482,0,0,0,1.579-1.7l1.755.7a5.848,5.848,0,0,1-2.349,2.606,6.955,6.955,0,0,1-3.59.905m4.022-7.992a3.681,3.681,0,0,0-1.971-3.456A4.513,4.513,0,0,0,188.4,7.7a3.88,3.88,0,0,0-1.971.514,4.267,4.267,0,0,0-1.472,1.417,4.52,4.52,0,0,0-.688,2.039Z" fill="#fff"/>
    <path id="Path_5396" data-name="Path 5396" d="M203.848,19.66a6.745,6.745,0,0,1-3.456-.864,5.976,5.976,0,0,1-2.309-2.417,7.579,7.579,0,0,1-.823-3.6,7.8,7.8,0,0,1,.823-3.658,6.024,6.024,0,0,1,2.309-2.457,6.664,6.664,0,0,1,3.456-.878,6.842,6.842,0,0,1,3.645.959A5.514,5.514,0,0,1,209.761,9.4l-1.863.649a3.327,3.327,0,0,0-1.472-1.715,4.741,4.741,0,0,0-2.471-.635,4.489,4.489,0,0,0-2.389.621A4.134,4.134,0,0,0,200,10.074a6.039,6.039,0,0,0-.553,2.674,5.258,5.258,0,0,0,1.214,3.631,4.13,4.13,0,0,0,3.241,1.364,4.839,4.839,0,0,0,2.457-.621,3.864,3.864,0,0,0,1.593-1.675l1.835.649a5.6,5.6,0,0,1-2.294,2.619,6.917,6.917,0,0,1-3.645.945" fill="#fff"/>
    <path id="Path_5397" data-name="Path 5397" d="M214.539,3.27a1.386,1.386,0,0,1-1.025-.4,1.354,1.354,0,0,1-.406-1A1.387,1.387,0,0,1,214.539.435a1.37,1.37,0,0,1,.986.4,1.369,1.369,0,0,1,.418,1.027,1.334,1.334,0,0,1-.418,1,1.37,1.37,0,0,1-.986.4m-1.025,2.7h2v13.5h-2Z" fill="#fff"/>
    <path id="Path_5398" data-name="Path 5398" d="M228.525,19.47l-.162-2.43a4.34,4.34,0,0,1-1.674,1.931,5.234,5.234,0,0,1-2.807.689A6.079,6.079,0,0,1,221.4,19.2a3.444,3.444,0,0,1-2.133-3.322,3.528,3.528,0,0,1,1.269-2.8,6.534,6.534,0,0,1,3.672-1.336l4.158-.459v-1.08a2.246,2.246,0,0,0-.837-1.823,3.464,3.464,0,0,0-2.267-.688,3.993,3.993,0,0,0-2.336.648,3.292,3.292,0,0,0-1.283,1.863L219.8,9.561a5.052,5.052,0,0,1,1.985-2.781,6.048,6.048,0,0,1,3.523-1,5.323,5.323,0,0,1,3.739,1.228,4.309,4.309,0,0,1,1.337,3.335V19.47Zm-.162-6.453-4.185.486a3.908,3.908,0,0,0-2.052.743,1.881,1.881,0,0,0-.7,1.525,1.861,1.861,0,0,0,.688,1.513,3.048,3.048,0,0,0,1.984.566,4.491,4.491,0,0,0,2.43-.594,3.54,3.54,0,0,0,1.391-1.606,5.4,5.4,0,0,0,.445-2.2Z" fill="#fff"/>
    <rect id="Rectangle_188" data-name="Rectangle 188" width="2.025" height="19.44" transform="translate(234.33 0.03)" fill="#fff"/>
    <path id="Path_5399" data-name="Path 5399" d="M241.432,16.2h2.376l-2.916,7.182h-1.458Z" fill="#fff"/>
    <path id="Path_5400" data-name="Path 5400" d="M6.588,54.66A6.748,6.748,0,0,1,3.132,53.8,5.976,5.976,0,0,1,.823,51.379,7.579,7.579,0,0,1,0,47.774a7.8,7.8,0,0,1,.823-3.658,6.024,6.024,0,0,1,2.309-2.457,6.666,6.666,0,0,1,3.456-.878,6.842,6.842,0,0,1,3.645.959A5.508,5.508,0,0,1,12.5,44.4l-1.863.649a3.325,3.325,0,0,0-1.471-1.715A4.747,4.747,0,0,0,6.7,42.7a4.493,4.493,0,0,0-2.39.621A4.134,4.134,0,0,0,2.74,45.074a6.039,6.039,0,0,0-.553,2.674A5.253,5.253,0,0,0,3.4,51.379a4.126,4.126,0,0,0,3.24,1.364A4.84,4.84,0,0,0,9.1,52.122a3.864,3.864,0,0,0,1.593-1.675l1.836.649a5.607,5.607,0,0,1-2.3,2.619,6.917,6.917,0,0,1-3.645.945" fill="#fff"/>
    <path id="Path_5401" data-name="Path 5401" d="M21.681,54.66a6.95,6.95,0,0,1-3.429-.838,6,6,0,0,1-2.376-2.389,8.32,8.32,0,0,1,.014-7.412,6.043,6.043,0,0,1,2.4-2.4,7.022,7.022,0,0,1,3.442-.838,7.031,7.031,0,0,1,3.443.838,6.074,6.074,0,0,1,2.4,2.389,8.21,8.21,0,0,1-.014,7.412,6.114,6.114,0,0,1-2.43,2.4,7.1,7.1,0,0,1-3.456.838m-.027-1.917a4.944,4.944,0,0,0,2.241-.527,4.125,4.125,0,0,0,1.715-1.647,5.545,5.545,0,0,0,.661-2.848,5.621,5.621,0,0,0-.648-2.863,4.088,4.088,0,0,0-1.687-1.633,4.867,4.867,0,0,0-2.228-.527,4.78,4.78,0,0,0-2.214.527,4,4,0,0,0-1.66,1.647,5.719,5.719,0,0,0-.635,2.849,5.816,5.816,0,0,0,.621,2.862,3.965,3.965,0,0,0,1.634,1.633,4.7,4.7,0,0,0,2.2.527" fill="#fff"/>
    <path id="Path_5402" data-name="Path 5402" d="M32.886,50.339a2.991,2.991,0,0,0,.594,1.336,2.685,2.685,0,0,0,1.12.8,4.388,4.388,0,0,0,1.607.27,3.606,3.606,0,0,0,2.174-.553,1.677,1.677,0,0,0,.742-1.391,1.512,1.512,0,0,0-.445-1.134,3.489,3.489,0,0,0-1.175-.716,12.958,12.958,0,0,0-1.62-.5q-.7-.161-1.512-.39a7.252,7.252,0,0,1-1.539-.635,3.546,3.546,0,0,1-1.188-1.053,2.881,2.881,0,0,1-.459-1.7,3.385,3.385,0,0,1,.635-2.039,4.136,4.136,0,0,1,1.754-1.363,6.43,6.43,0,0,1,2.579-.487,6.028,6.028,0,0,1,2.983.73,3.889,3.889,0,0,1,1.823,2.267l-1.89.649a1.937,1.937,0,0,0-.688-1.08,2.846,2.846,0,0,0-1.107-.513,5.539,5.539,0,0,0-1.2-.136,3.606,3.606,0,0,0-1.957.473,1.568,1.568,0,0,0-.743,1.418,1.422,1.422,0,0,0,.243.851,1.815,1.815,0,0,0,.675.553,5.026,5.026,0,0,0,1.026.365c.4.1.828.211,1.3.336q.783.19,1.593.473a7.384,7.384,0,0,1,1.512.73,3.728,3.728,0,0,1,1.148,1.133,3.1,3.1,0,0,1,.445,1.715,3.383,3.383,0,0,1-.648,2.066,4.212,4.212,0,0,1-1.8,1.363,6.772,6.772,0,0,1-2.659.486,5.971,5.971,0,0,1-3.443-.931,4.521,4.521,0,0,1-1.822-2.742Z" fill="#fff"/>
    <path id="Path_5403" data-name="Path 5403" d="M50.273,54.659a6.214,6.214,0,0,1-3.361-.918A6.4,6.4,0,0,1,44.6,51.229a7.713,7.713,0,0,1-.837-3.644,7.227,7.227,0,0,1,.837-3.51A6.245,6.245,0,0,1,46.9,41.658a6.314,6.314,0,0,1,3.321-.878,6.6,6.6,0,0,1,3.281.811,5.808,5.808,0,0,1,2.254,2.241A6.137,6.137,0,0,1,56.51,47.1q0,.3-.027.621t-.054.7H45.98a4.78,4.78,0,0,0,.621,2.241,4.2,4.2,0,0,0,1.5,1.525,4.056,4.056,0,0,0,2.119.554,5.5,5.5,0,0,0,2.66-.6,3.482,3.482,0,0,0,1.579-1.7l1.755.7a5.854,5.854,0,0,1-2.349,2.606,6.957,6.957,0,0,1-3.591.9M54.3,46.667a3.685,3.685,0,0,0-1.971-3.456,4.513,4.513,0,0,0-2.187-.514,3.88,3.88,0,0,0-1.971.514,4.267,4.267,0,0,0-1.472,1.417,4.508,4.508,0,0,0-.688,2.039Z" fill="#fff"/>
    <path id="Path_5404" data-name="Path 5404" d="M65.582,54.66a6.748,6.748,0,0,1-3.456-.864,5.976,5.976,0,0,1-2.309-2.417,7.579,7.579,0,0,1-.823-3.605,7.8,7.8,0,0,1,.823-3.658,6.024,6.024,0,0,1,2.309-2.457,6.666,6.666,0,0,1,3.456-.878,6.842,6.842,0,0,1,3.645.959A5.508,5.508,0,0,1,71.5,44.4l-1.863.649a3.325,3.325,0,0,0-1.471-1.715A4.747,4.747,0,0,0,65.69,42.7a4.493,4.493,0,0,0-2.39.621,4.134,4.134,0,0,0-1.566,1.755,6.039,6.039,0,0,0-.553,2.674A5.253,5.253,0,0,0,62.4,51.379a4.126,4.126,0,0,0,3.24,1.364,4.84,4.84,0,0,0,2.457-.621,3.864,3.864,0,0,0,1.593-1.675l1.836.649a5.607,5.607,0,0,1-2.3,2.619,6.917,6.917,0,0,1-3.645.945" fill="#fff"/>
    <path id="Path_5405" data-name="Path 5405" d="M74.843,35.03h2.025v7.776a4.266,4.266,0,0,1,1.755-1.5,5.712,5.712,0,0,1,2.484-.527,5.17,5.17,0,0,1,2.646.676,4.635,4.635,0,0,1,1.822,2,7.326,7.326,0,0,1,.662,3.294V54.47h-2.16V46.992a5.085,5.085,0,0,0-.891-3.227,3.115,3.115,0,0,0-2.592-1.121,3.367,3.367,0,0,0-2.741,1.189,5.289,5.289,0,0,0-.985,3.456V54.47H74.843Z" fill="#fff"/>
    <path id="Path_5406" data-name="Path 5406" d="M98.6,54.47l-.162-2.43a4.339,4.339,0,0,1-1.674,1.931,5.237,5.237,0,0,1-2.808.689,6.077,6.077,0,0,1-2.484-.459,3.444,3.444,0,0,1-2.133-3.322,3.528,3.528,0,0,1,1.269-2.8,6.534,6.534,0,0,1,3.672-1.336l4.158-.459v-1.08a2.246,2.246,0,0,0-.837-1.823,3.465,3.465,0,0,0-2.268-.688A3.988,3.988,0,0,0,93,43.346a3.292,3.292,0,0,0-1.283,1.863l-1.836-.648a5.05,5.05,0,0,1,1.984-2.781,6.052,6.052,0,0,1,3.524-1,5.324,5.324,0,0,1,3.739,1.228,4.309,4.309,0,0,1,1.337,3.335V54.47Zm-.162-6.453-4.185.486a3.909,3.909,0,0,0-2.052.743,2.007,2.007,0,0,0-.013,3.038,3.046,3.046,0,0,0,1.984.566,4.491,4.491,0,0,0,2.43-.594A3.544,3.544,0,0,0,98,50.65a5.386,5.386,0,0,0,.446-2.2Z" fill="#fff"/>
    <path id="Path_5407" data-name="Path 5407" d="M114.83,43.7l-.216.027V35.03h2.025V54.47h-1.863l-.135-2.511a5.292,5.292,0,0,1-1.85,1.917,5.532,5.532,0,0,1-3.037.783,6.121,6.121,0,0,1-3.254-.85,5.7,5.7,0,0,1-2.159-2.417,8.222,8.222,0,0,1-.77-3.672,8.133,8.133,0,0,1,.77-3.658,5.8,5.8,0,0,1,2.159-2.417,6.048,6.048,0,0,1,3.254-.864,5.675,5.675,0,0,1,3.186.837,5.341,5.341,0,0,1,1.89,2.079m-9.072,4.023a5.419,5.419,0,0,0,1.188,3.686,4.073,4.073,0,0,0,3.24,1.363,4.345,4.345,0,0,0,2.268-.594,4.152,4.152,0,0,0,1.579-1.728,5.922,5.922,0,0,0,.581-2.727,5.841,5.841,0,0,0-.581-2.714,4.181,4.181,0,0,0-3.847-2.335,4.089,4.089,0,0,0-3.227,1.363,5.379,5.379,0,0,0-1.2,3.686" fill="#fff"/>
    <path id="Path_5408" data-name="Path 5408" d="M126.6,54.66a6.95,6.95,0,0,1-3.429-.838,6,6,0,0,1-2.376-2.389,8.32,8.32,0,0,1,.014-7.412,6.043,6.043,0,0,1,2.4-2.4,7.49,7.49,0,0,1,6.885,0,6.074,6.074,0,0,1,2.4,2.389,8.21,8.21,0,0,1-.014,7.412,6.114,6.114,0,0,1-2.43,2.4,7.1,7.1,0,0,1-3.456.838m-.027-1.917a4.944,4.944,0,0,0,2.241-.527,4.125,4.125,0,0,0,1.715-1.647,5.545,5.545,0,0,0,.661-2.848,5.621,5.621,0,0,0-.648-2.863,4.088,4.088,0,0,0-1.687-1.633,4.867,4.867,0,0,0-2.228-.527,4.78,4.78,0,0,0-2.214.527,4,4,0,0,0-1.66,1.647,5.719,5.719,0,0,0-.635,2.849,5.816,5.816,0,0,0,.621,2.862,3.965,3.965,0,0,0,1.634,1.633,4.7,4.7,0,0,0,2.2.527" fill="#fff"/>
    <path id="Path_5409" data-name="Path 5409" d="M146.069,51.743l.216-.027V59.87H144.26V40.97h1.863l.135,2.511a5.324,5.324,0,0,1,1.836-1.917,5.525,5.525,0,0,1,3.051-.783,5.88,5.88,0,0,1,5.373,3.253,7.874,7.874,0,0,1,.81,3.686,8.13,8.13,0,0,1-.77,3.658,5.806,5.806,0,0,1-2.16,2.417,6.035,6.035,0,0,1-3.253.864,5.722,5.722,0,0,1-3.213-.837,5.128,5.128,0,0,1-1.863-2.079m9.072-4.023a5.379,5.379,0,0,0-1.2-3.686,4.086,4.086,0,0,0-3.226-1.363,4.426,4.426,0,0,0-2.282.594,4.037,4.037,0,0,0-1.579,1.728,6.041,6.041,0,0,0-.567,2.727,5.975,5.975,0,0,0,.567,2.7,4.124,4.124,0,0,0,1.579,1.741,4.341,4.341,0,0,0,2.282.608,4.083,4.083,0,0,0,3.226-1.363,5.379,5.379,0,0,0,1.2-3.686" fill="#fff"/>
    <path id="Path_5410" data-name="Path 5410" d="M166.453,54.66a6.947,6.947,0,0,1-3.429-.838,6,6,0,0,1-2.376-2.389,8.324,8.324,0,0,1,.013-7.412,6.045,6.045,0,0,1,2.4-2.4,7.488,7.488,0,0,1,6.884,0,6.076,6.076,0,0,1,2.4,2.389,8.21,8.21,0,0,1-.014,7.412,6.115,6.115,0,0,1-2.43,2.4,7.1,7.1,0,0,1-3.456.838m-.027-1.917a4.944,4.944,0,0,0,2.241-.527,4.117,4.117,0,0,0,1.714-1.647,5.535,5.535,0,0,0,.662-2.848,5.621,5.621,0,0,0-.648-2.863,4.084,4.084,0,0,0-1.688-1.633,4.859,4.859,0,0,0-2.227-.527,4.777,4.777,0,0,0-2.214.527,4,4,0,0,0-1.66,1.647,5.719,5.719,0,0,0-.635,2.849,5.816,5.816,0,0,0,.621,2.862,3.959,3.959,0,0,0,1.634,1.633,4.7,4.7,0,0,0,2.2.527" fill="#fff"/>
    <path id="Path_5411" data-name="Path 5411" d="M176.551,40.97h1.863l.108,1.971a5.23,5.23,0,0,1,1.309-1.242,4.929,4.929,0,0,1,1.7-.715,5.066,5.066,0,0,1,1.985-.014v2.025a4.846,4.846,0,0,0-2.038,0,3.436,3.436,0,0,0-1.553.81,3.9,3.9,0,0,0-1,1.5,5.757,5.757,0,0,0-.351,2.092V54.47h-2.025Z" fill="#fff"/>
    <path id="Path_5412" data-name="Path 5412" d="M193.83,40.97h1.863l.135,1.944a4.428,4.428,0,0,1,1.606-1.552,4.781,4.781,0,0,1,2.417-.581,5.058,5.058,0,0,1,2.606.688,4.593,4.593,0,0,1,1.822,2.039,4.209,4.209,0,0,1,1.89-2.052,5.885,5.885,0,0,1,2.808-.675,5.294,5.294,0,0,1,2.673.662,4.482,4.482,0,0,1,1.809,1.97,7.359,7.359,0,0,1,.648,3.281V54.47h-2.025V46.937a4.915,4.915,0,0,0-.9-3.2,3.156,3.156,0,0,0-2.578-1.094,3.358,3.358,0,0,0-2.7,1.175,5.23,5.23,0,0,0-1,3.469V54.47h-2.025V46.937a5.074,5.074,0,0,0-.864-3.2,3.038,3.038,0,0,0-2.537-1.094,3.243,3.243,0,0,0-2.661,1.175,5.392,5.392,0,0,0-.958,3.469V54.47H193.83Z" fill="#fff"/>
    <path id="Path_5413" data-name="Path 5413" d="M226.472,54.47l-.161-2.43a4.336,4.336,0,0,1-1.675,1.931,5.234,5.234,0,0,1-2.807.689,6.086,6.086,0,0,1-2.485-.459,3.448,3.448,0,0,1-2.133-3.322,3.526,3.526,0,0,1,1.27-2.8,6.531,6.531,0,0,1,3.672-1.336l4.158-.459v-1.08a2.244,2.244,0,0,0-.838-1.823,3.46,3.46,0,0,0-2.267-.688,3.988,3.988,0,0,0-2.335.648,3.3,3.3,0,0,0-1.284,1.863l-1.836-.648a5.057,5.057,0,0,1,1.985-2.781,6.051,6.051,0,0,1,3.523-1A5.325,5.325,0,0,1,227,42.009a4.309,4.309,0,0,1,1.336,3.335V54.47Zm-.161-6.453-4.186.486a3.9,3.9,0,0,0-2.051.743,2.008,2.008,0,0,0-.014,3.038,3.048,3.048,0,0,0,1.984.566,4.5,4.5,0,0,0,2.431-.594,3.544,3.544,0,0,0,1.39-1.606,5.386,5.386,0,0,0,.446-2.2Z" fill="#fff"/>
    <path id="Path_5414" data-name="Path 5414" d="M232.278,40.97h1.863l.108,1.917a4.481,4.481,0,0,1,1.7-1.553,5.219,5.219,0,0,1,2.457-.553,5.349,5.349,0,0,1,2.7.662,4.482,4.482,0,0,1,1.809,1.97,7.373,7.373,0,0,1,.648,3.281V54.47h-2.025V46.937a4.9,4.9,0,0,0-.9-3.2,3.185,3.185,0,0,0-2.6-1.094,3.4,3.4,0,0,0-2.74,1.161,5.178,5.178,0,0,0-.986,3.429V54.47h-2.025Z" fill="#fff"/>
    <path id="Path_5415" data-name="Path 5415" d="M253.311,54.66a6.947,6.947,0,0,1-3.429-.838,6,6,0,0,1-2.376-2.389,8.324,8.324,0,0,1,.013-7.412,6.045,6.045,0,0,1,2.4-2.4,7.488,7.488,0,0,1,6.884,0,6.076,6.076,0,0,1,2.4,2.389,8.21,8.21,0,0,1-.014,7.412,6.114,6.114,0,0,1-2.43,2.4,7.1,7.1,0,0,1-3.456.838m-.027-1.917a4.944,4.944,0,0,0,2.241-.527,4.117,4.117,0,0,0,1.714-1.647,5.535,5.535,0,0,0,.662-2.848,5.621,5.621,0,0,0-.648-2.863,4.084,4.084,0,0,0-1.688-1.633,4.859,4.859,0,0,0-2.227-.527,4.777,4.777,0,0,0-2.214.527,4,4,0,0,0-1.66,1.647,5.719,5.719,0,0,0-.635,2.849,5.816,5.816,0,0,0,.621,2.862,3.959,3.959,0,0,0,1.634,1.633,4.7,4.7,0,0,0,2.2.527" fill="#fff"/>
    <path id="Path_5416" data-name="Path 5416" d="M264.516,50.339a2.991,2.991,0,0,0,.594,1.336,2.688,2.688,0,0,0,1.121.8,4.382,4.382,0,0,0,1.606.27,3.606,3.606,0,0,0,2.174-.553,1.677,1.677,0,0,0,.742-1.391,1.508,1.508,0,0,0-.445-1.134,3.479,3.479,0,0,0-1.175-.716,12.958,12.958,0,0,0-1.62-.5q-.7-.161-1.512-.39a7.273,7.273,0,0,1-1.539-.635,3.547,3.547,0,0,1-1.188-1.053,2.881,2.881,0,0,1-.459-1.7,3.392,3.392,0,0,1,.635-2.039,4.136,4.136,0,0,1,1.754-1.363,6.435,6.435,0,0,1,2.58-.487,6.033,6.033,0,0,1,2.983.73,3.891,3.891,0,0,1,1.822,2.267l-1.889.649a1.944,1.944,0,0,0-.689-1.08,2.839,2.839,0,0,0-1.107-.513,5.537,5.537,0,0,0-1.2-.136,3.61,3.61,0,0,0-1.958.473A1.568,1.568,0,0,0,265,44.588a1.423,1.423,0,0,0,.243.851,1.822,1.822,0,0,0,.675.553,5.015,5.015,0,0,0,1.027.365c.4.1.827.211,1.3.336q.781.19,1.592.473a7.383,7.383,0,0,1,1.512.73,3.728,3.728,0,0,1,1.148,1.133,3.1,3.1,0,0,1,.445,1.715,3.383,3.383,0,0,1-.648,2.066,4.212,4.212,0,0,1-1.8,1.363,6.768,6.768,0,0,1-2.659.486,5.965,5.965,0,0,1-3.442-.931,4.517,4.517,0,0,1-1.822-2.742Z" fill="#fff"/>
    <path id="Path_5417" data-name="Path 5417" d="M11.259,78.7l-.216.027V70.031h2.025V89.47H11.2l-.135-2.51a5.282,5.282,0,0,1-1.85,1.916,5.524,5.524,0,0,1-3.037.783,6.121,6.121,0,0,1-3.254-.849A5.706,5.706,0,0,1,.77,86.392,8.219,8.219,0,0,1,0,82.72a8.133,8.133,0,0,1,.77-3.658,5.8,5.8,0,0,1,2.159-2.416,6.039,6.039,0,0,1,3.254-.865,5.675,5.675,0,0,1,3.186.837,5.354,5.354,0,0,1,1.89,2.079M2.187,82.72a5.415,5.415,0,0,0,1.188,3.686,4.07,4.07,0,0,0,3.24,1.363,4.345,4.345,0,0,0,2.268-.594,4.14,4.14,0,0,0,1.579-1.728,5.922,5.922,0,0,0,.581-2.727,5.836,5.836,0,0,0-.581-2.713,4.18,4.18,0,0,0-3.847-2.336,4.089,4.089,0,0,0-3.227,1.363,5.382,5.382,0,0,0-1.2,3.686" fill="#fff"/>
    <path id="Path_5418" data-name="Path 5418" d="M22.869,89.659a6.214,6.214,0,0,1-3.361-.918A6.394,6.394,0,0,1,17.2,86.229a7.707,7.707,0,0,1-.837-3.644,7.23,7.23,0,0,1,.837-3.51,6.242,6.242,0,0,1,2.3-2.416,6.305,6.305,0,0,1,3.321-.879,6.607,6.607,0,0,1,3.281.811,5.81,5.81,0,0,1,2.254,2.242,6.134,6.134,0,0,1,.756,3.266q0,.3-.027.621t-.054.7H18.576a4.776,4.776,0,0,0,.621,2.24,4.193,4.193,0,0,0,1.5,1.525,4.056,4.056,0,0,0,2.119.555,5.5,5.5,0,0,0,2.66-.6,3.478,3.478,0,0,0,1.579-1.7l1.755.7a5.86,5.86,0,0,1-2.349,2.606,6.956,6.956,0,0,1-3.591.9m4.023-7.992a3.683,3.683,0,0,0-1.971-3.455,4.513,4.513,0,0,0-2.187-.514,3.88,3.88,0,0,0-1.971.514,4.273,4.273,0,0,0-1.472,1.416,4.508,4.508,0,0,0-.688,2.039Z" fill="#fff"/>
    <path id="Path_5419" data-name="Path 5419" d="M45.737,89.659a6.747,6.747,0,0,1-3.456-.863,5.978,5.978,0,0,1-2.309-2.418,7.575,7.575,0,0,1-.823-3.6,7.8,7.8,0,0,1,.823-3.658,6.018,6.018,0,0,1,2.309-2.457,6.657,6.657,0,0,1,3.456-.879,6.842,6.842,0,0,1,3.645.959A5.506,5.506,0,0,1,51.65,79.4l-1.863.649a3.317,3.317,0,0,0-1.471-1.715,4.737,4.737,0,0,0-2.471-.635,4.484,4.484,0,0,0-2.39.621,4.126,4.126,0,0,0-1.566,1.754,6.045,6.045,0,0,0-.553,2.674,5.253,5.253,0,0,0,1.215,3.631,4.124,4.124,0,0,0,3.24,1.365,4.84,4.84,0,0,0,2.457-.621,3.861,3.861,0,0,0,1.593-1.676l1.836.649a5.6,5.6,0,0,1-2.295,2.619,6.907,6.907,0,0,1-3.645.945" fill="#fff"/>
    <path id="Path_5420" data-name="Path 5420" d="M63.45,89.469l-.162-2.43a4.347,4.347,0,0,1-1.674,1.932,5.237,5.237,0,0,1-2.808.688,6.061,6.061,0,0,1-2.484-.459,3.441,3.441,0,0,1-2.133-3.321,3.525,3.525,0,0,1,1.269-2.795,6.534,6.534,0,0,1,3.672-1.336l4.158-.459v-1.08a2.248,2.248,0,0,0-.837-1.824,3.465,3.465,0,0,0-2.268-.687,3.988,3.988,0,0,0-2.335.648,3.292,3.292,0,0,0-1.283,1.863l-1.836-.648a5.047,5.047,0,0,1,1.984-2.781,6.045,6.045,0,0,1,3.524-1,5.324,5.324,0,0,1,3.739,1.228,4.313,4.313,0,0,1,1.337,3.336v9.125Zm-.162-6.453L59.1,83.5a3.909,3.909,0,0,0-2.052.743,2.008,2.008,0,0,0-.013,3.039,3.052,3.052,0,0,0,1.984.566,4.491,4.491,0,0,0,2.43-.594,3.547,3.547,0,0,0,1.39-1.607,5.382,5.382,0,0,0,.446-2.2Z" fill="#fff"/>
    <path id="Path_5421" data-name="Path 5421" d="M79.271,75.942V89.469H77.246V77.832H68.093v-1.89Zm-9.288-1.565a5.835,5.835,0,0,1,.486-2.511,3,3,0,0,1,1.553-1.5,5.993,5.993,0,0,1,2.848-.338v1.808a2.691,2.691,0,0,0-2.241.528,2.847,2.847,0,0,0-.621,2.011V89.469H69.983ZM78.3,73.35a1.424,1.424,0,0,1-1.026-.418,1.358,1.358,0,0,1-.432-1.012,1.469,1.469,0,0,1,2.5-1.066,1.445,1.445,0,0,1,.418,1.066,1.383,1.383,0,0,1-.418,1.012,1.414,1.414,0,0,1-1.04.418" fill="#fff"/>
    <path id="Path_5422" data-name="Path 5422" d="M89.666,89.659A6.747,6.747,0,0,1,86.21,88.8,5.978,5.978,0,0,1,83.9,86.378a7.575,7.575,0,0,1-.823-3.6,7.8,7.8,0,0,1,.823-3.658,6.018,6.018,0,0,1,2.309-2.457,6.657,6.657,0,0,1,3.456-.879,6.842,6.842,0,0,1,3.645.959,5.506,5.506,0,0,1,2.268,2.66l-1.863.649a3.317,3.317,0,0,0-1.471-1.715,4.737,4.737,0,0,0-2.471-.635,4.484,4.484,0,0,0-2.39.621,4.126,4.126,0,0,0-1.566,1.754,6.045,6.045,0,0,0-.553,2.674,5.253,5.253,0,0,0,1.215,3.631,4.124,4.124,0,0,0,3.24,1.365,4.84,4.84,0,0,0,2.457-.621,3.861,3.861,0,0,0,1.593-1.676l1.836.649a5.6,5.6,0,0,1-2.3,2.619,6.907,6.907,0,0,1-3.645.945" fill="#fff"/>
    <path id="Path_5423" data-name="Path 5423" d="M109.97,89.47h-1.836L108,87.527a4.226,4.226,0,0,1-1.674,1.58,5.234,5.234,0,0,1-2.457.552,5.506,5.506,0,0,1-2.727-.648,4.342,4.342,0,0,1-1.8-1.943,7.417,7.417,0,0,1-.634-3.268V75.97h2v7.615a4.746,4.746,0,0,0,.9,3.145,3.224,3.224,0,0,0,2.605,1.066,3.506,3.506,0,0,0,2.74-1.121,4.908,4.908,0,0,0,1.013-3.387V75.97h2Z" fill="#fff"/>
    <rect id="Rectangle_189" data-name="Rectangle 189" width="2.025" height="19.439" transform="translate(114.101 70.03)" fill="#fff"/>
    <path id="Path_5424" data-name="Path 5424" d="M121.121,75.97V72.191h2.025V75.97h3.591v1.891h-3.591v7.263a2.6,2.6,0,0,0,.527,1.809,2.162,2.162,0,0,0,1.35.674,6.825,6.825,0,0,0,1.714,0v1.756a6.175,6.175,0,0,1-2.065.134,4.17,4.17,0,0,1-1.809-.607,3.514,3.514,0,0,1-1.269-1.418,5.116,5.116,0,0,1-.473-2.348V77.861H119.1V75.97Z" fill="#fff"/>
    <path id="Path_5425" data-name="Path 5425" d="M135.592,89.659a6.95,6.95,0,0,1-3.429-.838,6,6,0,0,1-2.376-2.389,8.32,8.32,0,0,1,.014-7.412,6.056,6.056,0,0,1,2.4-2.4,7.49,7.49,0,0,1,6.885,0,6.087,6.087,0,0,1,2.4,2.389,8.21,8.21,0,0,1-.014,7.412,6.1,6.1,0,0,1-2.43,2.4,7.1,7.1,0,0,1-3.456.838m-.027-1.916a4.944,4.944,0,0,0,2.241-.527,4.138,4.138,0,0,0,1.715-1.647,5.551,5.551,0,0,0,.661-2.849,5.617,5.617,0,0,0-.648-2.862,4.076,4.076,0,0,0-1.687-1.633,4.867,4.867,0,0,0-2.228-.527,4.78,4.78,0,0,0-2.214.527,3.992,3.992,0,0,0-1.66,1.647,5.715,5.715,0,0,0-.635,2.848,5.821,5.821,0,0,0,.621,2.863,3.971,3.971,0,0,0,1.634,1.633,4.7,4.7,0,0,0,2.2.527" fill="#fff"/>
    <path id="Path_5426" data-name="Path 5426" d="M145.691,75.97h1.863l.107,1.971a5.271,5.271,0,0,1,1.31-1.242,4.94,4.94,0,0,1,1.7-.715,5.08,5.08,0,0,1,1.984-.014V78a4.846,4.846,0,0,0-2.038,0,3.435,3.435,0,0,0-1.552.811,3.91,3.91,0,0,0-1,1.5,5.762,5.762,0,0,0-.35,2.092V89.47h-2.025Z" fill="#fff"/>
    <path id="Path_5427" data-name="Path 5427" d="M171.476,85.339a2.97,2.97,0,0,0,.594,1.336,2.685,2.685,0,0,0,1.12.8,4.365,4.365,0,0,0,1.606.271,3.6,3.6,0,0,0,2.174-.554,1.673,1.673,0,0,0,.742-1.391,1.506,1.506,0,0,0-.445-1.133,3.469,3.469,0,0,0-1.174-.717,12.962,12.962,0,0,0-1.62-.5q-.7-.16-1.513-.39a7.221,7.221,0,0,1-1.539-.635,3.532,3.532,0,0,1-1.187-1.053,2.87,2.87,0,0,1-.459-1.7,3.387,3.387,0,0,1,.635-2.039,4.13,4.13,0,0,1,1.754-1.363,6.43,6.43,0,0,1,2.579-.487,6.028,6.028,0,0,1,2.983.731,3.891,3.891,0,0,1,1.822,2.267l-1.889.649a1.93,1.93,0,0,0-.689-1.08,2.837,2.837,0,0,0-1.106-.514,5.544,5.544,0,0,0-1.2-.135,3.606,3.606,0,0,0-1.957.473,1.567,1.567,0,0,0-.744,1.418,1.411,1.411,0,0,0,.244.85,1.813,1.813,0,0,0,.674.554,5.017,5.017,0,0,0,1.027.364c.395.1.828.212,1.3.337q.783.19,1.592.473a7.414,7.414,0,0,1,1.513.729,3.731,3.731,0,0,1,1.148,1.134,3.1,3.1,0,0,1,.445,1.715,3.374,3.374,0,0,1-.649,2.065,4.2,4.2,0,0,1-1.8,1.363,6.777,6.777,0,0,1-2.66.486,5.97,5.97,0,0,1-3.442-.931,4.517,4.517,0,0,1-1.822-2.741Z" fill="#fff"/>
    <path id="Path_5428" data-name="Path 5428" d="M11.259,113.7l-.216.027v-8.693h2.025V124.47H11.2l-.135-2.51a5.282,5.282,0,0,1-1.85,1.916,5.524,5.524,0,0,1-3.037.783,6.121,6.121,0,0,1-3.254-.849A5.706,5.706,0,0,1,.77,121.392,8.219,8.219,0,0,1,0,117.72a8.133,8.133,0,0,1,.77-3.658,5.8,5.8,0,0,1,2.159-2.416,6.039,6.039,0,0,1,3.254-.865,5.675,5.675,0,0,1,3.186.837,5.354,5.354,0,0,1,1.89,2.079M2.187,117.72a5.415,5.415,0,0,0,1.188,3.686,4.07,4.07,0,0,0,3.24,1.363,4.345,4.345,0,0,0,2.268-.594,4.14,4.14,0,0,0,1.579-1.728,5.922,5.922,0,0,0,.581-2.727,5.836,5.836,0,0,0-.581-2.713,4.18,4.18,0,0,0-3.847-2.336,4.089,4.089,0,0,0-3.227,1.363,5.382,5.382,0,0,0-1.2,3.686" fill="#fff"/>
    <path id="Path_5429" data-name="Path 5429" d="M22.869,124.659a6.214,6.214,0,0,1-3.361-.918,6.394,6.394,0,0,1-2.309-2.512,7.707,7.707,0,0,1-.837-3.644,7.23,7.23,0,0,1,.837-3.51,6.242,6.242,0,0,1,2.3-2.416,6.305,6.305,0,0,1,3.321-.879,6.607,6.607,0,0,1,3.281.811,5.81,5.81,0,0,1,2.254,2.242,6.134,6.134,0,0,1,.756,3.266q0,.3-.027.621t-.054.7H18.576a4.776,4.776,0,0,0,.621,2.24,4.193,4.193,0,0,0,1.5,1.525,4.056,4.056,0,0,0,2.119.555,5.5,5.5,0,0,0,2.66-.6,3.478,3.478,0,0,0,1.579-1.7l1.755.7a5.86,5.86,0,0,1-2.349,2.606,6.956,6.956,0,0,1-3.591.9m4.023-7.992a3.683,3.683,0,0,0-1.971-3.455,4.513,4.513,0,0,0-2.187-.514,3.88,3.88,0,0,0-1.971.514,4.273,4.273,0,0,0-1.472,1.416,4.508,4.508,0,0,0-.688,2.039Z" fill="#fff"/>
    <path id="Path_5430" data-name="Path 5430" d="M42.848,113.7l-.216.027v-8.693h2.025V124.47H42.794l-.135-2.51a5.282,5.282,0,0,1-1.85,1.916,5.524,5.524,0,0,1-3.037.783,6.121,6.121,0,0,1-3.254-.849,5.706,5.706,0,0,1-2.159-2.418,8.219,8.219,0,0,1-.77-3.672,8.133,8.133,0,0,1,.77-3.658,5.8,5.8,0,0,1,2.159-2.416,6.039,6.039,0,0,1,3.254-.865,5.675,5.675,0,0,1,3.186.837,5.354,5.354,0,0,1,1.89,2.079m-9.072,4.023a5.415,5.415,0,0,0,1.188,3.686,4.07,4.07,0,0,0,3.24,1.363,4.345,4.345,0,0,0,2.268-.594,4.14,4.14,0,0,0,1.579-1.728,5.922,5.922,0,0,0,.581-2.727,5.836,5.836,0,0,0-.581-2.713,4.18,4.18,0,0,0-3.847-2.336,4.089,4.089,0,0,0-3.227,1.363,5.382,5.382,0,0,0-1.2,3.686" fill="#fff"/>
    <path id="Path_5431" data-name="Path 5431" d="M50.219,108.27a1.383,1.383,0,0,1-1.026-.406,1.352,1.352,0,0,1-.405-1,1.389,1.389,0,0,1,1.431-1.432,1.409,1.409,0,0,1,1.4,1.432,1.333,1.333,0,0,1-.418,1,1.366,1.366,0,0,1-.986.406m-1.026,2.7h2v13.5h-2Z" fill="#fff"/>
    <path id="Path_5432" data-name="Path 5432" d="M61.505,124.659a6.747,6.747,0,0,1-3.456-.863,5.978,5.978,0,0,1-2.309-2.418,7.575,7.575,0,0,1-.823-3.6,7.8,7.8,0,0,1,.823-3.658,6.018,6.018,0,0,1,2.309-2.457,6.657,6.657,0,0,1,3.456-.879,6.842,6.842,0,0,1,3.645.959,5.506,5.506,0,0,1,2.268,2.66l-1.863.649a3.317,3.317,0,0,0-1.471-1.715,4.737,4.737,0,0,0-2.471-.635,4.484,4.484,0,0,0-2.39.621,4.126,4.126,0,0,0-1.566,1.754,6.045,6.045,0,0,0-.553,2.674,5.253,5.253,0,0,0,1.215,3.631,4.124,4.124,0,0,0,3.24,1.365,4.84,4.84,0,0,0,2.457-.621,3.861,3.861,0,0,0,1.593-1.676l1.836.649a5.6,5.6,0,0,1-2.295,2.619,6.907,6.907,0,0,1-3.645.945" fill="#fff"/>
    <path id="Path_5433" data-name="Path 5433" d="M79.217,124.469l-.162-2.43a4.347,4.347,0,0,1-1.674,1.932,5.237,5.237,0,0,1-2.808.688,6.061,6.061,0,0,1-2.484-.459,3.441,3.441,0,0,1-2.133-3.321,3.525,3.525,0,0,1,1.269-2.795,6.534,6.534,0,0,1,3.672-1.336l4.158-.459v-1.08a2.248,2.248,0,0,0-.837-1.824,3.465,3.465,0,0,0-2.268-.687,3.988,3.988,0,0,0-2.335.648,3.292,3.292,0,0,0-1.283,1.863l-1.836-.648a5.047,5.047,0,0,1,1.984-2.781,6.045,6.045,0,0,1,3.524-1,5.324,5.324,0,0,1,3.739,1.228,4.313,4.313,0,0,1,1.337,3.336v9.125Zm-.162-6.453-4.185.486a3.909,3.909,0,0,0-2.052.743,2.008,2.008,0,0,0-.013,3.039,3.052,3.052,0,0,0,1.984.566,4.491,4.491,0,0,0,2.43-.594,3.547,3.547,0,0,0,1.39-1.607,5.382,5.382,0,0,0,.446-2.2Z" fill="#fff"/>
    <path id="Path_5434" data-name="Path 5434" d="M95.444,113.7l-.216.027v-8.693h2.025V124.47H95.39l-.135-2.51a5.282,5.282,0,0,1-1.85,1.916,5.524,5.524,0,0,1-3.037.783,6.121,6.121,0,0,1-3.254-.849,5.706,5.706,0,0,1-2.159-2.418,8.219,8.219,0,0,1-.77-3.672,8.133,8.133,0,0,1,.77-3.658,5.8,5.8,0,0,1,2.159-2.416,6.039,6.039,0,0,1,3.254-.865,5.675,5.675,0,0,1,3.186.837,5.354,5.354,0,0,1,1.89,2.079m-9.072,4.023a5.415,5.415,0,0,0,1.188,3.686,4.07,4.07,0,0,0,3.24,1.363,4.345,4.345,0,0,0,2.268-.594,4.14,4.14,0,0,0,1.579-1.728,5.923,5.923,0,0,0,.581-2.727,5.836,5.836,0,0,0-.581-2.713,4.18,4.18,0,0,0-3.847-2.336,4.089,4.089,0,0,0-3.227,1.363,5.382,5.382,0,0,0-1.2,3.686" fill="#fff"/>
    <path id="Path_5435" data-name="Path 5435" d="M118.42,120.339a2.981,2.981,0,0,0,.594,1.336,2.685,2.685,0,0,0,1.12.8,4.366,4.366,0,0,0,1.607.271,3.606,3.606,0,0,0,2.174-.554,1.676,1.676,0,0,0,.742-1.391,1.509,1.509,0,0,0-.445-1.133,3.474,3.474,0,0,0-1.175-.717,12.961,12.961,0,0,0-1.62-.5q-.7-.16-1.512-.39a7.2,7.2,0,0,1-1.539-.635,3.536,3.536,0,0,1-1.188-1.053,2.877,2.877,0,0,1-.459-1.7,3.387,3.387,0,0,1,.635-2.039,4.136,4.136,0,0,1,1.754-1.363,6.43,6.43,0,0,1,2.579-.487,6.028,6.028,0,0,1,2.983.731,3.889,3.889,0,0,1,1.823,2.267l-1.89.649a1.934,1.934,0,0,0-.688-1.08,2.848,2.848,0,0,0-1.107-.514,5.537,5.537,0,0,0-1.2-.135,3.606,3.606,0,0,0-1.957.473,1.566,1.566,0,0,0-.743,1.418,1.417,1.417,0,0,0,.243.85,1.817,1.817,0,0,0,.675.554,5.028,5.028,0,0,0,1.026.364q.594.148,1.3.337.783.19,1.593.473a7.381,7.381,0,0,1,1.512.729,3.731,3.731,0,0,1,1.148,1.134,3.1,3.1,0,0,1,.445,1.715,3.38,3.38,0,0,1-.648,2.065,4.2,4.2,0,0,1-1.8,1.363,6.772,6.772,0,0,1-2.659.486,5.971,5.971,0,0,1-3.443-.931,4.521,4.521,0,0,1-1.822-2.741Z" fill="#fff"/>
    <path id="Path_5436" data-name="Path 5436" d="M146.851,110.97h2.106l-7.722,18.9h-1.944l2.295-5.589-5.454-13.311h2.214l4.32,10.908Z" fill="#fff"/>
    <path id="Path_5437" data-name="Path 5437" d="M167.559,124.469l-.161-2.43a4.349,4.349,0,0,1-1.675,1.932,5.23,5.23,0,0,1-2.806.688,6.056,6.056,0,0,1-2.485-.459,3.444,3.444,0,0,1-2.134-3.321,3.523,3.523,0,0,1,1.27-2.795,6.529,6.529,0,0,1,3.672-1.336l4.158-.459v-1.08a2.251,2.251,0,0,0-.837-1.824,3.466,3.466,0,0,0-2.267-.687,3.993,3.993,0,0,0-2.336.648,3.289,3.289,0,0,0-1.284,1.863l-1.835-.648a5.048,5.048,0,0,1,1.985-2.781,6.036,6.036,0,0,1,3.522-1,5.321,5.321,0,0,1,3.739,1.228,4.31,4.31,0,0,1,1.338,3.336v9.125Zm-.161-6.453-4.186.486a3.915,3.915,0,0,0-2.052.743,1.886,1.886,0,0,0-.7,1.525,1.86,1.86,0,0,0,.688,1.514,3.054,3.054,0,0,0,1.984.566,4.485,4.485,0,0,0,2.429-.594,3.537,3.537,0,0,0,1.391-1.607,5.4,5.4,0,0,0,.446-2.2Z" fill="#fff"/>
    <rect id="Rectangle_190" data-name="Rectangle 190" width="2.025" height="19.439" transform="translate(173.364 105.03)" fill="#fff"/>
    <path id="Path_5438" data-name="Path 5438" d="M180.384,110.97v-3.779h2.025v3.779H186v1.891h-3.591v7.263a2.6,2.6,0,0,0,.527,1.809,2.162,2.162,0,0,0,1.35.674,6.825,6.825,0,0,0,1.714,0v1.756a6.175,6.175,0,0,1-2.065.134,4.174,4.174,0,0,1-1.809-.607,3.521,3.521,0,0,1-1.269-1.418,5.116,5.116,0,0,1-.473-2.348v-7.263H178.36V110.97Z" fill="#fff"/>
    <path id="Path_5439" data-name="Path 5439" d="M189.024,110.97h1.862l.109,1.971A5.249,5.249,0,0,1,192.3,111.7a4.94,4.94,0,0,1,1.7-.715,5.086,5.086,0,0,1,1.985-.014V113a4.851,4.851,0,0,0-2.039,0,3.434,3.434,0,0,0-1.552.811,3.885,3.885,0,0,0-1,1.5,5.761,5.761,0,0,0-.352,2.092v7.074h-2.024Z" fill="#fff"/>
    <path id="Path_5440" data-name="Path 5440" d="M209.787,124.47h-1.836l-.136-1.943a4.219,4.219,0,0,1-1.674,1.58,5.231,5.231,0,0,1-2.457.552,5.5,5.5,0,0,1-2.726-.648,4.336,4.336,0,0,1-1.8-1.943,7.416,7.416,0,0,1-.635-3.268v-7.83h2v7.615a4.746,4.746,0,0,0,.906,3.145,3.222,3.222,0,0,0,2.6,1.066,3.507,3.507,0,0,0,2.74-1.121,4.913,4.913,0,0,0,1.013-3.387V110.97h2Z" fill="#fff"/>
    <path id="Path_5441" data-name="Path 5441" d="M215.349,108.27a1.387,1.387,0,0,1-1.027-.406,1.355,1.355,0,0,1-.4-1,1.387,1.387,0,0,1,1.431-1.432,1.41,1.41,0,0,1,1.4,1.432,1.33,1.33,0,0,1-.419,1,1.362,1.362,0,0,1-.985.406m-1.027,2.7h2v13.5h-2Z" fill="#fff"/>
    <path id="Path_5442" data-name="Path 5442" d="M221.99,120.339a2.981,2.981,0,0,0,.594,1.336,2.688,2.688,0,0,0,1.121.8,4.361,4.361,0,0,0,1.606.271,3.606,3.606,0,0,0,2.174-.554,1.676,1.676,0,0,0,.742-1.391,1.506,1.506,0,0,0-.445-1.133,3.464,3.464,0,0,0-1.175-.717,12.961,12.961,0,0,0-1.62-.5q-.7-.16-1.512-.39a7.221,7.221,0,0,1-1.539-.635,3.536,3.536,0,0,1-1.188-1.053,2.877,2.877,0,0,1-.459-1.7,3.394,3.394,0,0,1,.635-2.039,4.136,4.136,0,0,1,1.754-1.363,6.435,6.435,0,0,1,2.58-.487,6.034,6.034,0,0,1,2.983.731,3.891,3.891,0,0,1,1.822,2.267l-1.889.649a1.94,1.94,0,0,0-.689-1.08,2.841,2.841,0,0,0-1.107-.514,5.535,5.535,0,0,0-1.2-.135,3.61,3.61,0,0,0-1.958.473,1.566,1.566,0,0,0-.743,1.418,1.417,1.417,0,0,0,.243.85,1.825,1.825,0,0,0,.675.554,5.017,5.017,0,0,0,1.027.364q.592.148,1.3.337.782.19,1.592.473a7.381,7.381,0,0,1,1.512.729,3.731,3.731,0,0,1,1.148,1.134,3.1,3.1,0,0,1,.445,1.715,3.38,3.38,0,0,1-.648,2.065,4.2,4.2,0,0,1-1.8,1.363,6.768,6.768,0,0,1-2.659.486,5.965,5.965,0,0,1-3.442-.931,4.517,4.517,0,0,1-1.822-2.741Z" fill="#fff"/>
    <path id="Path_5443" data-name="Path 5443" d="M234.572,110.97v-3.779H236.6v3.779h3.592v1.891H236.6v7.263a2.6,2.6,0,0,0,.528,1.809,2.16,2.16,0,0,0,1.349.674,6.833,6.833,0,0,0,1.715,0v1.756a6.175,6.175,0,0,1-2.065.134,4.178,4.178,0,0,1-1.81-.607,3.519,3.519,0,0,1-1.268-1.418,5.1,5.1,0,0,1-.473-2.348v-7.263h-2.025V110.97Z" fill="#fff"/>
    <path id="Path_5444" data-name="Path 5444" d="M251.663,124.469l-.162-2.43a4.347,4.347,0,0,1-1.674,1.932,5.234,5.234,0,0,1-2.807.688,6.062,6.062,0,0,1-2.485-.459,3.442,3.442,0,0,1-2.133-3.321,3.525,3.525,0,0,1,1.269-2.795,6.534,6.534,0,0,1,3.672-1.336l4.158-.459v-1.08a2.248,2.248,0,0,0-.837-1.824,3.464,3.464,0,0,0-2.267-.687,3.993,3.993,0,0,0-2.336.648,3.292,3.292,0,0,0-1.283,1.863l-1.836-.648a5.048,5.048,0,0,1,1.985-2.781,6.042,6.042,0,0,1,3.523-1,5.323,5.323,0,0,1,3.739,1.228,4.313,4.313,0,0,1,1.337,3.336v9.125Zm-.162-6.453-4.185.486a3.908,3.908,0,0,0-2.052.743,1.884,1.884,0,0,0-.7,1.525,1.863,1.863,0,0,0,.688,1.514,3.054,3.054,0,0,0,1.984.566,4.491,4.491,0,0,0,2.43-.594,3.543,3.543,0,0,0,1.391-1.607,5.4,5.4,0,0,0,.445-2.2Z" fill="#fff"/>
    <path id="Path_5445" data-name="Path 5445" d="M258.575,120.339a2.971,2.971,0,0,0,.594,1.336,2.685,2.685,0,0,0,1.12.8,4.365,4.365,0,0,0,1.606.271,3.6,3.6,0,0,0,2.174-.554,1.673,1.673,0,0,0,.742-1.391,1.506,1.506,0,0,0-.445-1.133,3.469,3.469,0,0,0-1.174-.717,12.961,12.961,0,0,0-1.62-.5q-.7-.16-1.513-.39a7.222,7.222,0,0,1-1.539-.635,3.532,3.532,0,0,1-1.187-1.053,2.87,2.87,0,0,1-.459-1.7,3.387,3.387,0,0,1,.635-2.039,4.129,4.129,0,0,1,1.754-1.363,6.43,6.43,0,0,1,2.579-.487,6.028,6.028,0,0,1,2.983.731,3.891,3.891,0,0,1,1.822,2.267l-1.889.649a1.93,1.93,0,0,0-.689-1.08,2.837,2.837,0,0,0-1.106-.514,5.544,5.544,0,0,0-1.2-.135,3.606,3.606,0,0,0-1.957.473,1.567,1.567,0,0,0-.744,1.418,1.411,1.411,0,0,0,.244.85,1.813,1.813,0,0,0,.674.554,5.016,5.016,0,0,0,1.027.364c.395.1.828.212,1.3.337q.783.19,1.592.473a7.414,7.414,0,0,1,1.513.729,3.731,3.731,0,0,1,1.148,1.134,3.1,3.1,0,0,1,.445,1.715,3.374,3.374,0,0,1-.649,2.065,4.2,4.2,0,0,1-1.8,1.363,6.777,6.777,0,0,1-2.66.486,5.97,5.97,0,0,1-3.442-.931,4.517,4.517,0,0,1-1.822-2.741Z" fill="#fff"/>
    <path id="Path_5446" data-name="Path 5446" d="M271.4,124.6a1.382,1.382,0,0,1-1.039-.432,1.531,1.531,0,0,1,0-2.1,1.39,1.39,0,0,1,1.039-.432,1.405,1.405,0,0,1,1.026.432,1.5,1.5,0,0,1,0,2.1,1.4,1.4,0,0,1-1.026.432" fill="#fff"/>
    <path id="Path_5447" data-name="Path 5447" d="M167.438,76.621a1.78,1.78,0,0,0-1.308-1.006,4.823,4.823,0,0,0-1.717-.137c-.953.1-1.566,1.382-1.822,2.044a8.628,8.628,0,0,0-3.926,0l0-.007c-.848-1.566-2.023-3.406-2.807-3.29-.686.106-.94,1.39-.746,3.817a.387.387,0,0,0,.383.356h.032a.385.385,0,0,0,.355-.415A9.006,9.006,0,0,1,156,75.02a10.853,10.853,0,0,1,1.886,2.685c-.018,0-.036.01-.053.014a.378.378,0,0,0-.26.232.388.388,0,0,0,.46.517,8.449,8.449,0,0,1,4.655-.1.391.391,0,0,0,.309-.011.381.381,0,0,0,.2-.232c.172-.563.738-1.818,1.294-1.878,1-.106,2.058.2,2.217.636a8.589,8.589,0,0,1,.112,2.231,4.136,4.136,0,0,1-.32,1.7,1.2,1.2,0,0,1-.784-.444l-1.309-2.054a.393.393,0,0,0-.535-.116.385.385,0,0,0-.116.534l1.3,2.03a1.911,1.911,0,0,0,1.365.82.67.67,0,0,0,.12.011.685.685,0,0,0,.524-.257c.686-.806.637-3.99.376-4.725m-2.4,7.339a.4.4,0,0,0-.162.246.382.382,0,0,0,.064.288,2.7,2.7,0,0,1,.5,2.445.743.743,0,0,1-.591.247.668.668,0,0,1-.3-.138,4,4,0,0,0-.415-.482.383.383,0,0,0-.5-.035.391.391,0,0,0-.105.5,2.278,2.278,0,0,0,.45.545,1.09,1.09,0,0,1,.166,1.193,2.748,2.748,0,0,1-2.09-1.182.385.385,0,0,0-.7.285c.19,1.045-.042,1.439-.151,1.558-.855-.13-1.769-1.54-2.156-2.42a.387.387,0,0,0-.335-.232.376.376,0,0,0-.355.2,10.633,10.633,0,0,1-1.731,2.27,1.222,1.222,0,0,1-.1.091,2.389,2.389,0,0,1,.038-.419c0-.017,0-.035.007-.056.141-3.3,1.045-4.014,1.07-4.035a2.66,2.66,0,0,0,.57,1.326.644.644,0,0,0,.45.2.516.516,0,0,0,.07,0c.57-.071,1.365-1.133,1.5-1.823a1.061,1.061,0,0,0-.791-1.224,2.531,2.531,0,0,0-.827-.077,11.721,11.721,0,0,1,1.671-1.805.383.383,0,0,0,.035-.542.39.39,0,0,0-.267-.13.383.383,0,0,0-.278.095c-.356.313-2.129,1.931-2.206,2.9a3.47,3.47,0,0,0-.007.4.371.371,0,0,0-.306.032c-.215.123-1.288.918-1.45,4.64-.073.4-.126,1.09.307,1.333a.576.576,0,0,0,.277.07,1.28,1.28,0,0,0,.771-.4,10.441,10.441,0,0,0,1.513-1.858c.51.915,1.456,2.241,2.645,2.255h.007a.352.352,0,0,0,.144-.028c.116-.045.655-.316.732-1.344a2.781,2.781,0,0,0,2.23.672.389.389,0,0,0,.212-.112,1.656,1.656,0,0,0,.348-1.436,1.63,1.63,0,0,0,1.059-.52.429.429,0,0,0,.077-.109,3.354,3.354,0,0,0-.535-3.275.4.4,0,0,0-.545-.1m-6.719.133a1.375,1.375,0,0,1,.922-.038.292.292,0,0,1,.221.33,2.388,2.388,0,0,1-.781,1.165,3.433,3.433,0,0,1-.362-1.457m-.866-2.005a.211.211,0,0,0,.05,0,.372.372,0,0,0,.288-.173,1,1,0,0,0,.169-.411.965.965,0,0,0-.011-.444.314.314,0,0,0-.594-.109,1.007,1.007,0,0,0-.169.408,1.025,1.025,0,0,0,.011.444.348.348,0,0,0,.256.281m5.207,0a.207.207,0,0,0,.049,0,.375.375,0,0,0,.289-.173,1.011,1.011,0,0,0,.169-.411,1.04,1.04,0,0,0-.011-.444.355.355,0,0,0-.257-.278c-.218-.042-.436.208-.506.577s.045.683.267.725" fill="#fff"/>
    <path id="Path_5448" data-name="Path 5448" d="M113.438,111.621a1.78,1.78,0,0,0-1.308-1.006,4.823,4.823,0,0,0-1.717-.137c-.953.1-1.566,1.382-1.822,2.044a8.628,8.628,0,0,0-3.926,0l0-.007c-.848-1.566-2.023-3.406-2.807-3.29-.686.106-.94,1.39-.746,3.817a.387.387,0,0,0,.383.356h.032a.385.385,0,0,0,.355-.415,9.006,9.006,0,0,1,.12-2.963,10.853,10.853,0,0,1,1.886,2.685c-.018,0-.036.01-.053.014a.378.378,0,0,0-.26.232.388.388,0,0,0,.46.517,8.449,8.449,0,0,1,4.655-.1.391.391,0,0,0,.309-.011.381.381,0,0,0,.2-.232c.172-.563.738-1.818,1.294-1.878,1-.106,2.058.2,2.217.636a8.589,8.589,0,0,1,.112,2.231,4.136,4.136,0,0,1-.32,1.7,1.2,1.2,0,0,1-.784-.444l-1.309-2.054a.393.393,0,0,0-.535-.116.385.385,0,0,0-.116.534l1.3,2.03a1.911,1.911,0,0,0,1.365.82.67.67,0,0,0,.12.011.685.685,0,0,0,.524-.257c.686-.806.637-3.99.376-4.725m-2.4,7.339a.4.4,0,0,0-.162.246.382.382,0,0,0,.064.288,2.7,2.7,0,0,1,.5,2.445.743.743,0,0,1-.591.247.668.668,0,0,1-.3-.138,3.994,3.994,0,0,0-.415-.482.383.383,0,0,0-.5-.035.391.391,0,0,0-.1.5,2.278,2.278,0,0,0,.45.545,1.09,1.09,0,0,1,.166,1.193,2.748,2.748,0,0,1-2.09-1.182.385.385,0,0,0-.7.285c.19,1.045-.042,1.439-.151,1.558-.855-.13-1.769-1.54-2.156-2.42a.387.387,0,0,0-.335-.232.376.376,0,0,0-.355.2,10.633,10.633,0,0,1-1.731,2.27c-.039.038-.074.066-.105.091a2.389,2.389,0,0,1,.038-.419c0-.017,0-.035.007-.056.141-3.3,1.045-4.014,1.07-4.035a2.66,2.66,0,0,0,.57,1.326.644.644,0,0,0,.45.2.516.516,0,0,0,.07,0c.57-.071,1.365-1.133,1.5-1.823a1.061,1.061,0,0,0-.791-1.224,2.531,2.531,0,0,0-.827-.077,11.721,11.721,0,0,1,1.671-1.805.383.383,0,0,0,.035-.542.39.39,0,0,0-.267-.13.383.383,0,0,0-.278.095c-.356.313-2.129,1.931-2.206,2.9a3.472,3.472,0,0,0-.007.4.371.371,0,0,0-.306.032c-.215.123-1.288.918-1.45,4.64-.073.4-.126,1.09.307,1.333a.576.576,0,0,0,.277.07,1.281,1.281,0,0,0,.771-.4,10.442,10.442,0,0,0,1.513-1.858c.51.915,1.456,2.241,2.645,2.255h.007a.352.352,0,0,0,.144-.028c.116-.045.655-.316.732-1.344a2.781,2.781,0,0,0,2.23.672.389.389,0,0,0,.212-.112,1.656,1.656,0,0,0,.348-1.436,1.63,1.63,0,0,0,1.059-.52.429.429,0,0,0,.077-.109,3.354,3.354,0,0,0-.535-3.275.4.4,0,0,0-.545-.1m-6.719.133a1.375,1.375,0,0,1,.922-.038.292.292,0,0,1,.221.33,2.387,2.387,0,0,1-.781,1.165,3.433,3.433,0,0,1-.362-1.457m-.866-2.005a.211.211,0,0,0,.05,0,.372.372,0,0,0,.288-.173,1,1,0,0,0,.169-.411.965.965,0,0,0-.011-.444.314.314,0,0,0-.594-.109,1.007,1.007,0,0,0-.169.408,1.025,1.025,0,0,0,.011.444.348.348,0,0,0,.256.281m5.207,0a.207.207,0,0,0,.049,0,.375.375,0,0,0,.289-.173,1.011,1.011,0,0,0,.169-.411,1.04,1.04,0,0,0-.011-.444.355.355,0,0,0-.257-.278c-.218-.042-.436.208-.506.577s.045.683.267.725" fill="#fff"/>
  </g>
</svg>
