<svg xmlns="http://www.w3.org/2000/svg" xmlns:xlink="http://www.w3.org/1999/xlink" width="151.233" height="25.924" viewBox="0 0 151.233 25.924">
  <defs>
    <clipPath id="clip-path">
      <rect id="Rectangle_167" data-name="Rectangle 167" width="151.233" height="25.924" transform="translate(0 0)" fill="none"/>
    </clipPath>
  </defs>
  <g id="Group_310" data-name="Group 310" transform="translate(0 0)">
    <g id="Group_309" data-name="Group 309" clip-path="url(#clip-path)">
      <path id="Path_5261" data-name="Path 5261" d="M125.955,6.532A2.544,2.544,0,0,0,124.088,5.1a6.887,6.887,0,0,0-2.451-.2c-1.36.145-2.234,1.973-2.6,2.917a12.32,12.32,0,0,0-5.6,0s0,0,0-.01c-1.21-2.235-2.887-4.861-4.007-4.7-.979.151-1.34,1.983-1.064,5.448a.551.551,0,0,0,.547.507h.045a.547.547,0,0,0,.377-.191.557.557,0,0,0,.131-.4,12.844,12.844,0,0,1,.17-4.228,15.406,15.406,0,0,1,2.692,3.831c-.026,0-.051.015-.076.02a.552.552,0,0,0-.321.833.556.556,0,0,0,.607.236c1.251-.331,4.4-1.014,6.643-.135a.566.566,0,0,0,.442-.015.546.546,0,0,0,.286-.332c.246-.8,1.055-2.595,1.848-2.681,1.431-.15,2.937.281,3.163.909a12.243,12.243,0,0,1,.161,3.183,5.894,5.894,0,0,1-.457,2.43,1.7,1.7,0,0,1-1.12-.632l-1.868-2.932a.561.561,0,0,0-.763-.166.55.55,0,0,0-.165.763l1.852,2.9a2.73,2.73,0,0,0,1.948,1.17.954.954,0,0,0,.171.015.976.976,0,0,0,.748-.366c.979-1.15.909-5.694.537-6.744m-3.424,10.474a.58.58,0,0,0-.231.352.54.54,0,0,0,.091.411,3.853,3.853,0,0,1,.713,3.49,1.058,1.058,0,0,1-.844.351.947.947,0,0,1-.432-.195,5.552,5.552,0,0,0-.592-.688.545.545,0,0,0-.718-.051.56.56,0,0,0-.151.708,3.3,3.3,0,0,0,.643.779,1.554,1.554,0,0,1,.236,1.7c-1.7.125-2.973-1.672-2.983-1.687a.558.558,0,0,0-.662-.2.551.551,0,0,0-.332.607c.271,1.492-.06,2.054-.216,2.225-1.22-.186-2.525-2.2-3.078-3.455a.553.553,0,0,0-.477-.331.537.537,0,0,0-.507.286,15.229,15.229,0,0,1-2.47,3.239,1.419,1.419,0,0,1-.151.13,3.307,3.307,0,0,1,.056-.6c0-.025,0-.051.01-.081.2-4.7,1.491-5.729,1.526-5.759a3.813,3.813,0,0,0,.813,1.893.921.921,0,0,0,.643.281.657.657,0,0,0,.1-.005c.813-.1,1.948-1.616,2.138-2.6a1.515,1.515,0,0,0-1.129-1.748,3.629,3.629,0,0,0-1.18-.11,16.707,16.707,0,0,1,2.385-2.576.546.546,0,0,0,.05-.773.553.553,0,0,0-.382-.186.544.544,0,0,0-.4.136c-.507.446-3.038,2.756-3.148,4.132a5.269,5.269,0,0,0-.01.567.538.538,0,0,0-.437.045c-.307.176-1.838,1.311-2.069,6.623-.105.567-.181,1.556.437,1.9a.832.832,0,0,0,.4.1,1.824,1.824,0,0,0,1.1-.567,14.841,14.841,0,0,0,2.159-2.651c.728,1.305,2.079,3.2,3.776,3.218h.01a.5.5,0,0,0,.206-.04c.166-.065.934-.452,1.044-1.918a3.975,3.975,0,0,0,3.183.959.558.558,0,0,0,.3-.16,2.362,2.362,0,0,0,.5-2.049,2.322,2.322,0,0,0,1.511-.743.611.611,0,0,0,.111-.156,4.788,4.788,0,0,0-.764-4.674.577.577,0,0,0-.778-.136m-9.59.191a1.962,1.962,0,0,1,1.316-.055.418.418,0,0,1,.316.472,3.414,3.414,0,0,1-1.115,1.662,4.906,4.906,0,0,1-.517-2.079m-1.235-2.862a.33.33,0,0,0,.07.005.532.532,0,0,0,.412-.246,1.424,1.424,0,0,0,.241-.587,1.4,1.4,0,0,0-.015-.633.449.449,0,0,0-.849-.156,1.449,1.449,0,0,0-.241.583,1.476,1.476,0,0,0,.015.632.5.5,0,0,0,.367.4m7.431,0a.33.33,0,0,0,.07.005.531.531,0,0,0,.412-.246,1.424,1.424,0,0,0,.241-.587,1.481,1.481,0,0,0-.015-.633.5.5,0,0,0-.367-.4c-.311-.06-.622.3-.723.824s.066.974.382,1.034" fill="#51bcc7"/>
      <path id="Path_5262" data-name="Path 5262" d="M20.265,0V24.5h-4.8L4.725,7.49V24.5H0V0H4.8L15.54,17.01V0Z" fill="#51bcc7"/>
      <path id="Path_5263" data-name="Path 5263" d="M32.76,24.745a9.251,9.251,0,0,1-4.551-1.1,7.955,7.955,0,0,1-3.131-3.115,9.474,9.474,0,0,1-1.138-4.743,9.417,9.417,0,0,1,1.172-4.794,8.1,8.1,0,0,1,3.2-3.133,9.934,9.934,0,0,1,9.1,0,8.261,8.261,0,0,1,3.221,3.115,9.149,9.149,0,0,1,1.19,4.742,9.21,9.21,0,0,1-1.207,4.8,8.32,8.32,0,0,1-3.256,3.133,9.553,9.553,0,0,1-4.6,1.1m-.035-4.025A4.164,4.164,0,0,0,36.4,18.532a5.621,5.621,0,0,0,.63-2.817,5.735,5.735,0,0,0-.595-2.747,4.016,4.016,0,0,0-1.558-1.645,4.169,4.169,0,0,0-2.083-.542,3.9,3.9,0,0,0-2.011.542,3.862,3.862,0,0,0-1.489,1.645,6.211,6.211,0,0,0-.559,2.817,6.187,6.187,0,0,0,.542,2.747,3.713,3.713,0,0,0,3.448,2.188" fill="#51bcc7"/>
      <path id="Path_5264" data-name="Path 5264" d="M48.439,18.8a2.525,2.525,0,0,0,.718,1.33,2.961,2.961,0,0,0,1.155.648,4.6,4.6,0,0,0,1.313.192,3.393,3.393,0,0,0,1.924-.473,1.409,1.409,0,0,0,.7-1.207,1.184,1.184,0,0,0-.491-1,3.747,3.747,0,0,0-1.242-.577q-.753-.21-1.593-.385-.945-.245-2.012-.543a8.236,8.236,0,0,1-2.013-.857,4.885,4.885,0,0,1-1.557-1.452,3.9,3.9,0,0,1-.613-2.258A4.736,4.736,0,0,1,45.6,9.362a5.89,5.89,0,0,1,2.468-1.907,9.1,9.1,0,0,1,3.692-.7,7.911,7.911,0,0,1,4.2,1.05,5.994,5.994,0,0,1,2.486,3.011l-3.92,1.119a1.955,1.955,0,0,0-.631-.805,2.7,2.7,0,0,0-1-.455,4.979,4.979,0,0,0-1.173-.14,3.2,3.2,0,0,0-1.68.4,1.235,1.235,0,0,0-.665,1.1.963.963,0,0,0,.245.683,1.86,1.86,0,0,0,.683.437,7.4,7.4,0,0,0,1.015.315c.384.093.81.2,1.277.315q1.086.281,2.188.648a10.087,10.087,0,0,1,2.03.927,4.271,4.271,0,0,1,1.487,1.505,5.119,5.119,0,0,1,.63,2.38,4.719,4.719,0,0,1-.875,2.782,5.955,5.955,0,0,1-2.52,1.978,9.744,9.744,0,0,1-3.99.735,8.794,8.794,0,0,1-4.637-1.155,5.518,5.518,0,0,1-2.5-3.6Z" fill="#51bcc7"/>
      <path id="Path_5265" data-name="Path 5265" d="M70.314,24.745a9.25,9.25,0,0,1-4.55-1.1,7.957,7.957,0,0,1-3.132-3.115,9.474,9.474,0,0,1-1.138-4.743,9.408,9.408,0,0,1,1.173-4.794,8.092,8.092,0,0,1,3.2-3.133,9.936,9.936,0,0,1,9.1,0,8.265,8.265,0,0,1,3.22,3.115,9.149,9.149,0,0,1,1.191,4.742,9.211,9.211,0,0,1-1.208,4.8,8.311,8.311,0,0,1-3.255,3.133,9.557,9.557,0,0,1-4.6,1.1m-.035-4.025a4.161,4.161,0,0,0,3.675-2.188,5.621,5.621,0,0,0,.63-2.817,5.735,5.735,0,0,0-.6-2.747,4.016,4.016,0,0,0-1.558-1.645,4.165,4.165,0,0,0-2.082-.542,3.911,3.911,0,0,0-2.012.542,3.867,3.867,0,0,0-1.488,1.645,6.2,6.2,0,0,0-.56,2.817,6.173,6.173,0,0,0,.543,2.747,3.788,3.788,0,0,0,1.452,1.646,3.827,3.827,0,0,0,2,.542" fill="#51bcc7"/>
      <path id="Path_5266" data-name="Path 5266" d="M83.684,7V2.1H88.2V7h3.885v3.955H88.2v7.1a2.566,2.566,0,0,0,.6,1.925,2.222,2.222,0,0,0,1.488.595,9.38,9.38,0,0,0,1.8-.1v3.85a10.28,10.28,0,0,1-3.132.21,6.592,6.592,0,0,1-2.713-.822,4.681,4.681,0,0,1-1.872-2.083,8.146,8.146,0,0,1-.683-3.57v-7.1H81.2V7Z" fill="#51bcc7"/>
      <path id="Path_5267" data-name="Path 5267" d="M95.269,7h4.06l.315,2.24a6.675,6.675,0,0,1,1.662-1.487,6.164,6.164,0,0,1,2.048-.806A5.513,5.513,0,0,1,105.7,7v4.2a4.338,4.338,0,0,0-1.978-.175,4.415,4.415,0,0,0-3.394,2.432,5.952,5.952,0,0,0-.579,2.783V24.5H95.269Z" fill="#51bcc7"/>
      <path id="Path_5268" data-name="Path 5268" d="M131.843,18.8a2.512,2.512,0,0,0,.718,1.33,2.964,2.964,0,0,0,1.154.648,4.6,4.6,0,0,0,1.313.192,3.4,3.4,0,0,0,1.925-.473,1.411,1.411,0,0,0,.7-1.207,1.184,1.184,0,0,0-.49-1,3.743,3.743,0,0,0-1.243-.577q-.753-.21-1.592-.385-.946-.245-2.012-.543a8.22,8.22,0,0,1-2.013-.857,4.9,4.9,0,0,1-1.558-1.452,3.906,3.906,0,0,1-.612-2.258,4.729,4.729,0,0,1,.875-2.853,5.884,5.884,0,0,1,2.468-1.907,9.094,9.094,0,0,1,3.692-.7,7.911,7.911,0,0,1,4.2,1.05,5.992,5.992,0,0,1,2.485,3.011l-3.92,1.119a1.944,1.944,0,0,0-.63-.805,2.71,2.71,0,0,0-1-.455,4.985,4.985,0,0,0-1.173-.14,3.2,3.2,0,0,0-1.68.4,1.233,1.233,0,0,0-.665,1.1.962.962,0,0,0,.244.683,1.86,1.86,0,0,0,.683.437,7.415,7.415,0,0,0,1.016.315c.384.093.81.2,1.277.315q1.085.281,2.188.648a10.112,10.112,0,0,1,2.03.927,4.287,4.287,0,0,1,1.487,1.505,5.119,5.119,0,0,1,.63,2.38,4.719,4.719,0,0,1-.875,2.782,5.965,5.965,0,0,1-2.521,1.978,9.742,9.742,0,0,1-3.989.735,8.792,8.792,0,0,1-4.637-1.155,5.516,5.516,0,0,1-2.5-3.6Z" fill="#51bcc7"/>
      <path id="Path_5269" data-name="Path 5269" d="M148.329,24.745a2.867,2.867,0,0,1-2.118-.822,2.7,2.7,0,0,1-.822-1.978,2.737,2.737,0,0,1,.822-2.012,2.867,2.867,0,0,1,2.118-.823,2.824,2.824,0,0,1,2.082.823,2.737,2.737,0,0,1,.822,2.012,2.7,2.7,0,0,1-.822,1.978,2.823,2.823,0,0,1-2.082.822" fill="#040504"/>
    </g>
  </g>
</svg>
