<svg xmlns="http://www.w3.org/2000/svg" width="34.874" height="40.646" viewBox="0 0 34.874 40.646">
  <g id="sin_sombraCafe_con_logo" data-name="sin sombraCafe con logo" transform="translate(-71.99 -42.728)">
    <path id="Path_5347" data-name="Path 5347" d="M106.621,75.756c-.186-2.265-.461-4.511-.775-6.757s-.686-4.472-1.1-6.689c-.382-2.03-.8-4.05-1.285-6.061-.363-1.52-.755-3.03-1.226-4.511.059-.01.118-.01.167-.02a1.174,1.174,0,0,0,.794-.5,1.463,1.463,0,0,0,.088-1.167c-.51-2.148-1.236-4.619-3.334-5.737a6.45,6.45,0,0,0-1.481-.51c-.706-.177-1.432-.294-2.158-.4-2.04-.294-4.1-.461-6.159-.559q-3.6-.177-7.228-.078c-1.206.039-2.4.1-3.609.186-.588.049-1.167.1-1.755.157a2.774,2.774,0,0,0-.981.2,1.306,1.306,0,0,0-.6.618,1.456,1.456,0,0,0-.118.4,85.306,85.306,0,0,0-1.922,9.4c-.5,3.207-.863,6.434-1.157,9.66q-.382,4.3-.569,8.591c-.1,2.109-.167,4.207-.2,6.316-.01.922-.049,1.854-.02,2.775V81.1a.483.483,0,0,0,.363.471A45.846,45.846,0,0,0,78.1,82.886c1.04.177,2.079.333,3.128.451a17.475,17.475,0,0,0,1.755.029c.579,0,1.206-.01,1.8-.02,2.422-.029,4.855-.108,7.277-.216,2.354-.1,4.707-.235,7.061-.382,2.167-.137,4.325-.3,6.492-.481l.745-.059a.5.5,0,0,0,.49-.49,57.718,57.718,0,0,0-.235-5.963Zm-4.256-25.048c0-.01.01-.01.01-.02h.01Zm.02-.029Zm0,.01Zm-1.628-4.433ZM77.1,44.147a.043.043,0,0,1-.029.01C77.081,44.157,77.091,44.147,77.1,44.147Zm-.226.226v-.01q.01-.029.01-.02c.01-.02.01-.029.02-.029a.009.009,0,0,1,.01-.01l-.01.01.02-.02c.02-.029.01-.02.01-.01a.169.169,0,0,0,.029-.039c.01-.01.02-.01.02-.02h0c.01-.01.02-.01.02-.02s.029-.02.049-.029h.01l.1-.029c.01,0,.02-.01.029-.01a.333.333,0,0,0,.1-.01l.814-.088c1.157-.108,2.324-.186,3.482-.245q3.56-.162,7.11-.039c2.089.069,4.178.2,6.257.441.216.029.432.049.647.078.029,0,.059.01.088.01a.107.107,0,0,1,.049.01h-.02c-.088-.01.01,0,.02,0,.029,0,.059.01.088.01.108.01.206.029.314.049.382.059.755.118,1.128.186A13.556,13.556,0,0,1,99,44.961c.1.029.2.069.294.108.01.01.029.01.039.02l.118.059a2.7,2.7,0,0,1,.284.167l.177.118c.029.02.049.039.078.059a.01.01,0,0,1,.01.01c.01,0,.01.01.02.02a5.017,5.017,0,0,1,.569.549c.039.049.078.088.118.137.02.02.029.039.049.059l.01.01c.088.118.167.235.245.363a7.718,7.718,0,0,1,.382.687c.059.118.108.235.167.353v.01c.01.039.029.069.039.108a1.4,1.4,0,0,1,.078.216c.1.245.177.5.255.755.157.51.284,1.02.4,1.53.01.039.02.088.029.127a.347.347,0,0,1,.01.059.348.348,0,0,0,.01.069c0,.01-.01.078,0,.088a.036.036,0,0,1-.01.029l-.02.02c-.01,0-.01.01-.02.01s-.039.02-.049.02h-.01a.348.348,0,0,1-.1.02c-.01,0-.02.01-.029.01h-.127a1.736,1.736,0,0,1-.226-.01c-.039,0-.069-.01-.108-.01h-.029c-.039-.01-.078-.01-.118-.02s-.078-.01-.127-.02l-.637-.088c-.363-.049-.726-.088-1.089-.137-1.461-.167-2.923-.275-4.394-.333a60.321,60.321,0,0,0-8.826.3c-.755.078-1.51.177-2.265.284-.353.049-.706.108-1.059.167-.157.029-.314.049-.471.069h-.01c-.039.01-.088.01-.128.02a2.4,2.4,0,0,1-.265.02c-.147.01-.284.01-.432.01-.059,0-.118-.01-.167-.01-.02,0-.059-.01-.069-.01l-.118-.029a1.829,1.829,0,0,1-.216-.069.074.074,0,0,1-.039-.02c-.029-.01-.059-.029-.088-.039a1.451,1.451,0,0,1-.127-.078.172.172,0,0,1-.049-.039,2.118,2.118,0,0,1-.245-.265.214.214,0,0,0-.039-.049c-.039-.059-.088-.118-.127-.177-.108-.157-.226-.314-.333-.481-.412-.608-.814-1.216-1.216-1.834.471-.677.941-1.344,1.422-2.02a.365.365,0,0,0-.628-.373c-.4.579-.814,1.147-1.216,1.726-.177-.275-.353-.549-.53-.814.314-.412.637-.824.951-1.236a.362.362,0,0,0,.039-.284.338.338,0,0,0-.167-.216.362.362,0,0,0-.284-.039.406.406,0,0,0-.216.167c-.245.324-.49.637-.736.961-.108-.157-.206-.324-.314-.481s-.2-.3-.3-.461c-.039-.069-.088-.137-.127-.206l-.02-.039c-.01-.02-.01-.039-.02-.059v-.01q0,.01-.01-.029v-.02h0V44.4a.425.425,0,0,1,.01-.049.01.01,0,0,0-.01.01c.02.029.029.02.029.01Zm5.855,6.61ZM79.16,49.9c.2.3.4.6.608.892a4.26,4.26,0,0,0,.461.579,2.283,2.283,0,0,0,.343.265,2.327,2.327,0,0,0,.912.333q.279,2.766.422,5.531c.118,2.128.186,4.266.216,6.394q.044,3.222-.029,6.443-.074,3.119-.275,6.237c-.118,1.785-.275,3.56-.481,5.335-.932-1.834-1.854-3.688-2.7-5.561-.284-.637-.569-1.275-.824-1.9.078-1.569.147-3.148.206-4.727.069-1.648.127-3.285.186-4.933.069-1.687.137-3.374.226-5.061.088-1.726.2-3.442.324-5.159.108-1.559.235-3.109.4-4.668Zm-2.285-5.286a.01.01,0,0,0-.01-.01A.009.009,0,0,1,76.875,44.618ZM73.021,78.855c.02-1.971.078-3.952.157-5.924q.177-4.178.51-8.346c.265-3.168.608-6.375,1.049-9.484s1.01-6.208,1.765-9.258c.343.53.687,1.049,1.03,1.579.324.5.657,1.01.981,1.51-.177,1.657-.333,3.315-.461,4.972-.137,1.726-.245,3.452-.333,5.178-.088,1.687-.167,3.383-.235,5.07-.069,1.648-.127,3.3-.2,4.943-.059,1.6-.128,3.207-.206,4.806-.01.157-.02.324-.02.481-.618.981-1.255,1.952-1.932,2.9-.157.216-.3.422-.461.637-.069.1-.147.2-.216.294l-.108.137a.028.028,0,0,0-.01.02,1.043,1.043,0,0,1-.088.108c-.294.373-.6.745-.9,1.118-.108.137-.226.265-.333.392C73.011,79.61,73.011,79.238,73.021,78.855Zm6.12,3.227a49.686,49.686,0,0,1-5.875-1.265A45.844,45.844,0,0,0,76.6,76.482c.265-.392.52-.785.775-1.187.892,2.089,1.883,4.129,2.9,6.159.147.284.284.569.432.853-.029,0-.069-.01-.1-.01C80.131,82.229,79.631,82.16,79.141,82.082Zm20.889-.363q-3.486.235-6.973.4c-2.422.108-4.845.2-7.267.235-1.177.02-2.354.029-3.531.039.206-1.687.363-3.374.481-5.07q.221-3.089.3-6.179c.059-2.148.078-4.286.059-6.434-.01-1.412-.049-2.815-.1-4.227a18.908,18.908,0,0,0,2.285-1.422.378.378,0,0,0,.127-.5.367.367,0,0,0-.5-.127,18.077,18.077,0,0,1-1.942,1.236c-.02-.4-.029-.814-.049-1.216a15.933,15.933,0,0,0,3.05-2.511.368.368,0,0,0-.52-.52A15.036,15.036,0,0,1,82.887,57.6c-.02-.363-.039-.736-.059-1.1a5.917,5.917,0,0,0,1.393-1.069.368.368,0,0,0-.52-.52c-.1.1-.2.2-.294.284-.049.049-.108.088-.157.137a.56.56,0,0,0-.078.069c-.01.01-.02.02-.029.02-.118.088-.245.177-.363.255-.078-1.147-.167-2.285-.275-3.423-.01-.078-.02-.167-.029-.245h.01c.726-.069,1.442-.216,2.167-.314.1-.01.206-.029.3-.039.02,0,.049-.01.069-.01l.1-.01c.186-.029.373-.049.559-.069.382-.049.765-.088,1.147-.127.755-.078,1.51-.137,2.275-.186,1.5-.1,3-.137,4.5-.127,1.52.02,3.04.088,4.551.216q1.118.1,2.236.235c.177.02.353.049.53.069h.049c.049.01.1.01.157.02.02,0,.039.01.069.01.461,1.373.824,2.766,1.177,4.168.481,1.952.9,3.923,1.285,5.9.422,2.207.8,4.423,1.128,6.649.324,2.187.6,4.394.8,6.63.186,2.01.314,4.021.324,6.041v.235C103.943,81.434,101.992,81.591,100.03,81.719Z" transform="translate(0)"/>
    <path id="Path_5348" data-name="Path 5348" d="M122.21,58.56l-.01.01a.01.01,0,0,0,.01-.01Z" transform="translate(-45.285 -14.275)"/>
    <path id="Path_5349" data-name="Path 5349" d="M121.91,59.2c0,.01-.01.02-.01.029v.01C121.9,59.229,121.91,59.21,121.91,59.2Z" transform="translate(-45.015 -14.856)"/>
    <path id="Path_5350" data-name="Path 5350" d="M121.6,60.9v.02a.036.036,0,0,0,.01.029A.073.073,0,0,0,121.6,60.9Z" transform="translate(-44.744 -16.39)"/>
    <path id="Path_5351" data-name="Path 5351" d="M88.469,345.846a.386.386,0,0,0,.373-.373c.039-.5.069-1,.108-1.5a.379.379,0,0,0-.373-.373.386.386,0,0,0-.373.373c-.039.5-.069,1-.108,1.5A.379.379,0,0,0,88.469,345.846Z" transform="translate(-14.526 -271.365)"/>
    <path id="Path_5352" data-name="Path 5352" d="M189.065,405.7a.379.379,0,0,0-.373.373c-.01.294-.029.588-.049.873-.01.137-.029.284-.049.422,0,.039-.01.069-.01.108v.039a2.125,2.125,0,0,1-.039.245.38.38,0,0,0,.255.451.367.367,0,0,0,.451-.255,15.274,15.274,0,0,0,.177-1.883A.371.371,0,0,0,189.065,405.7Z" transform="translate(-105.119 -327.371)"/>
    <path id="Path_5353" data-name="Path 5353" d="M346.664,73.5a3.7,3.7,0,0,1,.4.687.364.364,0,0,0,.216.167.409.409,0,0,0,.284-.039.365.365,0,0,0,.167-.216.417.417,0,0,0-.039-.284,3.716,3.716,0,0,0-.755-1.1.368.368,0,1,0-.52.52A3.132,3.132,0,0,1,346.664,73.5Z" transform="translate(-247.419 -26.953)"/>
    <g id="Group_332" data-name="Group 332" transform="translate(86.389 58.676)">
      <path id="Path_5354" data-name="Path 5354" d="M336.3,233.514h0a.237.237,0,0,1-.057-.064C336.24,233.463,336.255,233.475,336.3,233.514Z" transform="translate(-324.724 -230.693)"/>
      <path id="Path_5355" data-name="Path 5355" d="M234.181,209.052a2.123,2.123,0,0,0-1.338-.991,5.958,5.958,0,0,0-1.776-.291c-1.029,0-1.64,1.145-1.9,1.758a13.71,13.71,0,0,0-4.93-.3s0,0,0-.008c-1.25-1.733-3.03-3.865-4.217-3.881-1.076-.01-1.446,1.383-1.059,4.159a.629.629,0,0,0,.629.434l.05,0a.666.666,0,0,0,.413-.131.335.335,0,0,0,.133-.309,6.985,6.985,0,0,1,.083-3.264,15.121,15.121,0,0,1,2.892,3.125c-.025,0-.049.009-.075.011a.462.462,0,0,0-.363.229.342.342,0,0,0,.066.382.7.7,0,0,0,.614.2c1.2-.189,4.027-.528,5.927.172a.526.526,0,0,0,.353.006.337.337,0,0,0,.213-.211c.159-.524.707-1.656,1.3-1.662,1.039-.008,2.114.348,2.3.747a7.244,7.244,0,0,1,.259,1.985,3.284,3.284,0,0,1-.2,1.526,1.341,1.341,0,0,1-.818-.41l-1.5-1.939a.5.5,0,0,0-.586-.136.315.315,0,0,0-.171.22.347.347,0,0,0,.076.279l1.523,1.937a2.142,2.142,0,0,0,1.448.751.682.682,0,0,0,.12.008.647.647,0,0,0,.5-.237h0c.6-.718.335-3.509.039-4.164h0Zm-1.908,6.646a.378.378,0,0,0-.155.244.34.34,0,0,0,.086.272,2.41,2.41,0,0,1,.689,2.3.863.863,0,0,1-.607.309.716.716,0,0,1-.334-.1,3.75,3.75,0,0,0-.484-.425.465.465,0,0,0-.562.023.372.372,0,0,0-.087.508,2.2,2.2,0,0,0,.539.485.985.985,0,0,1,.262,1.165,3.017,3.017,0,0,1-2.487-.883.511.511,0,0,0-.574-.078.43.43,0,0,0-.262.483c.3,1.074.032,1.537-.1,1.686-1.1.03-2.4-1.348-2.974-2.259a.515.515,0,0,0-.477-.208.614.614,0,0,0-.492.28,15.1,15.1,0,0,1-2.479,2.978,1.843,1.843,0,0,1-.162.135,2.3,2.3,0,0,1,.043-.511c0-.022,0-.043.009-.069.083-3.91,1.41-4.838,1.446-4.864A2.6,2.6,0,0,0,224,218.6a1.009,1.009,0,0,0,.647.159.719.719,0,0,0,.1-.014,3.325,3.325,0,0,0,1.924-2.144,1.156,1.156,0,0,0-1.109-1.248,4.373,4.373,0,0,0-1.135-.036,13.706,13.706,0,0,1,2.145-1.974.353.353,0,0,0,.153-.274.37.37,0,0,0-.136-.286.585.585,0,0,0-.351-.135.562.562,0,0,0-.358.1c-.454.329-2.851,2.127-2.922,3.209a3.27,3.27,0,0,0,.007.447.715.715,0,0,0-.451.062c-.317.159-1.947,1.195-2.069,5.687-.106.5-.167,1.37.545,1.549a1.131,1.131,0,0,0,.446.01,2.593,2.593,0,0,0,1.18-.68,15.357,15.357,0,0,0,2.127-2.473c.757.93,2.107,2.2,3.638,1.953l.009,0a.567.567,0,0,0,.178-.061,1.719,1.719,0,0,0,.813-1.563,3.31,3.31,0,0,0,2.6.3.493.493,0,0,0,.222-.148,1.647,1.647,0,0,0,.277-1.467,1.87,1.87,0,0,0,1.067-.639.424.424,0,0,0,.072-.113,3.015,3.015,0,0,0-.772-3.051.456.456,0,0,0-.576-.059h0Zm-8.2.6a2.4,2.4,0,0,1,1.275-.115c.206.03.346.181.316.339a2.8,2.8,0,0,1-1.011,1.35,3.106,3.106,0,0,1-.58-1.575h0Zm-1.338-2.175a.446.446,0,0,0,.073,0,.584.584,0,0,0,.412-.2.936.936,0,0,0,.224-.455.829.829,0,0,0-.035-.484.482.482,0,0,0-.382-.3.56.56,0,0,0-.484.185.944.944,0,0,0-.232.453.874.874,0,0,0,.034.494.471.471,0,0,0,.39.307h0Zm6.791-.137a.281.281,0,0,0,.057,0,.428.428,0,0,0,.322-.176.86.86,0,0,0,.167-.405.869.869,0,0,0-.039-.432.409.409,0,0,0-.31-.271c-.253-.042-.492.2-.552.568s.094.676.355.712h0Z" transform="translate(-218.811 -205.339)" fill="#050505"/>
    </g>
  </g>
</svg>
