<svg xmlns="http://www.w3.org/2000/svg" width="643.048" height="817.799" viewBox="0 0 643.048 817.799">
  <path id="Sello_Logo" data-name="Sello Logo" d="M1100.371,457.368c-8.458-23.754-31.672-41.569-66.943-51.467-26.453-7.378-59.2-10.077-87.818-7.018-48.768,5.219-80.08,70.722-93.216,104.553-66.943-19.975-146.843-10.8-200.829,0,0-.18-.18-.18-.18-.36-43.369-80.08-103.474-174.2-143.6-168.257-35.091,5.4-48.048,71.082-38.15,195.25a19.771,19.771,0,0,0,19.615,18.175h1.62a19.718,19.718,0,0,0,13.5-6.838,19.922,19.922,0,0,0,4.679-14.4c-6.118-76.3-.54-137.125,6.118-151.521,14.4,9.358,55.066,62.624,96.455,137.305-.9.18-1.8.54-2.7.72A19.57,19.57,0,0,0,595.6,525.39a19.873,19.873,0,0,0,23.574,26.453c44.809-11.877,157.82-36.351,238.079-4.859a20.2,20.2,0,0,0,15.836-.54,19.678,19.678,0,0,0,10.257-11.877c8.818-28.793,37.79-93.036,66.223-96.1,51.287-5.4,105.273,10.077,113.371,32.572,4.859,13.677,8.458,63.884,5.759,114.091-3.059,57.225-12.417,80.979-16.376,87.1-30.052-6.478-39.59-21.954-40.13-22.674L945.25,544.466a20.119,20.119,0,0,0-27.353-5.938,19.768,19.768,0,0,0-5.938,27.353l66.4,103.834c.72,1.26,17.815,32.212,69.822,41.929a33.652,33.652,0,0,0,6.118.54c7.018,0,17.456-2.339,26.813-13.137h0c35.091-41.209,32.572-204.068,19.255-241.678ZM977.642,832.752a20.671,20.671,0,0,0-8.278,12.6,19.5,19.5,0,0,0,3.239,14.756c43.549,63.164,30.052,112.831,25.553,125.068-10.8,9.718-20.875,14.036-30.232,12.6-5.039-.72-10.257-3.059-15.476-7.018A201.4,201.4,0,0,0,931.214,966.1a19.514,19.514,0,0,0-25.733-1.8,20.036,20.036,0,0,0-5.4,25.373,118.186,118.186,0,0,0,23.034,27.893c20.515,30.592,13.856,51.647,8.458,61-61,4.5-106.533-59.925-106.893-60.465a20.089,20.089,0,0,0-23.754-7.2,19.752,19.752,0,0,0-11.877,21.774c9.718,53.447-2.159,73.6-7.738,79.72-43.729-6.658-90.517-78.82-110.312-123.808a19.792,19.792,0,0,0-17.1-11.877,19.214,19.214,0,0,0-18.175,10.257c-.36.72-39.77,71.082-88.537,116.07a54.932,54.932,0,0,1-5.4,4.679,121.28,121.28,0,0,1,1.979-21.415c.18-.9.18-1.8.36-2.879,7.2-168.617,53.446-205.328,54.706-206.407,5.4,28.073,15.656,54.886,29.153,67.843,8.638,8.278,17.276,10.077,23.034,10.077a22.946,22.946,0,0,0,3.6-.18c29.153-3.6,69.822-57.945,76.66-93.216,5.4-28.073-12.417-55.606-40.49-62.624a129.452,129.452,0,0,0-42.289-3.959c19.975-28.973,56.686-66.763,85.478-92.316a19.594,19.594,0,0,0,1.8-27.713,19.922,19.922,0,0,0-13.677-6.658,19.634,19.634,0,0,0-14.216,4.859c-18.175,16.016-108.872,98.795-112.831,148.1a188.262,188.262,0,0,0-.36,20.335,19.216,19.216,0,0,0-15.656,1.62c-10.977,6.3-65.863,46.968-74.141,237.36-3.779,20.335-6.478,55.786,15.656,68.2a29.783,29.783,0,0,0,14.216,3.6c17.456,0,33.291-14.756,39.41-20.335,32.752-30.412,60.825-69.642,77.38-95.016,26.093,46.788,74.5,114.631,135.326,115.351h.36a17.967,17.967,0,0,0,7.378-1.44c5.938-2.339,33.471-16.2,37.431-68.742,27.173,21.954,66.583,42.469,114.091,34.371a19.884,19.884,0,0,0,10.8-5.759c1.26-1.26,27.173-29.512,17.816-73.421,18.535-.72,36.711-9.718,54.166-26.633a20.858,20.858,0,0,0,3.959-5.578c1.44-3.059,35.631-75.941-27.353-167.537-6.658-8.638-18.9-10.977-27.893-4.859ZM633.93,839.59c15.3-8.1,35.811-4.859,47.148-1.979,7.738,1.979,12.777,9.538,11.337,16.916-4.5,23.754-28.973,51.647-39.95,59.565-6.478-9.718-17.636-42.109-18.535-74.5ZM589.661,737.016a11.883,11.883,0,0,0,2.519.18c5.219,0,10.437-3.059,14.756-8.818,4.139-5.4,7.018-12.777,8.638-21.055a50.038,50.038,0,0,0-.54-22.674c-2.339-8.1-7.018-12.957-13.137-14.216-6.118-1.08-12.237,1.979-17.276,8.638-4.139,5.4-7.018,12.777-8.638,20.875-1.44,8.1-1.26,16.2.54,22.674,2.339,8.278,7.018,13.317,13.136,14.4Zm266.332,0a11.883,11.883,0,0,0,2.519.18c5.219,0,10.437-3.059,14.756-8.818a50.908,50.908,0,0,0,8.638-21.055c1.44-8.1,1.26-16.2-.54-22.674-2.339-8.1-7.018-12.957-13.137-14.216-11.157-2.159-22.314,10.617-25.913,29.513-3.6,19.255,2.339,34.911,13.677,37.071Z" transform="translate(-466.41 -334.551)" fill="#40e55d"/>
</svg>
