<svg xmlns="http://www.w3.org/2000/svg" width="28.051" height="25.359" viewBox="0 0 28.051 25.359">
  <path id="Path_5194" data-name="Path 5194" d="M1133.534,2821.308a14.647,14.647,0,0,0-9.875-3.686c-7.691,0-13.958,5.639-13.965,12.562a11.651,11.651,0,0,0,1.861,6.285l-1.974,6.512,7.4-1.746a15.206,15.206,0,0,0,6.674,1.529h.007c7.693,0,13.959-5.639,13.966-12.569a11.923,11.923,0,0,0-4.1-8.887Zm-9.875,19.329a12.563,12.563,0,0,1-5.91-1.458l-.423-.228-4.392,1.036,1.173-3.856-.275-.4a9.641,9.641,0,0,1-1.773-5.555c0-5.747,5.207-10.435,11.607-10.435a12.234,12.234,0,0,1,8.207,3.06,9.9,9.9,0,0,1,3.4,7.386C1135.261,2835.957,1130.054,2840.637,1123.659,2840.637Zm6.367-7.82c-.347-.157-2.061-.916-2.383-1.024s-.555-.157-.784.157-.9,1.024-1.1,1.228-.409.235-.757.08a9.234,9.234,0,0,1-4.747-3.736c-.2-.314-.019-.482.155-.639.154-.139.347-.368.522-.548a1.97,1.97,0,0,0,.348-.523.533.533,0,0,0-.026-.55c-.088-.157-.784-1.706-1.078-2.33s-.569-.531-.784-.539c-.2-.011-.434-.011-.669-.011a1.347,1.347,0,0,0-.931.391,3.382,3.382,0,0,0-1.217,2.622,5.787,5.787,0,0,0,1.426,3.247,14.993,14.993,0,0,0,5.958,4.743c.828.324,1.479.516,1.988.662a5.305,5.305,0,0,0,2.195.127,3.632,3.632,0,0,0,2.356-1.5,2.382,2.382,0,0,0,.2-1.494C1130.609,2833.052,1130.374,2832.974,1130.026,2832.817Z" transform="translate(-1109.581 -2817.622)" fill="#fff"/>
</svg>
