<svg xmlns="http://www.w3.org/2000/svg" width="190.638" height="166.211" viewBox="0 0 190.638 166.211">
  <g id="Group_241" data-name="Group 241" transform="translate(461.795 -4854.5)">
    <g id="Sello_Logo" data-name="Sello Logo" transform="translate(-461.795 4854.5)">
      <rect id="Rectangle_132" data-name="Rectangle 132" width="190.638" height="166.211" transform="translate(0 0)" fill="none"/>
      <g id="Group_198" data-name="Group 198" transform="translate(11.66 45.863)">
        <g id="Group_195" data-name="Group 195" transform="translate(57.247 16.743)">
          <path id="Path_5125" data-name="Path 5125" d="M486.46,483.934h-2.849a7.03,7.03,0,1,1,0-14.06h5.719v-6.916a8.452,8.452,0,0,1-12.751-7.281V444.73h4.161v10.948a4.295,4.295,0,0,0,8.59,0V444.73h4.161v25.146h20.715v4.161H493.491v2.869a7.038,7.038,0,0,1-7.03,7.03Zm-2.849-9.9a2.869,2.869,0,1,0,0,5.738h2.849a2.873,2.873,0,0,0,2.869-2.869v-2.869H483.61Z" transform="translate(-476.58 -444.382)" fill="#fff"/>
          <path id="Path_5126" data-name="Path 5126" d="M779.223,464.125H767.58V444.72h4.161v15.243h7.482Z" transform="translate(-726.044 -444.373)" fill="#fff"/>
          <path id="Path_5127" data-name="Path 5127" d="M875.553,464.125H863.91V444.72h4.162v15.243h7.481Z" transform="translate(-808.624 -444.373)" fill="#fff"/>
          <path id="Path_5128" data-name="Path 5128" d="M969.815,466.6a9.565,9.565,0,1,1,9.565-9.565A9.576,9.576,0,0,1,969.815,466.6Zm0-14.969a5.4,5.4,0,1,0,5.4,5.4A5.409,5.409,0,0,0,969.815,451.631Z" transform="translate(-891.212 -446.731)" fill="#fff"/>
          <path id="Path_5129" data-name="Path 5129" d="M1117.81,464.242a6.868,6.868,0,0,1-6.86-6.86V444.72h4.161v12.662a2.7,2.7,0,1,0,5.4,0v-7.716h4.161v7.716A6.868,6.868,0,0,1,1117.81,464.242Z" transform="translate(-1020.402 -444.373)" fill="#fff"/>
          <path id="Path_5130" data-name="Path 5130" d="M1184.81,464.242a6.868,6.868,0,0,1-6.86-6.86v-7.716h4.161v7.716a2.7,2.7,0,1,0,5.4,0V444.72h4.161v12.662A6.868,6.868,0,0,1,1184.81,464.242Z" transform="translate(-1077.839 -444.373)" fill="#fff"/>
          <path id="Path_5131" data-name="Path 5131" d="M628.26,462.223a9.376,9.376,0,0,1-4.944-1.3,9.121,9.121,0,0,1-3.374-3.587,10.937,10.937,0,0,1-1.222-5.236,10.176,10.176,0,0,1,1.2-5.042,9,9,0,0,1,8.106-4.77,9.683,9.683,0,0,1,4.809,1.183,8.32,8.32,0,0,1,3.257,3.3,9.634,9.634,0,0,1,1.125,4.867q0,.465-.039.951t-.116,1.066H622.714a5.794,5.794,0,0,0,.872,2.735,5.3,5.3,0,0,0,4.635,2.5,7.141,7.141,0,0,0,3.374-.757,4.331,4.331,0,0,0,2.017-2.037l3.18,1.125a8.57,8.57,0,0,1-3.394,3.684,9.9,9.9,0,0,1-5.139,1.319Zm4.964-11.713a4.686,4.686,0,0,0-.7-2.521,4.948,4.948,0,0,0-1.881-1.764,5.492,5.492,0,0,0-2.656-.639,4.761,4.761,0,0,0-2.424.639,5.707,5.707,0,0,0-1.861,1.746,5.818,5.818,0,0,0-.951,2.541h10.473Z" transform="translate(-598.431 -442.29)" fill="#fff"/>
        </g>
        <g id="Group_196" data-name="Group 196">
          <path id="Path_5132" data-name="Path 5132" d="M125.775,334.75c-.672-1.89-2.506-3.3-5.3-4.087a19.573,19.573,0,0,0-6.958-.56c-3.864.407-6.353,5.61-7.387,8.287-5.3-1.587-11.642-.859-15.932,0a.288.288,0,0,1-.013-.031c-3.436-6.35-8.2-13.811-11.39-13.343-2.788.428-3.805,5.638-3.023,15.487a1.572,1.572,0,0,0,1.557,1.44c.04,0,.08,0,.126-.006a1.564,1.564,0,0,0,1.436-1.683c-.48-6.051-.047-10.879.491-12.026,1.138.742,4.371,4.96,7.654,10.894l-.216.057a1.573,1.573,0,0,0,.812,3.04c3.556-.948,12.515-2.88,18.881-.39a1.557,1.557,0,0,0,2.073-.989c.7-2.288,3-7.382,5.258-7.619,4.067-.434,8.354.8,9,2.583.387,1.083.672,5.064.461,9.045-.248,4.539-.985,6.423-1.295,6.9a4.815,4.815,0,0,1-3.182-1.8l-5.313-8.333a1.576,1.576,0,0,0-2.162-.467,1.563,1.563,0,0,0-.471,2.16l5.261,8.239c.056.1,1.417,2.554,5.542,3.33a2.691,2.691,0,0,0,.485.043,2.741,2.741,0,0,0,2.12-1.041h0c2.752-3.23,2.559-16.152,1.494-19.131Z" transform="translate(-75.512 -324.993)" fill="#fff"/>
          <path id="Path_5133" data-name="Path 5133" d="M132.973,523.7a1.563,1.563,0,0,0-.4,2.175c3.451,5.016,2.382,8.945,2.027,9.926a3.039,3.039,0,0,1-2.391,1,2.721,2.721,0,0,1-1.229-.552A16.273,16.273,0,0,0,129.3,534.3a1.564,1.564,0,0,0-2.474,1.864,9.123,9.123,0,0,0,1.821,2.212c1.623,2.427,1.1,4.091.672,4.844-4.842.357-8.443-4.747-8.477-4.8a1.563,1.563,0,0,0-2.83,1.16c.771,4.242-.177,5.842-.611,6.326-3.469-.525-7.185-6.253-8.747-9.825a1.558,1.558,0,0,0-1.362-.936,1.535,1.535,0,0,0-1.442.808,43.56,43.56,0,0,1-7.018,9.212c-.164.151-.307.273-.43.372a8.872,8.872,0,0,1,.153-1.694,2.1,2.1,0,0,0,.027-.227c.565-13.37,4.232-16.281,4.342-16.366.428,2.231,1.236,4.358,2.308,5.385a2.616,2.616,0,0,0,1.826.794,2.255,2.255,0,0,0,.287-.019c2.308-.288,5.542-4.589,6.079-7.4a4.314,4.314,0,0,0-3.217-4.969,10.166,10.166,0,0,0-3.349-.311,47.418,47.418,0,0,1,6.786-7.33,1.564,1.564,0,0,0-2.075-2.339c-1.44,1.276-8.636,7.839-8.954,11.742a13.7,13.7,0,0,0-.024,1.619,1.557,1.557,0,0,0-1.248.127c-.868.5-5.224,3.73-5.884,18.823-.3,1.617-.514,4.432,1.248,5.411a2.288,2.288,0,0,0,1.125.29,5.18,5.18,0,0,0,3.125-1.61,41.582,41.582,0,0,0,6.141-7.542c2.07,3.705,5.9,9.087,10.73,9.152h.029a1.49,1.49,0,0,0,.578-.113c.468-.188,2.662-1.29,2.966-5.458a11.276,11.276,0,0,0,9.044,2.723,1.571,1.571,0,0,0,.862-.454,6.731,6.731,0,0,0,1.41-5.825,6.6,6.6,0,0,0,4.3-2.12,1.573,1.573,0,0,0,.315-.438c.117-.243,2.819-6.031-2.175-13.289a1.565,1.565,0,0,0-2.174-.4Zm-27.27.54a5.615,5.615,0,0,1,3.74-.16,1.2,1.2,0,0,1,.9,1.347,9.738,9.738,0,0,1-3.166,4.73,13.9,13.9,0,0,1-1.477-5.919Z" transform="translate(-92.438 -484.168)" fill="#fff"/>
          <path id="Path_5134" data-name="Path 5134" d="M136.928,517.037a1.15,1.15,0,0,0,.2.019,1.514,1.514,0,0,0,1.172-.7,4.355,4.355,0,0,0,.635-3.458,1.276,1.276,0,0,0-2.408-.441,4.35,4.35,0,0,0-.635,3.457A1.414,1.414,0,0,0,136.928,517.037Z" transform="translate(-127.163 -485.102)" fill="#fff"/>
          <path id="Path_5135" data-name="Path 5135" d="M284.862,517.032a1.15,1.15,0,0,0,.2.019,1.514,1.514,0,0,0,1.172-.7,4.355,4.355,0,0,0,.635-3.459,1.415,1.415,0,0,0-1.038-1.122c-.892-.167-1.776.844-2.051,2.342s.193,2.755,1.086,2.919Z" transform="translate(-253.983 -485.096)" fill="#fff"/>
        </g>
        <g id="Group_197" data-name="Group 197" transform="translate(98.572 38.478)">
          <path id="Path_5136" data-name="Path 5136" d="M771.42,638.491a5.417,5.417,0,0,1-2.779-.7,4.869,4.869,0,0,1-1.867-1.944,6.019,6.019,0,0,1-.674-2.9,6.1,6.1,0,0,1,.684-2.932,5.06,5.06,0,0,1,1.888-1.975,5.348,5.348,0,0,1,2.789-.717,5.53,5.53,0,0,1,3.04.846,4.692,4.692,0,0,1,1.888,2.28l-2.562.738a2.225,2.225,0,0,0-.879-1,2.535,2.535,0,0,0-1.357-.37,2.318,2.318,0,0,0-1.336.391,2.548,2.548,0,0,0-.891,1.086,3.919,3.919,0,0,0-.315,1.629,3.36,3.36,0,0,0,.7,2.237,2.314,2.314,0,0,0,1.867.825,2.605,2.605,0,0,0,1.346-.358,2.267,2.267,0,0,0,.912-.988l2.562.738a4.782,4.782,0,0,1-1.943,2.258,5.691,5.691,0,0,1-3.072.846Z" transform="translate(-766.1 -622.653)" fill="#fff"/>
          <path id="Path_5137" data-name="Path 5137" d="M870.291,638.5a5.749,5.749,0,0,1-2.823-.684,4.932,4.932,0,0,1-1.943-1.933,6.466,6.466,0,0,1,.023-5.916,5.028,5.028,0,0,1,1.987-1.943,6.165,6.165,0,0,1,5.644,0,5.124,5.124,0,0,1,2,1.933,5.669,5.669,0,0,1,.738,2.942,5.746,5.746,0,0,1-.749,2.975,5.163,5.163,0,0,1-2.02,1.944,5.931,5.931,0,0,1-2.855.684Zm-.021-2.5a2.586,2.586,0,0,0,2.281-1.357,4.108,4.108,0,0,0,.021-3.453,2.5,2.5,0,0,0-.966-1.021,2.593,2.593,0,0,0-1.292-.337,2.367,2.367,0,0,0-2.172,1.357,3.857,3.857,0,0,0-.347,1.747,3.746,3.746,0,0,0,.337,1.7A2.3,2.3,0,0,0,870.27,636Z" transform="translate(-850.729 -622.662)" fill="#fff"/>
          <path id="Path_5138" data-name="Path 5138" d="M968.77,598.418a4.578,4.578,0,0,1,.511-2.3,2.894,2.894,0,0,1,1.52-1.282,5.344,5.344,0,0,1,2.529-.217v2.454a1.589,1.589,0,0,0-1.357.261,1.628,1.628,0,0,0-.4,1.216v.846h1.867v2.454h-1.867v8.4h-2.8v-8.4H967.49V599.4h1.282v-.976Z" transform="translate(-938.744 -594.565)" fill="#fff"/>
          <path id="Path_5139" data-name="Path 5139" d="M1034.18,598.418a4.579,4.579,0,0,1,.511-2.3,2.894,2.894,0,0,1,1.52-1.282,5.344,5.344,0,0,1,2.529-.217v2.454a1.589,1.589,0,0,0-1.357.261,1.628,1.628,0,0,0-.4,1.216v.846h1.867v2.454h-1.867v8.4h-2.8v-8.4H1032.9V599.4h1.282v-.976Z" transform="translate(-994.818 -594.565)" fill="#fff"/>
          <path id="Path_5140" data-name="Path 5140" d="M1103.771,638.5a5.61,5.61,0,0,1-2.866-.716,4.959,4.959,0,0,1-1.921-2,6.182,6.182,0,0,1-.684-2.953,5.675,5.675,0,0,1,.684-2.845,5.036,5.036,0,0,1,1.878-1.943,5.281,5.281,0,0,1,2.735-.705,5.551,5.551,0,0,1,2.758.674,4.731,4.731,0,0,1,1.857,1.878,5.749,5.749,0,0,1,.662,2.812,4.95,4.95,0,0,1-.033.532c-.021.2-.047.4-.076.62H1101.3a2.438,2.438,0,0,0,1.336,1.943,2.608,2.608,0,0,0,1.2.271,3.14,3.14,0,0,0,1.443-.325,2.007,2.007,0,0,0,.923-.891l2.454.738a4.8,4.8,0,0,1-1.933,2.15,5.674,5.674,0,0,1-2.952.759Zm2.063-6.666a2.183,2.183,0,0,0-.325-1.1,2.138,2.138,0,0,0-.8-.759,2.277,2.277,0,0,0-1.108-.271,2.031,2.031,0,0,0-1.021.271,2.506,2.506,0,0,0-.814.749,2.7,2.7,0,0,0-.445,1.108h4.516Z" transform="translate(-1050.883 -622.662)" fill="#fff"/>
          <path id="Path_5141" data-name="Path 5141" d="M1204.161,638.5a5.611,5.611,0,0,1-2.866-.716,4.959,4.959,0,0,1-1.921-2,6.182,6.182,0,0,1-.684-2.953,5.675,5.675,0,0,1,.684-2.845,5.037,5.037,0,0,1,1.878-1.943,5.281,5.281,0,0,1,2.735-.705,5.55,5.55,0,0,1,2.758.674,4.73,4.73,0,0,1,1.857,1.878,5.75,5.75,0,0,1,.662,2.812,4.95,4.95,0,0,1-.033.532c-.021.2-.047.4-.076.62h-7.468a2.437,2.437,0,0,0,1.336,1.943,2.608,2.608,0,0,0,1.2.271,3.139,3.139,0,0,0,1.443-.325,2.006,2.006,0,0,0,.924-.891l2.454.738a4.8,4.8,0,0,1-1.933,2.15,5.674,5.674,0,0,1-2.952.759Zm2.063-6.666a2.179,2.179,0,0,0-.325-1.1,2.136,2.136,0,0,0-.8-.759,2.277,2.277,0,0,0-1.108-.271,2.031,2.031,0,0,0-1.021.271,2.507,2.507,0,0,0-.814.749,2.7,2.7,0,0,0-.445,1.108h4.516Z" transform="translate(-1136.943 -622.662)" fill="#fff"/>
        </g>
      </g>
    </g>
  </g>
</svg>
