<svg xmlns="http://www.w3.org/2000/svg" width="28.075" height="26.222" viewBox="0 0 28.075 26.222">
  <path id="Path_5193" data-name="Path 5193" d="M1074.122,2817.306c-3.81,0-4.289.017-5.786.079a10.974,10.974,0,0,0-3.409.61,6.933,6.933,0,0,0-2.486,1.512,6.423,6.423,0,0,0-1.62,2.323,9.07,9.07,0,0,0-.653,3.179c-.066,1.4-.084,1.847-.084,5.41s.018,4.005.084,5.4a9.107,9.107,0,0,0,.653,3.183,6.412,6.412,0,0,0,1.62,2.322,6.9,6.9,0,0,0,2.484,1.513,10.963,10.963,0,0,0,3.408.61c1.5.062,1.976.078,5.789.078s4.288-.016,5.787-.078a11.029,11.029,0,0,0,3.409-.61,6.944,6.944,0,0,0,2.485-1.513,6.4,6.4,0,0,0,1.619-2.322,9.129,9.129,0,0,0,.653-3.183c.067-1.4.084-1.843.084-5.405s-.017-4.007-.084-5.406a9.117,9.117,0,0,0-.653-3.181,6.413,6.413,0,0,0-1.619-2.323,6.937,6.937,0,0,0-2.487-1.512,10.947,10.947,0,0,0-3.409-.61c-1.5-.062-1.974-.079-5.789-.079h0Zm-1.258,2.364h1.259c3.748,0,4.192.011,5.672.075a8.237,8.237,0,0,1,2.607.451,4.39,4.39,0,0,1,1.614.981,4.036,4.036,0,0,1,1.05,1.508,6.788,6.788,0,0,1,.482,2.434c.069,1.381.083,1.8.083,5.3s-.014,3.915-.083,5.3a6.847,6.847,0,0,1-.482,2.434,4.042,4.042,0,0,1-1.051,1.506,4.383,4.383,0,0,1-1.615.98,8.211,8.211,0,0,1-2.6.452c-1.48.062-1.924.077-5.672.077s-4.193-.015-5.673-.077a8.249,8.249,0,0,1-2.6-.452,4.4,4.4,0,0,1-1.615-.98,4.04,4.04,0,0,1-1.052-1.508,6.8,6.8,0,0,1-.483-2.434c-.067-1.381-.081-1.8-.081-5.3s.014-3.914.081-5.295a6.841,6.841,0,0,1,.484-2.436,4.057,4.057,0,0,1,1.051-1.507,4.369,4.369,0,0,1,1.615-.98,8.2,8.2,0,0,1,2.6-.453c1.3-.056,1.8-.072,4.414-.074Zm8.752,2.176a1.577,1.577,0,1,0,0,3.147h0a1.577,1.577,0,1,0,0-3.147Zm-7.493,1.839a6.75,6.75,0,1,0-.225,13.466q.113,0,.225,0a6.742,6.742,0,1,0,0-13.466Zm0,2.362a4.381,4.381,0,1,1,0,8.741h0a4.381,4.381,0,1,1,0-8.741Z" transform="translate(-1060.084 -2817.306)" fill="#fff"/>
</svg>
