<svg xmlns="http://www.w3.org/2000/svg" xmlns:xlink="http://www.w3.org/1999/xlink" width="146.291" height="22.232" viewBox="0 0 146.291 22.232">
  <defs>
    <clipPath id="clip-path">
      <rect id="Rectangle_173" data-name="Rectangle 173" width="146.291" height="22.232" fill="none"/>
    </clipPath>
  </defs>
  <g id="Group_320" data-name="Group 320" transform="translate(0 0)">
    <g id="Group_319" data-name="Group 319" transform="translate(0 0)" clip-path="url(#clip-path)">
      <path id="Path_5296" data-name="Path 5296" d="M.587,20.05A2.483,2.483,0,0,1,0,18.348a2.742,2.742,0,0,0,1.425-.293,1.127,1.127,0,0,0,.465-1.037V4.52A1.14,1.14,0,0,0,1.4,3.469,2.656,2.656,0,0,0,0,3.163,2.442,2.442,0,0,1,.614,1.488H4.789a5.146,5.146,0,0,1,1.928.319A2.5,2.5,0,0,1,7.98,3.27L10.8,10.211l1.066,3.3,1.011-3.3,3.351-8.723h6.063A2.439,2.439,0,0,1,22.9,3.163a2.365,2.365,0,0,0-1.341.306,1.193,1.193,0,0,0-.439,1.05v12.5a1.187,1.187,0,0,0,.412,1.037,2.432,2.432,0,0,0,1.367.293,2.475,2.475,0,0,1-.609,1.7h-6.6a2.477,2.477,0,0,1-.423-.771,2.777,2.777,0,0,1-.16-.931,2.611,2.611,0,0,0,1.37-.293,1.127,1.127,0,0,0,.465-1.037V6.009L12.421,17.417a1.947,1.947,0,0,1-1,1.157,3.946,3.946,0,0,1-1.558.279L4.6,6.009v11.01a1.074,1.074,0,0,0,.545,1.037,3.348,3.348,0,0,0,1.556.293,2.833,2.833,0,0,1-.16.931,2.481,2.481,0,0,1-.425.771Z" transform="translate(0 1.809)" fill="#1a1818"/>
      <path id="Path_5297" data-name="Path 5297" d="M15.811,17.9a3.714,3.714,0,0,1-2.9-1.144,4.413,4.413,0,0,1-1.035-3.085V6.36a.668.668,0,0,0-.348-.638,2.04,2.04,0,0,0-.957-.186V4.365a4.524,4.524,0,0,1,1.449-.625,8.613,8.613,0,0,1,2.486-.332,2.6,2.6,0,0,1,1.37.239c.222.16.335.55.335,1.17v8.935a2.322,2.322,0,0,0,.264,1.223,1.012,1.012,0,0,0,.931.425,1.91,1.91,0,0,0,1.077-.346,3.615,3.615,0,0,0,.867-.8V6.36a.655.655,0,0,0-.4-.638,2.623,2.623,0,0,0-1.09-.186V4.365a4.955,4.955,0,0,1,1.463-.625,8.892,8.892,0,0,1,2.58-.332,2.848,2.848,0,0,1,1.409.239q.372.239.372,1.17V14.6a1.689,1.689,0,0,0,.332,1.064,1.278,1.278,0,0,0,.944.479v.745a2.593,2.593,0,0,1-1.343.758,6.651,6.651,0,0,1-1.766.253,2.564,2.564,0,0,1-1.531-.465,2.213,2.213,0,0,1-.862-1.343A4.236,4.236,0,0,1,15.811,17.9" transform="translate(12.857 4.144)" fill="#1a1818"/>
      <path id="Path_5298" data-name="Path 5298" d="M23.112,18.012a8.984,8.984,0,0,1-1.928-.213,7.829,7.829,0,0,1-1.784-.612,4.06,4.06,0,0,1-1.316-1,2.06,2.06,0,0,1-.5-1.37,2.116,2.116,0,0,1,.53-1.5,1.771,1.771,0,0,1,1.356-.572,1.8,1.8,0,0,1,1.265.479,1.625,1.625,0,0,1,.516,1.25,1.5,1.5,0,0,1-.106.6,2.875,2.875,0,0,1-.317.545,1.579,1.579,0,0,0,.851.346,6.958,6.958,0,0,0,1.2.106,2.515,2.515,0,0,0,1.434-.346,1.013,1.013,0,0,0,.507-.851,1.64,1.64,0,0,0-.851-1.37c-.57-.381-1.214-.767-1.941-1.157-.656-.355-1.31-.731-1.955-1.13a5.567,5.567,0,0,1-1.622-1.5,3.8,3.8,0,0,1-.652-2.287,3.524,3.524,0,0,1,1.463-2.9A6.593,6.593,0,0,1,23.4,3.383a7.887,7.887,0,0,1,2.978.468,3.666,3.666,0,0,1,1.622,1.17A2.511,2.511,0,0,1,28.511,6.5a1.722,1.722,0,0,1-.521,1.314,1.755,1.755,0,0,1-1.261.494,1.8,1.8,0,0,1-1.17-.412,1.32,1.32,0,0,1-.505-1.077,2.528,2.528,0,0,1,.106-.691,1.709,1.709,0,0,1,.293-.612,1.691,1.691,0,0,0-.678-.332,3.966,3.966,0,0,0-.917-.093,1.955,1.955,0,0,0-1.345.412,1.29,1.29,0,0,0-.463,1,1.741,1.741,0,0,0,.862,1.489,20.43,20.43,0,0,0,1.928,1.144q.984.505,1.928,1.088a5.529,5.529,0,0,1,1.582,1.465,3.734,3.734,0,0,1,.638,2.26,3.311,3.311,0,0,1-.849,2.38,4.883,4.883,0,0,1-2.2,1.29,9.97,9.97,0,0,1-2.83.4" transform="translate(21.381 4.114)" fill="#1a1818"/>
      <path id="Path_5299" data-name="Path 5299" d="M35.389,21.523a4.035,4.035,0,0,1-1.992-.4,1.36,1.36,0,0,1-.694-1.274V11.285a1.752,1.752,0,0,0-.479-1.316,1.717,1.717,0,0,0-1.25-.465,2.158,2.158,0,0,0-1.077.332,2.2,2.2,0,0,0-.864.891v7.765a1.521,1.521,0,0,0,.332,1.1,1.576,1.576,0,0,0,1.13.33,1.977,1.977,0,0,1-.609,1.438H24.007a1.971,1.971,0,0,1-.612-1.438,1.586,1.586,0,0,0,1.132-.33,1.532,1.532,0,0,0,.33-1.1V4.078a1.3,1.3,0,0,0-.346-.96,2.12,2.12,0,0,0-1.436-.343V1.684a10.556,10.556,0,0,1,1.556-.638A14.658,14.658,0,0,1,26.413.581,8.033,8.033,0,0,1,27.889.408a1.177,1.177,0,0,1,.88.279,1.359,1.359,0,0,1,.264.942V6.87L28.98,9a5.884,5.884,0,0,1,1.782-1.489,4.969,4.969,0,0,1,2.473-.614q3.776,0,3.776,3.938v7.446a1.445,1.445,0,0,0,1.279,1.6l.024.771a4.212,4.212,0,0,1-2.925.878" transform="translate(28.063 0.496)" fill="#1a1818"/>
      <path id="Path_5300" data-name="Path 5300" d="M41.243,20.583a8.627,8.627,0,0,1-4.2-1.062A7.8,7.8,0,0,1,33.93,16.29a11.37,11.37,0,0,1-1.17-5.441,11.659,11.659,0,0,1,1.05-5.239,7.335,7.335,0,0,1,2.925-3.178,8.574,8.574,0,0,1,4.348-1.077,6.422,6.422,0,0,1,1.33.16,5.916,5.916,0,0,1,1.3.425,3.858,3.858,0,0,1,.718-.253q.452-.12.917-.226a3.5,3.5,0,0,1,.731-.106,8.4,8.4,0,0,1,.505,2.008q.16,1.157.213,2.287c.035.756.053,1.4.053,1.928H43.849a6.416,6.416,0,0,0-.944-2.819A2.207,2.207,0,0,0,41,3.67a2.977,2.977,0,0,0-2.54,1.463,8.753,8.753,0,0,0-1,4.787,10.7,10.7,0,0,0,.745,4.375,4.922,4.922,0,0,0,1.97,2.34,5.173,5.173,0,0,0,2.631.7,4.285,4.285,0,0,0,2.077-.465,3.382,3.382,0,0,0,1.194-.971,1.578,1.578,0,0,1,.545.731,2.359,2.359,0,0,1,.2.864,2.124,2.124,0,0,1-.654,1.343,5,5,0,0,1-1.888,1.237,8.072,8.072,0,0,1-3.045.505" transform="translate(39.84 1.649)" fill="#1a1818"/>
      <path id="Path_5301" data-name="Path 5301" d="M45.9,18.134a6.779,6.779,0,0,1-3.349-.811,5.534,5.534,0,0,1-2.276-2.393,8.533,8.533,0,0,1-.811-3.923,9.307,9.307,0,0,1,.853-4.2,5.975,5.975,0,0,1,2.365-2.58,6.832,6.832,0,0,1,3.484-.878,6.68,6.68,0,0,1,3.364.824A5.646,5.646,0,0,1,51.8,6.606a8.775,8.775,0,0,1,.811,3.976,9.185,9.185,0,0,1-.853,4.162,5.823,5.823,0,0,1-2.365,2.54,7,7,0,0,1-3.486.851m.213-1.915a1.35,1.35,0,0,0,.971-.4,2.929,2.929,0,0,0,.64-1.476,16.483,16.483,0,0,0,.224-3.125,22.639,22.639,0,0,0-.237-3.79,3.43,3.43,0,0,0-.694-1.742,1.454,1.454,0,0,0-1.062-.452,1.4,1.4,0,0,0-.986.4,2.851,2.851,0,0,0-.652,1.489,16.688,16.688,0,0,0-.226,3.165,20.762,20.762,0,0,0,.253,3.75,3.438,3.438,0,0,0,.707,1.729,1.439,1.439,0,0,0,1.062.452" transform="translate(47.998 4.071)" fill="#1a1818"/>
      <path id="Path_5302" data-name="Path 5302" d="M46.77,21.86a2.084,2.084,0,0,1-.609-1.436,1.481,1.481,0,0,0,1.1-.346,1.572,1.572,0,0,0,.332-1.117V9.893H45.972V8.244a4.5,4.5,0,0,0,.891-.293,3.1,3.1,0,0,0,.6-.372,5.625,5.625,0,0,1-.106-.878q-.027-.505-.027-.665a6.667,6.667,0,0,1,.718-3.311A4.313,4.313,0,0,1,50.054.878,7.044,7.044,0,0,1,52.995.293a3.808,3.808,0,0,1,2.617.8,2.408,2.408,0,0,1,.893,1.835,2.7,2.7,0,0,1-.534,1.715,1.782,1.782,0,0,1-1.489.678,2.409,2.409,0,0,1-1.436-.479,1.5,1.5,0,0,1-.665-1.276,2.211,2.211,0,0,1,.133-.745,1.112,1.112,0,0,1,.4-.558,1.048,1.048,0,0,0-.226-.146.655.655,0,0,0-.253-.04,1.254,1.254,0,0,0-.811.359,2.955,2.955,0,0,0-.7.971,3.23,3.23,0,0,0-.293,1.409,5.345,5.345,0,0,0,.293,1.968,1.16,1.16,0,0,0,1.2.718h4.92c-.035-.23-.064-.505-.093-.824s-.04-.594-.04-.824a6.023,6.023,0,0,1,.745-3.018A5.536,5.536,0,0,1,62.54,0a4.12,4.12,0,0,1,2.673.771,2.306,2.306,0,0,1,.944,1.835,2.6,2.6,0,0,1-.585,1.715,1.878,1.878,0,0,1-1.516.7A2.7,2.7,0,0,1,62.62,4.6a1.378,1.378,0,0,1-.691-1.25,2.141,2.141,0,0,1,.133-.718,1.2,1.2,0,0,1,.426-.585.954.954,0,0,0-.479-.16c-.355,0-.7.253-1.05.758a3.292,3.292,0,0,0-.519,1.9q0,.8.053,1.463a2.308,2.308,0,0,0,.319,1.077.965.965,0,0,0,.878.412h3.034c0,.39-.024.811-.069,1.263a2.317,2.317,0,0,1-.386,1.13H61.529v8.829a1.476,1.476,0,0,0,.572,1.3,4.094,4.094,0,0,0,2.167.4,1.7,1.7,0,0,1-.173.771,2.919,2.919,0,0,1-.465.665H56.343A3.446,3.446,0,0,1,55.9,21.2a1.7,1.7,0,0,1-.173-.771,1.526,1.526,0,0,0,1.13-.346,1.572,1.572,0,0,0,.332-1.117V9.893H51.876v8.829a1.631,1.631,0,0,0,.465,1.3,3.5,3.5,0,0,0,2.061.4,1.984,1.984,0,0,1-.638,1.436Z" transform="translate(55.908 0)" fill="#1a1818"/>
      <path id="Path_5303" data-name="Path 5303" d="M61.067,18.013a6.185,6.185,0,0,1-4.745-1.888,7.4,7.4,0,0,1-1.771-5.266,8.6,8.6,0,0,1,.878-4,6.377,6.377,0,0,1,2.382-2.593,6.486,6.486,0,0,1,3.417-.9,5.3,5.3,0,0,1,3.841,1.4,5.183,5.183,0,0,1,1.449,3.923,4.334,4.334,0,0,1-.332,1.768,1.338,1.338,0,0,1-1.367.758H59.073a4.325,4.325,0,0,0,.971,2.978,3.177,3.177,0,0,0,2.327.878,4.886,4.886,0,0,0,1.675-.279A5.413,5.413,0,0,0,65.484,14a1.5,1.5,0,0,1,.383.652,2.406,2.406,0,0,1,.146.731,1.726,1.726,0,0,1-.6,1.05,5.175,5.175,0,0,1-1.7,1.1,6.637,6.637,0,0,1-2.648.479M59.073,9.184h2.686a.534.534,0,0,0,.574-.346,2.691,2.691,0,0,0,.117-.851,4.1,4.1,0,0,0-.412-2.247,1.2,1.2,0,0,0-.971-.545,1.491,1.491,0,0,0-.9.346,2.5,2.5,0,0,0-.745,1.21,8.953,8.953,0,0,0-.346,2.433" transform="translate(66.342 4.086)" fill="#1a1818"/>
      <path id="Path_5304" data-name="Path 5304" d="M67.126,18.013a6.185,6.185,0,0,1-4.745-1.888,7.4,7.4,0,0,1-1.771-5.266,8.6,8.6,0,0,1,.878-4,6.377,6.377,0,0,1,2.382-2.593,6.486,6.486,0,0,1,3.417-.9,5.3,5.3,0,0,1,3.841,1.4,5.183,5.183,0,0,1,1.449,3.923,4.335,4.335,0,0,1-.332,1.768,1.338,1.338,0,0,1-1.367.758H65.132a4.325,4.325,0,0,0,.971,2.978,3.177,3.177,0,0,0,2.327.878,4.886,4.886,0,0,0,1.675-.279A5.413,5.413,0,0,0,71.543,14a1.5,1.5,0,0,1,.383.652,2.406,2.406,0,0,1,.146.731,1.726,1.726,0,0,1-.6,1.05,5.175,5.175,0,0,1-1.7,1.1,6.637,6.637,0,0,1-2.648.479M65.132,9.184h2.686a.534.534,0,0,0,.574-.346,2.691,2.691,0,0,0,.117-.851A4.1,4.1,0,0,0,68.1,5.74a1.2,1.2,0,0,0-.971-.545,1.491,1.491,0,0,0-.9.346,2.5,2.5,0,0,0-.745,1.21,8.952,8.952,0,0,0-.346,2.433" transform="translate(73.71 4.086)" fill="#1a1818"/>
    </g>
  </g>
</svg>
