<svg xmlns="http://www.w3.org/2000/svg" xmlns:xlink="http://www.w3.org/1999/xlink" width="280" height="45" viewBox="0 0 280 45">
  <defs>
    <clipPath id="clip-path">
      <rect id="Rectangle_187" data-name="Rectangle 187" width="280" height="45" transform="translate(42 268)" fill="#fff" stroke="#707070" stroke-width="1"/>
    </clipPath>
    <clipPath id="clip-path-2">
      <rect id="Rectangle_166" data-name="Rectangle 166" width="277.227" height="21.81" transform="translate(0 0)" fill="none"/>
    </clipPath>
  </defs>
  <g id="Mask_Group_18" data-name="Mask Group 18" transform="translate(-42 -268)" clip-path="url(#clip-path)">
    <g id="Group_306" data-name="Group 306" transform="translate(50 278)" clip-path="url(#clip-path-2)">
      <path id="Path_5245" data-name="Path 5245" d="M30.39,21.81a7.487,7.487,0,0,1-3.84-.96,6.739,6.739,0,0,1-2.58-2.685,8.311,8.311,0,0,1-.93-4.005,8.359,8.359,0,0,1,.945-4.051,7,7,0,0,1,2.61-2.729,7.4,7.4,0,0,1,3.855-.99,7.619,7.619,0,0,1,4.2,1.17,6.484,6.484,0,0,1,2.61,3.15l-3.54,1.019a3.058,3.058,0,0,0-1.215-1.379,3.493,3.493,0,0,0-1.875-.51,3.2,3.2,0,0,0-1.845.54,3.514,3.514,0,0,0-1.23,1.5,5.4,5.4,0,0,0-.435,2.25,4.645,4.645,0,0,0,.96,3.09,3.2,3.2,0,0,0,2.58,1.14,3.6,3.6,0,0,0,1.86-.5A3.13,3.13,0,0,0,33.78,16.5l3.54,1.02a6.6,6.6,0,0,1-2.685,3.12,7.852,7.852,0,0,1-4.245,1.17" fill="#040504"/>
      <path id="Path_5246" data-name="Path 5246" d="M47.069,21.81a7.761,7.761,0,0,1-3.96-.99,6.845,6.845,0,0,1-2.655-2.76,8.529,8.529,0,0,1-.945-4.08,7.991,7.991,0,0,1,.945-3.93,6.977,6.977,0,0,1,2.6-2.685,7.286,7.286,0,0,1,3.78-.975,7.637,7.637,0,0,1,3.81.93A6.534,6.534,0,0,1,53.2,9.915a7.94,7.94,0,0,1,.915,3.885,6.694,6.694,0,0,1-.045.735q-.045.406-.1.856H43.649a3.371,3.371,0,0,0,1.845,2.684,3.6,3.6,0,0,0,1.665.375A4.341,4.341,0,0,0,49.154,18a2.771,2.771,0,0,0,1.275-1.231l3.39,1.021a6.654,6.654,0,0,1-2.67,2.97,7.843,7.843,0,0,1-4.08,1.049m2.85-9.21a3.02,3.02,0,0,0-.45-1.515,2.951,2.951,0,0,0-1.11-1.05,3.165,3.165,0,0,0-1.53-.375,2.816,2.816,0,0,0-1.41.375,3.472,3.472,0,0,0-1.125,1.035,3.7,3.7,0,0,0-.615,1.53Z" fill="#040504"/>
      <path id="Path_5247" data-name="Path 5247" d="M57.06,6.6h3.48l.27,1.92a5.709,5.709,0,0,1,1.425-1.275,5.278,5.278,0,0,1,1.755-.69A4.72,4.72,0,0,1,66,6.6v3.6a3.713,3.713,0,0,0-1.695-.15,3.787,3.787,0,0,0-2.91,2.085A5.111,5.111,0,0,0,60.9,14.52V21.6H57.06Z" fill="#040504"/>
      <path id="Path_5248" data-name="Path 5248" d="M74.759,21.81a7.487,7.487,0,0,1-3.84-.96,6.739,6.739,0,0,1-2.58-2.685,8.311,8.311,0,0,1-.93-4.005,8.359,8.359,0,0,1,.945-4.051,7,7,0,0,1,2.61-2.729,7.4,7.4,0,0,1,3.855-.99,7.619,7.619,0,0,1,4.2,1.17,6.484,6.484,0,0,1,2.61,3.15l-3.54,1.019a3.058,3.058,0,0,0-1.215-1.379A3.493,3.493,0,0,0,75,9.84a3.2,3.2,0,0,0-1.845.54,3.514,3.514,0,0,0-1.23,1.5,5.4,5.4,0,0,0-.435,2.25,4.645,4.645,0,0,0,.96,3.09,3.2,3.2,0,0,0,2.58,1.14,3.6,3.6,0,0,0,1.86-.5,3.13,3.13,0,0,0,1.26-1.365l3.54,1.02A6.6,6.6,0,0,1,79,20.64a7.852,7.852,0,0,1-4.245,1.17" fill="#040504"/>
      <path id="Path_5249" data-name="Path 5249" d="M93.449,21.6l-.3-1.83a5.988,5.988,0,0,1-1.695,1.469,5.093,5.093,0,0,1-2.535.54,6.149,6.149,0,0,1-2.625-.524,4.168,4.168,0,0,1-1.755-1.471,3.931,3.931,0,0,1-.63-2.234,4.062,4.062,0,0,1,1.365-3.135A7.286,7.286,0,0,1,89.4,12.84l3.75-.42V11.369a1.6,1.6,0,0,0-.57-1.17,2.554,2.554,0,0,0-1.8-.54,3.332,3.332,0,0,0-1.875.525,2.57,2.57,0,0,0-1.065,1.575l-3.3-1.2a5.365,5.365,0,0,1,2.28-3.09,7.511,7.511,0,0,1,4.14-1.08,6.2,6.2,0,0,1,4.515,1.486,5.234,5.234,0,0,1,1.515,3.915V21.6Zm-.3-6.51-3.24.42a2.651,2.651,0,0,0-1.5.585,1.468,1.468,0,0,0-.51,1.125,1.345,1.345,0,0,0,.51,1.064,2.149,2.149,0,0,0,1.44.436,3.766,3.766,0,0,0,1.785-.39,2.636,2.636,0,0,0,1.125-1.14,4,4,0,0,0,.39-1.86Z" fill="#040504"/>
      <path id="Path_5250" data-name="Path 5250" d="M119.789,8.85l-.48.06V0h3.84V21.6h-3.48l-.24-1.86a6.243,6.243,0,0,1-1.9,1.455,5.876,5.876,0,0,1-2.745.615,6.25,6.25,0,0,1-3.45-.96,6.454,6.454,0,0,1-2.34-2.684,9.181,9.181,0,0,1-.84-4.066,9.275,9.275,0,0,1,.84-4.08,6.173,6.173,0,0,1,5.79-3.63,6.1,6.1,0,0,1,3.045.72,5.7,5.7,0,0,1,1.965,1.74m-7.53,5.25a4.56,4.56,0,0,0,.975,3.045,3.159,3.159,0,0,0,2.535,1.156,3.257,3.257,0,0,0,1.755-.5,3.667,3.667,0,0,0,1.29-1.425,4.8,4.8,0,0,0,.495-2.281,4.8,4.8,0,0,0-.495-2.28,3.667,3.667,0,0,0-1.29-1.425,3.257,3.257,0,0,0-1.755-.5,3.164,3.164,0,0,0-2.535,1.155,4.564,4.564,0,0,0-.975,3.045" fill="#040504"/>
      <path id="Path_5251" data-name="Path 5251" d="M133.649,21.81a7.761,7.761,0,0,1-3.96-.99,6.845,6.845,0,0,1-2.655-2.76,8.529,8.529,0,0,1-.945-4.08,7.991,7.991,0,0,1,.945-3.93,6.977,6.977,0,0,1,2.6-2.685,7.286,7.286,0,0,1,3.78-.975,7.637,7.637,0,0,1,3.81.93,6.534,6.534,0,0,1,2.565,2.595A7.94,7.94,0,0,1,140.7,13.8a6.694,6.694,0,0,1-.045.735q-.045.406-.105.856h-10.32a3.371,3.371,0,0,0,1.845,2.684,3.6,3.6,0,0,0,1.665.375A4.341,4.341,0,0,0,135.734,18a2.771,2.771,0,0,0,1.275-1.231l3.39,1.021a6.655,6.655,0,0,1-2.67,2.97,7.843,7.843,0,0,1-4.08,1.049m2.85-9.21a3.019,3.019,0,0,0-.45-1.515,2.951,2.951,0,0,0-1.11-1.05,3.165,3.165,0,0,0-1.53-.375,2.816,2.816,0,0,0-1.41.375,3.472,3.472,0,0,0-1.125,1.035,3.7,3.7,0,0,0-.615,1.53Z" fill="#040504"/>
      <path id="Path_5252" data-name="Path 5252" d="M152.038,6.6h3.48l.27,1.53a5.12,5.12,0,0,1,1.756-1.275,5.382,5.382,0,0,1,2.234-.465,5.746,5.746,0,0,1,3.016.75,4.933,4.933,0,0,1,1.92,2.175,8.223,8.223,0,0,1,.675,3.525V21.6h-3.871V13.35a4.151,4.151,0,0,0-.69-2.61,2.484,2.484,0,0,0-2.069-.87,2.63,2.63,0,0,0-2.146.885,4.028,4.028,0,0,0-.734,2.625V21.6h-3.841Z" fill="#040504"/>
      <path id="Path_5253" data-name="Path 5253" d="M175.677,21.81a7.924,7.924,0,0,1-3.9-.945,6.828,6.828,0,0,1-2.686-2.67,8.133,8.133,0,0,1-.974-4.065,8.076,8.076,0,0,1,1.005-4.11,6.947,6.947,0,0,1,2.745-2.685,8.52,8.52,0,0,1,7.8,0,7.071,7.071,0,0,1,2.759,2.67,7.839,7.839,0,0,1,1.021,4.064,7.892,7.892,0,0,1-1.035,4.111,7.133,7.133,0,0,1-2.79,2.685,8.191,8.191,0,0,1-3.946.945m-.029-3.45a3.567,3.567,0,0,0,3.149-1.875,4.814,4.814,0,0,0,.54-2.416,4.913,4.913,0,0,0-.509-2.354,3.446,3.446,0,0,0-1.335-1.41,3.581,3.581,0,0,0-1.785-.465,3.352,3.352,0,0,0-1.725.465,3.311,3.311,0,0,0-1.275,1.41,5.313,5.313,0,0,0-.48,2.415,5.3,5.3,0,0,0,.465,2.355,3.184,3.184,0,0,0,2.955,1.875" fill="#040504"/>
      <path id="Path_5254" data-name="Path 5254" d="M189.118,16.711a2.159,2.159,0,0,0,.614,1.14,2.556,2.556,0,0,0,.99.554,3.9,3.9,0,0,0,1.125.165,2.922,2.922,0,0,0,1.651-.4,1.211,1.211,0,0,0,.6-1.035,1.013,1.013,0,0,0-.419-.856,3.2,3.2,0,0,0-1.065-.495c-.431-.12-.886-.229-1.365-.33q-.81-.208-1.726-.465a7.144,7.144,0,0,1-1.724-.734,4.19,4.19,0,0,1-1.335-1.246,3.337,3.337,0,0,1-.526-1.935,4.05,4.05,0,0,1,.75-2.444A5.034,5.034,0,0,1,188.8,6.99a7.8,7.8,0,0,1,3.165-.6,6.757,6.757,0,0,1,3.6.9A5.125,5.125,0,0,1,197.7,9.87l-3.36.961a1.665,1.665,0,0,0-.54-.691,2.343,2.343,0,0,0-.856-.389,4.194,4.194,0,0,0-1.005-.121,2.747,2.747,0,0,0-1.439.345,1.06,1.06,0,0,0-.57.945.823.823,0,0,0,.21.585,1.585,1.585,0,0,0,.584.375,6.323,6.323,0,0,0,.871.27q.5.12,1.094.27.93.242,1.875.555a8.728,8.728,0,0,1,1.741.8,3.667,3.667,0,0,1,1.275,1.291,4.4,4.4,0,0,1,.54,2.04,4.047,4.047,0,0,1-.75,2.384,5.12,5.12,0,0,1-2.16,1.7,8.359,8.359,0,0,1-3.42.63,7.531,7.531,0,0,1-3.976-.991,4.729,4.729,0,0,1-2.144-3.089Z" fill="#040504"/>
      <path id="Path_5255" data-name="Path 5255" d="M207.867,21.81a7.924,7.924,0,0,1-3.9-.945,6.828,6.828,0,0,1-2.686-2.67,8.133,8.133,0,0,1-.974-4.065,8.076,8.076,0,0,1,1.005-4.11,6.947,6.947,0,0,1,2.745-2.685,8.52,8.52,0,0,1,7.8,0,7.071,7.071,0,0,1,2.759,2.67,7.839,7.839,0,0,1,1.021,4.064A7.892,7.892,0,0,1,214.6,18.18a7.133,7.133,0,0,1-2.79,2.685,8.191,8.191,0,0,1-3.946.945m-.029-3.45a3.567,3.567,0,0,0,3.149-1.875,4.814,4.814,0,0,0,.54-2.416,4.913,4.913,0,0,0-.509-2.354,3.446,3.446,0,0,0-1.335-1.41A3.581,3.581,0,0,0,207.9,9.84a3.352,3.352,0,0,0-1.725.465,3.311,3.311,0,0,0-1.275,1.41,5.313,5.313,0,0,0-.48,2.415,5.3,5.3,0,0,0,.465,2.355,3.184,3.184,0,0,0,2.955,1.875" fill="#040504"/>
      <path id="Path_5256" data-name="Path 5256" d="M219.327,6.6V2.4h3.87V6.6h3.33V9.99H223.2v6.091a2.2,2.2,0,0,0,.51,1.649,1.9,1.9,0,0,0,1.275.51,7.982,7.982,0,0,0,1.545-.09v3.3a8.82,8.82,0,0,1-2.684.181,5.674,5.674,0,0,1-2.326-.7,4.025,4.025,0,0,1-1.6-1.785,6.984,6.984,0,0,1-.585-3.06V9.99H217.2V6.6Z" fill="#040504"/>
      <path id="Path_5257" data-name="Path 5257" d="M229.257,6.6h3.48l.27,1.92a5.713,5.713,0,0,1,1.426-1.275,5.261,5.261,0,0,1,1.755-.69A4.716,4.716,0,0,1,238.2,6.6v3.6a3.713,3.713,0,0,0-1.7-.15,3.791,3.791,0,0,0-2.91,2.085,5.124,5.124,0,0,0-.494,2.385V21.6h-3.841Z" fill="#040504"/>
      <path id="Path_5258" data-name="Path 5258" d="M260.606,16.711a2.16,2.16,0,0,0,.615,1.14,2.556,2.556,0,0,0,.99.554,3.894,3.894,0,0,0,1.125.165,2.92,2.92,0,0,0,1.65-.4,1.209,1.209,0,0,0,.6-1.035,1.016,1.016,0,0,0-.419-.856,3.2,3.2,0,0,0-1.066-.495c-.431-.12-.885-.229-1.365-.33q-.81-.208-1.725-.465a7.128,7.128,0,0,1-1.724-.734,4.2,4.2,0,0,1-1.336-1.246,3.345,3.345,0,0,1-.525-1.935,4.05,4.05,0,0,1,.75-2.444,5.027,5.027,0,0,1,2.116-1.636,7.8,7.8,0,0,1,3.165-.6,6.76,6.76,0,0,1,3.6.9,5.129,5.129,0,0,1,2.13,2.579l-3.36.961a1.662,1.662,0,0,0-.539-.691,2.343,2.343,0,0,0-.856-.389,4.2,4.2,0,0,0-1.005-.121,2.751,2.751,0,0,0-1.44.345,1.059,1.059,0,0,0-.569.945.819.819,0,0,0,.21.585,1.576,1.576,0,0,0,.584.375,6.324,6.324,0,0,0,.871.27q.495.12,1.094.27.929.242,1.875.555a8.728,8.728,0,0,1,1.741.8,3.672,3.672,0,0,1,1.274,1.291,4.376,4.376,0,0,1,.54,2.04,4.04,4.04,0,0,1-.75,2.384,5.114,5.114,0,0,1-2.16,1.7,8.359,8.359,0,0,1-3.42.63,7.53,7.53,0,0,1-3.975-.991,4.727,4.727,0,0,1-2.145-3.089Z" fill="#040504"/>
      <path id="Path_5259" data-name="Path 5259" d="M274.736,21.81a2.45,2.45,0,0,1-1.814-.7,2.308,2.308,0,0,1-.706-1.695,2.343,2.343,0,0,1,.706-1.725,2.454,2.454,0,0,1,1.814-.7,2.417,2.417,0,0,1,1.785.7,2.346,2.346,0,0,1,.705,1.725,2.311,2.311,0,0,1-.705,1.695,2.414,2.414,0,0,1-1.785.7" fill="#040504"/>
      <path id="Path_5260" data-name="Path 5260" d="M256.007,4.8a2.208,2.208,0,0,0-1.622-1.247,5.972,5.972,0,0,0-2.128-.17c-1.181.127-1.94,1.714-2.258,2.533a10.71,10.71,0,0,0-4.866,0s0,0,0-.008c-1.05-1.941-2.507-4.221-3.479-4.077-.85.131-1.164,1.722-.924,4.731A.478.478,0,0,0,241.2,7h.039a.478.478,0,0,0,.44-.514,11.115,11.115,0,0,1,.149-3.672,13.441,13.441,0,0,1,2.337,3.327c-.022,0-.044.013-.066.018a.47.47,0,0,0-.322.287.481.481,0,0,0,.571.641c1.086-.288,3.824-.88,5.769-.117a.486.486,0,0,0,.383-.014.474.474,0,0,0,.249-.287c.213-.7.915-2.255,1.6-2.329,1.243-.131,2.551.244,2.747.79a10.635,10.635,0,0,1,.14,2.764,5.1,5.1,0,0,1-.4,2.11,1.484,1.484,0,0,1-.972-.549l-1.622-2.546a.487.487,0,0,0-.663-.144.479.479,0,0,0-.144.662l1.609,2.516a2.368,2.368,0,0,0,1.692,1.016.792.792,0,0,0,.148.013.847.847,0,0,0,.65-.318c.85-1,.789-4.945.466-5.856m-2.973,9.1a.5.5,0,0,0-.2.305.471.471,0,0,0,.078.357,3.344,3.344,0,0,1,.62,3.031.922.922,0,0,1-.733.305.818.818,0,0,1-.375-.17,4.852,4.852,0,0,0-.514-.6.473.473,0,0,0-.624-.044.487.487,0,0,0-.131.615,2.885,2.885,0,0,0,.558.676,1.347,1.347,0,0,1,.205,1.478,3.409,3.409,0,0,1-2.59-1.465.486.486,0,0,0-.575-.175.479.479,0,0,0-.288.528c.235,1.3-.052,1.783-.188,1.932-1.059-.162-2.193-1.91-2.672-3a.48.48,0,0,0-.415-.288.466.466,0,0,0-.44.248,13.235,13.235,0,0,1-2.145,2.813,1.282,1.282,0,0,1-.131.113,2.932,2.932,0,0,1,.048-.519c0-.022,0-.043.009-.069.174-4.086,1.295-4.976,1.325-5a3.312,3.312,0,0,0,.707,1.644.8.8,0,0,0,.558.244.605.605,0,0,0,.087,0c.706-.087,1.692-1.4,1.857-2.259a1.315,1.315,0,0,0-.981-1.517,3.126,3.126,0,0,0-1.024-.1,14.548,14.548,0,0,1,2.071-2.237.474.474,0,0,0,.043-.671.479.479,0,0,0-.676-.044c-.44.388-2.637,2.394-2.733,3.589a4.659,4.659,0,0,0-.009.492.465.465,0,0,0-.379.04c-.266.152-1.6,1.138-1.8,5.751-.091.492-.157,1.351.379,1.652a.721.721,0,0,0,.345.087,1.586,1.586,0,0,0,.955-.492,12.932,12.932,0,0,0,1.875-2.3c.632,1.133,1.805,2.777,3.279,2.794h.008a.438.438,0,0,0,.179-.034c.144-.057.811-.393.907-1.666a3.453,3.453,0,0,0,2.764.833.485.485,0,0,0,.262-.14,2.044,2.044,0,0,0,.432-1.779,2.014,2.014,0,0,0,1.312-.645.508.508,0,0,0,.1-.135,4.16,4.16,0,0,0-.663-4.06.5.5,0,0,0-.675-.117m-8.329.165a1.714,1.714,0,0,1,1.143-.048.365.365,0,0,1,.275.41,2.955,2.955,0,0,1-.968,1.443,4.244,4.244,0,0,1-.45-1.805m-1.072-2.485a.313.313,0,0,0,.061,0,.462.462,0,0,0,.357-.213,1.339,1.339,0,0,0,.2-1.06.39.39,0,0,0-.737-.135,1.244,1.244,0,0,0-.21.506,1.285,1.285,0,0,0,.014.549.431.431,0,0,0,.318.349m6.453,0a.313.313,0,0,0,.061,0,.465.465,0,0,0,.358-.213,1.238,1.238,0,0,0,.209-.51,1.29,1.29,0,0,0-.013-.55.438.438,0,0,0-.319-.344c-.27-.053-.54.257-.627.715s.056.846.331.9" fill="#040504"/>
    </g>
  </g>
</svg>
