<svg xmlns="http://www.w3.org/2000/svg" width="17.323" height="8.971" viewBox="0 0 17.323 8.971">
  <g id="Group_208" data-name="Group 208" transform="translate(-371.104 -27.402)">
    <path id="Path_28" data-name="Path 28" d="M1920.76,1007.622c0-.3.353-.553.787-.553H1937.3c.435,0,.788.248.788.553s-.353.552-.788.552h-15.749C1921.113,1008.174,1920.76,1007.926,1920.76,1007.622Z" transform="translate(-1549.656 -971.801)" fill-rule="evenodd"/>
    <path id="Path_29" data-name="Path 29" d="M1920.76,999.218c0-.61.353-1.1.787-1.1H1937.3c.435,0,.788.495.788,1.1s-.353,1.105-.788,1.105h-15.749C1921.113,1000.323,1920.76,999.829,1920.76,999.218Z" transform="translate(-1549.656 -970.712)" fill-rule="evenodd"/>
  </g>
</svg>
