<svg xmlns="http://www.w3.org/2000/svg" xmlns:xlink="http://www.w3.org/1999/xlink" width="193" height="393" viewBox="0 0 193 393">
  <defs>
    <clipPath id="clip-path">
      <rect id="Rectangle_164" data-name="Rectangle 164" width="193" height="393" transform="translate(219 894)" fill="#fff" stroke="#707070" stroke-width="1"/>
    </clipPath>
  </defs>
  <g id="Mask_Group_13" data-name="Mask Group 13" transform="translate(-219 -894)" clip-path="url(#clip-path)">
    <rect id="Rectangle_163" data-name="Rectangle 163" width="1335.6" height="1164.5" transform="translate(195 1038.481)" fill="none"/>
    <path id="Path_5243" data-name="Path 5243" d="M727.11,385.056c-3.478-9.768-13.024-17.094-27.529-21.164a101.393,101.393,0,0,0-36.113-2.886c-20.054,2.146-32.931,29.083-38.333,42.995-27.529-8.214-60.385-4.44-82.586,0,0-.074-.074-.074-.074-.148-17.834-32.931-42.551-71.633-59.053-69.191-14.43,2.22-19.758,29.231-15.688,80.292a8.13,8.13,0,0,0,8.066,7.474h.666a8.109,8.109,0,0,0,5.55-2.812,8.193,8.193,0,0,0,1.924-5.92c-2.516-31.377-.222-56.389,2.516-62.309,5.92,3.848,22.644,25.753,39.665,56.463-.37.074-.74.222-1.11.3a8.048,8.048,0,0,0-5.476,4.884,8.172,8.172,0,0,0,9.694,10.878c18.426-4.884,64.9-14.948,97.9-2a8.306,8.306,0,0,0,6.512-.222,8.092,8.092,0,0,0,4.218-4.884c3.626-11.84,15.54-38.259,27.233-39.517,21.09-2.22,43.291,4.144,46.621,13.394,2,5.624,3.478,26.271,2.368,46.917-1.258,23.532-5.106,33.3-6.734,35.817-12.358-2.664-16.28-9.028-16.5-9.324L663.32,420.873a8.273,8.273,0,0,0-11.248-2.442,8.129,8.129,0,0,0-2.442,11.248l27.307,42.7c.3.518,7.326,13.246,28.713,17.242a13.838,13.838,0,0,0,2.516.222,14.39,14.39,0,0,0,11.026-5.4h0c14.43-16.946,13.394-83.918,7.918-99.384ZM676.641,539.423a8.5,8.5,0,0,0-3.4,5.18,8.019,8.019,0,0,0,1.332,6.068c17.908,25.974,12.358,46.4,10.508,51.431-4.44,4-8.584,5.772-12.432,5.18a13.928,13.928,0,0,1-6.364-2.886,82.818,82.818,0,0,0-8.732-10.138,8.024,8.024,0,0,0-10.582-.74,8.239,8.239,0,0,0-2.22,10.434,48.6,48.6,0,0,0,9.472,11.47c8.436,12.58,5.7,21.238,3.478,25.086-25.086,1.85-43.809-24.642-43.957-24.864a8.261,8.261,0,0,0-9.768-2.96,8.122,8.122,0,0,0-4.884,8.954c4,21.978-.888,30.267-3.182,32.783-17.982-2.738-37.223-32.413-45.363-50.913a8.139,8.139,0,0,0-7.03-4.884,7.9,7.9,0,0,0-7.474,4.218c-.148.3-16.354,29.231-36.409,47.731a22.572,22.572,0,0,1-2.22,1.924,49.873,49.873,0,0,1,.814-8.806c.074-.37.074-.74.148-1.184,2.96-69.339,21.978-84.436,22.5-84.88,2.22,11.544,6.438,22.57,11.988,27.9a13.578,13.578,0,0,0,9.472,4.144,9.438,9.438,0,0,0,1.48-.074c11.988-1.48,28.713-23.828,31.525-38.333a22.328,22.328,0,0,0-16.65-25.753,53.234,53.234,0,0,0-17.39-1.628c8.214-11.914,23.311-27.455,35.151-37.963a8.057,8.057,0,0,0,.74-11.4,8.193,8.193,0,0,0-5.624-2.738,8.074,8.074,0,0,0-5.846,2c-7.474,6.586-44.771,40.627-46.4,60.9a77.426,77.426,0,0,0-.148,8.362,7.9,7.9,0,0,0-6.438.666c-4.514,2.59-27.085,19.314-30.489,97.608-1.554,8.362-2.664,22.94,6.438,28.047a12.248,12.248,0,0,0,5.846,1.48c7.178,0,13.69-6.068,16.206-8.362,13.468-12.506,25.012-28.639,31.821-39.073,10.73,19.24,30.637,47.139,55.649,47.435h.148a7.389,7.389,0,0,0,3.034-.592c2.442-.962,13.764-6.66,15.392-28.269,11.174,9.028,27.381,17.464,46.917,14.134a8.178,8.178,0,0,0,4.44-2.368,34.757,34.757,0,0,0,7.326-30.193c7.622-.3,15.1-4,22.274-10.952a8.58,8.58,0,0,0,1.628-2.294c.592-1.258,14.652-31.229-11.248-68.9a8.507,8.507,0,0,0-11.47-2ZM535.3,542.235c6.29-3.33,14.726-2,19.388-.814a6.165,6.165,0,0,1,4.662,6.956c-1.85,9.768-11.914,21.238-16.428,24.494-2.664-4-7.252-17.316-7.622-30.637Zm-18.2-42.181a4.887,4.887,0,0,0,1.036.074c2.146,0,4.292-1.258,6.068-3.626a20.936,20.936,0,0,0,3.552-8.658,20.577,20.577,0,0,0-.222-9.324c-.962-3.33-2.886-5.328-5.4-5.846-2.516-.444-5.032.814-7.1,3.552a21.027,21.027,0,0,0-3.552,8.584,21.717,21.717,0,0,0,.222,9.324c.962,3.4,2.886,5.476,5.4,5.92Zm109.522,0a4.888,4.888,0,0,0,1.036.074c2.146,0,4.292-1.258,6.068-3.626a20.936,20.936,0,0,0,3.552-8.658,21.717,21.717,0,0,0-.222-9.324c-.962-3.33-2.886-5.328-5.4-5.846-4.588-.888-9.176,4.366-10.656,12.136-1.48,7.918.962,14.356,5.624,15.244Z" transform="translate(-231.079 578.705)" fill="#fff"/>
  </g>
</svg>
