<?xml version="1.0" encoding="utf-8"?>
<!-- Generator: Adobe Illustrator 27.0.1, SVG Export Plug-In . SVG Version: 6.00 Build 0)  -->
<svg version="1.1" id="Layer_1" xmlns="http://www.w3.org/2000/svg" xmlns:xlink="http://www.w3.org/1999/xlink" x="0px" y="0px"
	 viewBox="0 0 1335.6 1164.5" style="enable-background:new 0 0 1335.6 1164.5;" xml:space="preserve">
<style type="text/css">
	.st0{fill:#050505;}
</style>
<path class="st0" d="M818.7,402.8c-4.7-13.2-17.6-23.1-37.2-28.6c-14.7-4.1-32.9-5.6-48.8-3.9c-27.1,2.9-44.5,39.3-51.8,58.1
	c-37.2-11.1-81.6-6-111.6,0c0-0.1-0.1-0.1-0.1-0.2c-24.1-44.5-57.5-96.8-79.8-93.5c-19.5,3-26.7,39.5-21.2,108.5
	c0.5,5.7,5.2,10.1,10.9,10.1c0.3,0,0.6,0,0.9,0c2.9-0.2,5.6-1.6,7.5-3.8s2.8-5.1,2.6-8c-3.4-42.4-0.3-76.2,3.4-84.2
	c8,5.2,30.6,34.8,53.6,76.3c-0.5,0.1-1,0.3-1.5,0.4c-3.4,0.9-6.1,3.3-7.4,6.6c-1.3,3.3-0.9,7,1,10c2.6,4,7.5,5.9,12.1,4.7
	c24.9-6.6,87.7-20.2,132.3-2.7c2.8,1.1,6,1,8.8-0.3s4.8-3.8,5.7-6.6c4.9-16,21-51.7,36.8-53.4c28.5-3,58.5,5.6,63,18.1
	c2.7,7.6,4.7,35.5,3.2,63.4c-1.7,31.8-6.9,45-9.1,48.4c-16.7-3.6-22-12.2-22.3-12.6l-37.2-58.4c-3.3-5-10.1-6.5-15.2-3.3
	c-2.5,1.6-4.1,4-4.8,6.9c-0.6,2.9-0.1,5.8,1.5,8.3l36.9,57.7c0.4,0.7,9.9,17.9,38.8,23.3c1.1,0.2,2.2,0.3,3.4,0.3
	c3.9,0,9.7-1.3,14.9-7.3l0,0C827.5,514.2,826.1,423.7,818.7,402.8L818.7,402.8z M750.5,611.4c-2.4,1.7-4,4.2-4.6,7
	c-0.5,2.9,0.1,5.8,1.8,8.2c24.2,35.1,16.7,62.7,14.2,69.5c-6,5.4-11.6,7.8-16.8,7c-2.8-0.4-5.7-1.7-8.6-3.9
	c-3.3-4.6-7.3-9.2-11.8-13.7c-3.8-3.9-10-4.3-14.3-1s-5.6,9.3-3,14.1c0.2,0.3,4.7,8.4,12.8,15.5c11.4,17,7.7,28.7,4.7,33.9
	c-33.9,2.5-59.2-33.3-59.4-33.6c-2.9-4.2-8.5-5.9-13.2-4c-4.8,2-7.5,7-6.6,12.1c5.4,29.7-1.2,40.9-4.3,44.3
	c-24.3-3.7-50.3-43.8-61.3-68.8c-1.7-3.8-5.3-6.4-9.5-6.6c-4.3-0.2-8,1.9-10.1,5.7c-0.2,0.4-22.1,39.5-49.2,64.5
	c-1.1,1.1-2.1,1.9-3,2.6c0-3.3,0.3-7.6,1.1-11.9c0.1-0.5,0.1-1,0.2-1.6c4-93.7,29.7-114.1,30.4-114.7c3,15.6,8.7,30.5,16.2,37.7
	c4.8,4.6,9.6,5.6,12.8,5.6c0.7,0,1.4,0,2-0.1c16.2-2,38.8-32.2,42.6-51.8c3-15.6-6.9-30.9-22.5-34.8c-8.3-2.1-16.2-2.8-23.5-2.2
	c11.1-16.1,31.5-37.1,47.5-51.3c2.2-1.9,3.5-4.6,3.7-7.5s-0.8-5.7-2.7-7.9c-2-2.2-4.6-3.5-7.6-3.7c-2.9-0.2-5.7,0.8-7.9,2.7
	c-10.1,8.9-60.5,54.9-62.7,82.3c-0.3,3.5-0.3,7.4-0.2,11.3c-2.8-0.9-6-0.7-8.7,0.9c-6.1,3.5-36.6,26.1-41.2,131.9
	c-2.1,11.3-3.6,31,8.7,37.9c2.4,1.3,5.1,2,7.9,2c9.7,0,18.5-8.2,21.9-11.3c18.2-16.9,33.8-38.7,43-52.8c14.5,26,41.4,63.7,75.2,64.1
	h0.2c1.4,0,2.7-0.2,4.1-0.8c3.3-1.3,18.6-9,20.8-38.2c15.1,12.2,37,23.6,63.4,19.1c2.3-0.4,4.3-1.5,6-3.2
	c0.7-0.7,15.1-16.4,9.9-40.8c10.3-0.4,20.4-5.4,30.1-14.8c0.9-0.9,1.6-1.9,2.2-3.1c0.8-1.7,19.8-42.2-15.2-93.1
	C762.3,609.3,755.5,608,750.5,611.4L750.5,611.4z M559.5,615.2c8.5-4.5,19.9-2.7,26.2-1.1c4.3,1.1,7.1,5.3,6.3,9.4
	c-2.5,13.2-16.1,28.7-22.2,33.1C566.2,651.2,560,633.2,559.5,615.2L559.5,615.2z M534.9,558.2c0.5,0.1,0.9,0.1,1.4,0.1
	c2.9,0,5.8-1.7,8.2-4.9c2.3-3,3.9-7.1,4.8-11.7s0.7-9-0.3-12.6c-1.3-4.5-3.9-7.2-7.3-7.9c-3.4-0.6-6.8,1.1-9.6,4.8
	c-2.3,3-3.9,7.1-4.8,11.6c-0.8,4.5-0.7,9,0.3,12.6C528.9,554.8,531.5,557.6,534.9,558.2L534.9,558.2z M682.9,558.2
	c0.5,0.1,0.9,0.1,1.4,0.1c2.9,0,5.8-1.7,8.2-4.9c2.2-3,4-7.1,4.8-11.7c0.8-4.5,0.7-9-0.3-12.6c-1.3-4.5-3.9-7.2-7.3-7.9
	c-6.2-1.2-12.4,5.9-14.4,16.4C673.3,548.3,676.6,557,682.9,558.2L682.9,558.2z"/>
</svg>
