<svg xmlns="http://www.w3.org/2000/svg" width="171.026" height="115.636" viewBox="0 0 171.026 115.636">
  <g id="Sello_Logo" data-name="Sello Logo" transform="translate(6.18 25.631)">
    <rect id="Rectangle_122" data-name="Rectangle 122" width="143.269" height="115.636" transform="translate(-6.18 -25.631)" fill="none"/>
    <g id="Group_198" data-name="Group 198" transform="translate(-4.925 -3.718)">
      <g id="Group_195" data-name="Group 195" transform="translate(56.81 16.615)">
        <path id="Path_5092" data-name="Path 5092" d="M486.385,483.634h-2.827a6.976,6.976,0,0,1,0-13.952h5.676V462.82a8.388,8.388,0,0,1-12.653-7.225V444.73h4.129v10.864a4.262,4.262,0,1,0,8.524,0V444.73h4.129v24.954h20.557v4.129H493.362v2.847a6.984,6.984,0,0,1-6.976,6.976Zm-2.827-9.823a2.847,2.847,0,1,0,0,5.694h2.827a2.851,2.851,0,0,0,2.847-2.847v-2.847h-5.676Z" transform="translate(-476.58 -444.384)"/>
        <path id="Path_5093" data-name="Path 5093" d="M779.134,463.977H767.58V444.72h4.129v15.126h7.425Z" transform="translate(-726.361 -444.376)"/>
        <path id="Path_5094" data-name="Path 5094" d="M875.464,463.977H863.91V444.72h4.13v15.126h7.424Z" transform="translate(-809.046 -444.376)"/>
        <path id="Path_5095" data-name="Path 5095" d="M969.742,466.453a9.492,9.492,0,1,1,9.492-9.492A9.5,9.5,0,0,1,969.742,466.453Zm0-14.854a5.363,5.363,0,1,0,5.363,5.363A5.368,5.368,0,0,0,969.742,451.6Z" transform="translate(-891.74 -446.736)"/>
        <path id="Path_5096" data-name="Path 5096" d="M1117.757,464.093a6.815,6.815,0,0,1-6.807-6.808V444.72h4.129v12.565a2.679,2.679,0,0,0,5.357,0v-7.657h4.129v7.657A6.815,6.815,0,0,1,1117.757,464.093Z" transform="translate(-1021.094 -444.376)"/>
        <path id="Path_5097" data-name="Path 5097" d="M1184.757,464.093a6.815,6.815,0,0,1-6.807-6.808v-7.657h4.129v7.657a2.679,2.679,0,1,0,5.357,0V444.72h4.129v12.565A6.815,6.815,0,0,1,1184.757,464.093Z" transform="translate(-1078.604 -444.376)"/>
        <path id="Path_5098" data-name="Path 5098" d="M628.188,462.071a9.3,9.3,0,0,1-4.907-1.289,9.051,9.051,0,0,1-3.349-3.56,10.854,10.854,0,0,1-1.212-5.2,10.1,10.1,0,0,1,1.193-5,8.931,8.931,0,0,1,8.044-4.734,9.609,9.609,0,0,1,4.772,1.174,8.256,8.256,0,0,1,3.232,3.272,9.56,9.56,0,0,1,1.116,4.83q0,.461-.038.943t-.115,1.058H622.683a5.748,5.748,0,0,0,.865,2.714,5.343,5.343,0,0,0,1.925,1.829,5.4,5.4,0,0,0,2.674.654,7.087,7.087,0,0,0,3.349-.751,4.3,4.3,0,0,0,2-2.021l3.156,1.116a8.5,8.5,0,0,1-3.368,3.656,9.83,9.83,0,0,1-5.1,1.309Zm4.926-11.623a4.65,4.65,0,0,0-.693-2.5,4.91,4.91,0,0,0-1.867-1.751,5.45,5.45,0,0,0-2.636-.635,4.725,4.725,0,0,0-2.405.635,5.663,5.663,0,0,0-1.847,1.732,5.773,5.773,0,0,0-.943,2.521h10.393Z" transform="translate(-598.586 -442.29)"/>
      </g>
      <g id="Group_196" data-name="Group 196">
        <path id="Path_5099" data-name="Path 5099" d="M125.391,334.676c-.667-1.875-2.487-3.276-5.264-4.055a19.422,19.422,0,0,0-6.905-.555c-3.834.4-6.3,5.567-7.33,8.224-5.262-1.575-11.553-.853-15.811,0a.292.292,0,0,1-.013-.031c-3.409-6.3-8.142-13.706-11.3-13.241-2.766.425-3.776,5.595-3,15.369a1.56,1.56,0,0,0,1.545,1.429c.04,0,.079,0,.125-.006a1.552,1.552,0,0,0,1.425-1.67c-.476-6-.047-10.8.487-11.934,1.129.737,4.337,4.922,7.6,10.81l-.214.057a1.561,1.561,0,0,0,.806,3.017c3.528-.941,12.419-2.858,18.737-.387a1.545,1.545,0,0,0,2.057-.982c.7-2.271,2.982-7.326,5.218-7.561,4.035-.431,8.291.792,8.927,2.564.384,1.075.667,5.026.458,8.976-.246,4.5-.977,6.374-1.285,6.851a4.778,4.778,0,0,1-3.157-1.786l-5.272-8.269a1.564,1.564,0,0,0-2.146-.463,1.551,1.551,0,0,0-.467,2.143l5.221,8.176c.055.1,1.407,2.534,5.5,3.3a2.67,2.67,0,0,0,.482.042,2.72,2.72,0,0,0,2.1-1.033h0c2.731-3.205,2.54-16.029,1.483-18.985Z" transform="translate(-75.512 -324.993)"/>
        <path id="Path_5100" data-name="Path 5100" d="M132.685,523.6a1.551,1.551,0,0,0-.4,2.159c3.425,4.977,2.364,8.877,2.011,9.85a3.016,3.016,0,0,1-2.373.994,2.7,2.7,0,0,1-1.22-.548,16.153,16.153,0,0,0-1.669-1.936,1.552,1.552,0,0,0-2.455,1.85,9.054,9.054,0,0,0,1.807,2.2c1.611,2.408,1.095,4.06.667,4.807-4.8.354-8.378-4.711-8.412-4.761a1.552,1.552,0,0,0-2.809,1.152c.765,4.21-.176,5.8-.606,6.278-3.442-.521-7.13-6.205-8.68-9.749a1.546,1.546,0,0,0-1.351-.929,1.523,1.523,0,0,0-1.431.8A43.228,43.228,0,0,1,98.8,544.9c-.163.15-.3.271-.426.37a8.8,8.8,0,0,1,.152-1.681,2.09,2.09,0,0,0,.027-.225c.561-13.268,4.2-16.156,4.309-16.241.425,2.214,1.227,4.324,2.29,5.344a2.6,2.6,0,0,0,1.812.788,2.233,2.233,0,0,0,.285-.018c2.29-.286,5.5-4.554,6.033-7.343a4.282,4.282,0,0,0-3.193-4.931,10.091,10.091,0,0,0-3.323-.309,47.059,47.059,0,0,1,6.734-7.273,1.552,1.552,0,0,0-2.06-2.322c-1.429,1.266-8.57,7.779-8.885,11.652a13.6,13.6,0,0,0-.024,1.606,1.545,1.545,0,0,0-1.238.126c-.861.492-5.184,3.7-5.839,18.679-.293,1.6-.51,4.4,1.238,5.37a2.271,2.271,0,0,0,1.116.288,5.141,5.141,0,0,0,3.1-1.6A41.265,41.265,0,0,0,107,539.7c2.054,3.677,5.858,9.017,10.648,9.082h.028a1.479,1.479,0,0,0,.574-.112c.465-.187,2.642-1.28,2.943-5.417a11.189,11.189,0,0,0,8.975,2.7,1.558,1.558,0,0,0,.856-.45,6.679,6.679,0,0,0,1.4-5.781,6.547,6.547,0,0,0,4.264-2.1,1.562,1.562,0,0,0,.313-.435c.116-.241,2.8-5.984-2.159-13.187a1.553,1.553,0,0,0-2.157-.4Zm-27.061.535a5.573,5.573,0,0,1,3.711-.159,1.188,1.188,0,0,1,.9,1.337,9.664,9.664,0,0,1-3.142,4.694,13.79,13.79,0,0,1-1.466-5.874Z" transform="translate(-92.459 -484.37)"/>
        <path id="Path_5101" data-name="Path 5101" d="M136.919,517a1.145,1.145,0,0,0,.2.018,1.5,1.5,0,0,0,1.163-.693,4.322,4.322,0,0,0,.63-3.432,1.266,1.266,0,0,0-2.39-.438,4.317,4.317,0,0,0-.63,3.431A1.4,1.4,0,0,0,136.919,517Z" transform="translate(-127.229 -485.306)"/>
        <path id="Path_5102" data-name="Path 5102" d="M284.853,516.991a1.139,1.139,0,0,0,.2.018,1.5,1.5,0,0,0,1.163-.693,4.322,4.322,0,0,0,.63-3.432,1.4,1.4,0,0,0-1.03-1.113c-.885-.166-1.762.837-2.035,2.324s.191,2.734,1.078,2.9Z" transform="translate(-254.21 -485.3)"/>
      </g>
      <g id="Group_197" data-name="Group 197" transform="translate(97.819 38.184)">
        <path id="Path_5103" data-name="Path 5103" d="M771.379,638.405a5.376,5.376,0,0,1-2.758-.69,4.831,4.831,0,0,1-1.853-1.929,5.973,5.973,0,0,1-.669-2.875,6.055,6.055,0,0,1,.679-2.909,5.02,5.02,0,0,1,1.874-1.96,5.307,5.307,0,0,1,2.768-.711,5.487,5.487,0,0,1,3.017.84,4.656,4.656,0,0,1,1.874,2.262l-2.543.732a2.208,2.208,0,0,0-.872-.991,2.516,2.516,0,0,0-1.347-.367,2.3,2.3,0,0,0-1.326.388,2.527,2.527,0,0,0-.884,1.078,3.888,3.888,0,0,0-.313,1.616,3.335,3.335,0,0,0,.69,2.22,2.3,2.3,0,0,0,1.853.819,2.585,2.585,0,0,0,1.336-.356,2.25,2.25,0,0,0,.905-.98l2.542.732a4.745,4.745,0,0,1-1.928,2.241,5.647,5.647,0,0,1-3.048.84Z" transform="translate(-766.1 -622.689)"/>
        <path id="Path_5104" data-name="Path 5104" d="M870.249,638.414a5.7,5.7,0,0,1-2.8-.678,4.893,4.893,0,0,1-1.928-1.918,6.416,6.416,0,0,1,.023-5.871,4.99,4.99,0,0,1,1.972-1.928,6.118,6.118,0,0,1,5.6,0,5.084,5.084,0,0,1,1.982,1.918,5.626,5.626,0,0,1,.732,2.919,5.7,5.7,0,0,1-.744,2.952,5.123,5.123,0,0,1-2,1.929,5.885,5.885,0,0,1-2.833.678Zm-.021-2.477a2.566,2.566,0,0,0,2.263-1.347,4.077,4.077,0,0,0,.021-3.426,2.478,2.478,0,0,0-.959-1.013,2.573,2.573,0,0,0-1.282-.334,2.349,2.349,0,0,0-2.156,1.347,3.827,3.827,0,0,0-.344,1.734,3.716,3.716,0,0,0,.334,1.691,2.286,2.286,0,0,0,2.122,1.347Z" transform="translate(-850.837 -622.698)"/>
        <path id="Path_5105" data-name="Path 5105" d="M968.761,598.389a4.543,4.543,0,0,1,.507-2.283,2.872,2.872,0,0,1,1.508-1.272,5.3,5.3,0,0,1,2.51-.215v2.435a1.576,1.576,0,0,0-1.347.259,1.616,1.616,0,0,0-.4,1.207v.84h1.853v2.435h-1.853v8.337h-2.779v-8.337H967.49v-2.435h1.272v-.969Z" transform="translate(-938.964 -594.565)"/>
        <path id="Path_5106" data-name="Path 5106" d="M1034.171,598.389a4.542,4.542,0,0,1,.507-2.283,2.872,2.872,0,0,1,1.508-1.272,5.3,5.3,0,0,1,2.51-.215v2.435a1.577,1.577,0,0,0-1.347.259,1.616,1.616,0,0,0-.4,1.207v.84h1.853v2.435h-1.853v8.337h-2.779v-8.337H1032.9v-2.435h1.272v-.969Z" transform="translate(-995.109 -594.565)"/>
        <path id="Path_5107" data-name="Path 5107" d="M1103.729,638.414a5.567,5.567,0,0,1-2.844-.711,4.921,4.921,0,0,1-1.906-1.982,6.133,6.133,0,0,1-.678-2.931,5.631,5.631,0,0,1,.678-2.823,5,5,0,0,1,1.864-1.928,5.241,5.241,0,0,1,2.714-.7,5.508,5.508,0,0,1,2.737.669,4.7,4.7,0,0,1,1.843,1.864,5.707,5.707,0,0,1,.657,2.79,4.874,4.874,0,0,1-.033.528c-.021.194-.047.4-.075.615h-7.411a2.419,2.419,0,0,0,1.326,1.928,2.587,2.587,0,0,0,1.2.269,3.115,3.115,0,0,0,1.432-.323,1.991,1.991,0,0,0,.916-.884l2.435.732a4.767,4.767,0,0,1-1.918,2.133,5.631,5.631,0,0,1-2.929.754Zm2.047-6.615a2.164,2.164,0,0,0-.323-1.088,2.12,2.12,0,0,0-.8-.754,2.26,2.26,0,0,0-1.1-.269,2.015,2.015,0,0,0-1.013.269,2.488,2.488,0,0,0-.807.744,2.677,2.677,0,0,0-.442,1.1h4.482Z" transform="translate(-1051.245 -622.698)"/>
        <path id="Path_5108" data-name="Path 5108" d="M1204.119,638.414a5.566,5.566,0,0,1-2.844-.711,4.92,4.92,0,0,1-1.907-1.982,6.133,6.133,0,0,1-.678-2.931,5.631,5.631,0,0,1,.678-2.823,5,5,0,0,1,1.864-1.928,5.24,5.24,0,0,1,2.714-.7,5.508,5.508,0,0,1,2.737.669,4.7,4.7,0,0,1,1.843,1.864,5.705,5.705,0,0,1,.657,2.79,4.9,4.9,0,0,1-.032.528c-.021.194-.047.4-.075.615h-7.411a2.419,2.419,0,0,0,1.326,1.928,2.587,2.587,0,0,0,1.2.269,3.114,3.114,0,0,0,1.432-.323,1.991,1.991,0,0,0,.917-.884l2.435.732a4.765,4.765,0,0,1-1.918,2.133,5.631,5.631,0,0,1-2.929.754Zm2.047-6.615a2.165,2.165,0,0,0-.323-1.088,2.12,2.12,0,0,0-.8-.754,2.259,2.259,0,0,0-1.1-.269,2.016,2.016,0,0,0-1.013.269,2.488,2.488,0,0,0-.807.744,2.677,2.677,0,0,0-.442,1.1h4.482Z" transform="translate(-1137.416 -622.698)"/>
      </g>
    </g>
  </g>
</svg>
