<svg xmlns="http://www.w3.org/2000/svg" width="17.534" height="20.038" viewBox="0 0 17.534 20.038">
  <path id="Path_5091" data-name="Path 5091" d="M2267.349,996.489a3.131,3.131,0,0,0-6.263,0v.626h6.263Zm1.252,0v.626h4.384v12.524a2.5,2.5,0,0,1-2.505,2.5h-12.524a2.5,2.5,0,0,1-2.505-2.5V997.115h4.384v-.626a4.383,4.383,0,0,1,8.766,0Zm3.131,13.151V998.368H2256.7v11.272a1.253,1.253,0,0,0,1.252,1.253h12.524A1.253,1.253,0,0,0,2271.732,1009.64Zm-7.515-7.523c2.084-2.143,7.3,1.607,0,6.427C2256.923,1003.722,2262.134,999.973,2264.218,1002.117Z" transform="translate(-2255.451 -992.106)" fill-rule="evenodd" opacity="0.8"/>
</svg>
