<svg id="Group_330" data-name="Group 330" xmlns="http://www.w3.org/2000/svg" xmlns:xlink="http://www.w3.org/1999/xlink" width="43.258" height="40.128" viewBox="0 0 43.258 40.128">
  <defs>
    <clipPath id="clip-path">
      <rect id="Rectangle_176" data-name="Rectangle 176" width="43.258" height="40.128" fill="none" stroke="#707070" stroke-width="1"/>
    </clipPath>
  </defs>
  <g id="Group_329" data-name="Group 329" clip-path="url(#clip-path)">
    <path id="Path_5331" data-name="Path 5331" d="M7.533,12.5a19.133,19.133,0,0,1,4-5.828A19.335,19.335,0,0,1,40.109,32.654" transform="translate(-2.017 -0.268)" fill="none" stroke="#231f20" stroke-linecap="round" stroke-linejoin="round" stroke-width="1"/>
    <path id="Path_5332" data-name="Path 5332" d="M15.113,47.911a19.334,19.334,0,0,0,24.441-.161" transform="translate(-4.047 -12.787)" fill="none" stroke="#231f20" stroke-linecap="round" stroke-linejoin="round" stroke-width="1"/>
    <circle id="Ellipse_3" data-name="Ellipse 3" cx="11.128" cy="11.128" r="11.128" transform="translate(12.06 8.939)" fill="none" stroke="#231f20" stroke-linecap="round" stroke-linejoin="round" stroke-width="1"/>
    <path id="Path_5333" data-name="Path 5333" d="M42.679,41l4.643,4.643a1.494,1.494,0,0,0,2.112,0l.472-.472a1.493,1.493,0,0,0,0-2.112l-4.643-4.643" transform="translate(-11.429 -10.287)" fill="none" stroke="#231f20" stroke-linecap="round" stroke-linejoin="round" stroke-width="1"/>
    <path id="Path_5334" data-name="Path 5334" d="M37.31,17.879s-8.263-1.115-8.441,6.431-8.557,7.938-8.557,7.938" transform="translate(-5.439 -4.772)" fill="none" stroke="#231f20" stroke-linecap="round" stroke-linejoin="round" stroke-width="1"/>
    <circle id="Ellipse_4" data-name="Ellipse 4" cx="13.347" cy="13.347" r="13.347" transform="translate(9.867 6.694)" fill="none" stroke="#231f20" stroke-linecap="round" stroke-linejoin="round" stroke-width="1"/>
    <path id="Path_5335" data-name="Path 5335" d="M9.361,41.609h0a2.569,2.569,0,0,1-3.1-1.9L1.073,18.147a2.568,2.568,0,0,1,4.993-1.2l5.191,21.566A2.568,2.568,0,0,1,9.361,41.609Z" transform="translate(-0.268 -4.011)" fill="none" stroke="#231f20" stroke-linecap="round" stroke-linejoin="round" stroke-width="1"/>
  </g>
</svg>
