<svg xmlns="http://www.w3.org/2000/svg" width="43.271" height="50.433" viewBox="0 0 43.271 50.433">
  <g id="sin_sombraCafe_con_logo" data-name="sin sombraCafe con logo" transform="translate(-71.99 -42.728)">
    <path id="Path_5347" data-name="Path 5347" d="M114.96,83.709c-.231-2.811-.572-5.6-.961-8.384s-.852-5.549-1.363-8.3c-.475-2.519-1-5.026-1.594-7.52-.45-1.886-.937-3.76-1.521-5.6.073-.012.146-.012.207-.024a1.457,1.457,0,0,0,.986-.621,1.815,1.815,0,0,0,.11-1.448c-.633-2.665-1.533-5.732-4.137-7.119a8,8,0,0,0-1.837-.633c-.876-.219-1.777-.365-2.677-.5-2.531-.365-5.087-.572-7.642-.694q-4.472-.219-8.968-.1c-1.5.049-2.981.122-4.478.231-.73.061-1.448.122-2.178.195a3.442,3.442,0,0,0-1.217.243,1.621,1.621,0,0,0-.742.767,1.806,1.806,0,0,0-.146.5,105.844,105.844,0,0,0-2.385,11.658c-.621,3.979-1.071,7.983-1.436,11.986q-.475,5.33-.706,10.66c-.122,2.616-.207,5.22-.243,7.837-.012,1.144-.061,2.3-.024,3.444v.049a.6.6,0,0,0,.45.584,56.886,56.886,0,0,0,7.119,1.631c1.29.219,2.58.414,3.882.56a21.684,21.684,0,0,0,2.178.037c.718,0,1.5-.012,2.239-.024,3.006-.037,6.024-.134,9.029-.268,2.921-.122,5.841-.292,8.762-.475,2.689-.17,5.366-.377,8.056-.6l.925-.073a.618.618,0,0,0,.608-.608,71.617,71.617,0,0,0-.292-7.4ZM109.678,52.63c0-.012.012-.012.012-.024h.012Zm.024-.037Zm0,.012Zm-2.02-5.5ZM78.331,44.489a.053.053,0,0,1-.036.012C78.307,44.5,78.319,44.489,78.331,44.489Zm-.28.28v-.012q.012-.037.012-.024c.012-.024.012-.037.024-.037a.011.011,0,0,1,.012-.012l-.012.012.024-.024c.024-.037.012-.024.012-.012a.21.21,0,0,0,.037-.049c.012-.012.024-.012.024-.024h0c.012-.012.024-.012.024-.024s.036-.024.061-.037h.012c.036-.012.085-.024.122-.037.012,0,.024-.012.037-.012a.414.414,0,0,0,.122-.012l1.01-.11c1.436-.134,2.884-.231,4.32-.3q4.417-.2,8.822-.049c2.592.085,5.184.243,7.764.548.268.037.535.061.8.1.037,0,.073.012.11.012a.132.132,0,0,1,.061.012h-.024c-.11-.012.012,0,.024,0,.036,0,.073.012.11.012.134.012.256.037.389.061.475.073.937.146,1.4.231a16.82,16.82,0,0,1,2.154.523c.122.037.243.085.365.134.012.012.037.012.049.024l.146.073a3.352,3.352,0,0,1,.353.207l.219.146c.036.024.061.049.1.073a.012.012,0,0,1,.012.012c.012,0,.012.012.024.024a6.226,6.226,0,0,1,.706.681c.049.061.1.11.146.17.024.024.037.049.061.073l.012.012c.11.146.207.292.3.45a9.574,9.574,0,0,1,.475.852c.073.146.134.292.207.438v.012c.012.049.037.085.049.134a1.733,1.733,0,0,1,.1.268c.122.3.219.621.316.937.195.633.353,1.266.5,1.9.012.049.024.11.037.158a.43.43,0,0,1,.012.073.432.432,0,0,0,.012.085c0,.012-.012.1,0,.11a.045.045,0,0,1-.012.037l-.024.024c-.012,0-.012.012-.024.012s-.049.024-.061.024h-.012a.432.432,0,0,1-.122.024c-.012,0-.024.012-.037.012h-.158a2.155,2.155,0,0,1-.28-.012c-.049,0-.085-.012-.134-.012H108.8c-.049-.012-.1-.012-.146-.024s-.1-.012-.158-.024l-.791-.11c-.45-.061-.9-.11-1.351-.17-1.813-.207-3.626-.341-5.452-.414a74.848,74.848,0,0,0-10.952.377c-.937.1-1.874.219-2.811.353-.438.061-.876.134-1.314.207-.195.036-.389.061-.584.085h-.012c-.049.012-.11.012-.158.024a2.982,2.982,0,0,1-.329.024c-.183.012-.353.012-.535.012-.073,0-.146-.012-.207-.012-.024,0-.073-.012-.085-.012l-.146-.037a2.269,2.269,0,0,1-.268-.085.092.092,0,0,1-.049-.024c-.037-.012-.073-.037-.11-.049a1.8,1.8,0,0,1-.158-.1.213.213,0,0,1-.061-.049,2.628,2.628,0,0,1-.3-.329.265.265,0,0,0-.049-.061c-.049-.073-.11-.146-.158-.219-.134-.195-.28-.389-.414-.6-.511-.754-1.01-1.509-1.509-2.276.584-.84,1.168-1.667,1.764-2.507a.453.453,0,1,0-.779-.462c-.5.718-1.01,1.424-1.509,2.142-.219-.341-.438-.681-.657-1.01.389-.511.791-1.022,1.18-1.533a.45.45,0,0,0,.049-.353.42.42,0,0,0-.207-.268.45.45,0,0,0-.353-.049.5.5,0,0,0-.268.207c-.3.4-.608.791-.913,1.193-.134-.195-.256-.4-.389-.6s-.243-.377-.377-.572c-.049-.085-.11-.17-.158-.256l-.024-.049c-.012-.024-.012-.049-.024-.073v-.012q0,.012-.012-.037v-.024h0v-.085a.527.527,0,0,1,.012-.061.012.012,0,0,0-.012.012c.024.037.036.024.036.012Zm7.265,8.2Zm-4.429-1.339c.243.377.5.742.754,1.107a5.285,5.285,0,0,0,.572.718,2.832,2.832,0,0,0,.426.329,2.888,2.888,0,0,0,1.132.414q.347,3.432.523,6.863c.146,2.641.231,5.293.268,7.934q.055,4-.037,7.995-.091,3.87-.341,7.739c-.146,2.215-.341,4.417-.6,6.62-1.156-2.276-2.3-4.575-3.346-6.9-.353-.791-.706-1.582-1.022-2.361.1-1.947.183-3.906.256-5.865.085-2.044.158-4.077.231-6.121.085-2.093.17-4.186.28-6.279.11-2.142.243-4.271.4-6.4.134-1.935.292-3.858.5-5.792Zm-2.835-6.559a.012.012,0,0,0-.012-.012A.011.011,0,0,1,78.052,45.073ZM73.269,87.555c.024-2.446.1-4.9.195-7.35q.219-5.184.633-10.356c.329-3.931.754-7.91,1.3-11.767s1.253-7.7,2.19-11.487c.426.657.852,1.3,1.278,1.959.4.621.815,1.253,1.217,1.874-.219,2.057-.414,4.113-.572,6.17-.17,2.142-.3,4.283-.414,6.425-.11,2.093-.207,4.2-.292,6.291-.085,2.044-.158,4.089-.243,6.133-.073,1.984-.158,3.979-.256,5.963-.012.195-.024.4-.024.6-.767,1.217-1.558,2.422-2.4,3.6-.195.268-.377.523-.572.791-.085.122-.183.243-.268.365-.049.061-.085.11-.134.17a.035.035,0,0,0-.012.024,1.292,1.292,0,0,1-.11.134c-.365.462-.742.925-1.12,1.387-.134.17-.28.329-.414.487C73.257,88.492,73.257,88.029,73.269,87.555Zm7.593,4a61.651,61.651,0,0,1-7.289-1.57,56.885,56.885,0,0,0,4.137-5.379c.329-.487.645-.973.961-1.472,1.107,2.592,2.336,5.123,3.6,7.642.183.353.353.706.535,1.059-.036,0-.085-.012-.122-.012C82.092,91.741,81.471,91.655,80.863,91.558Zm25.92-.45q-4.326.292-8.652.5c-3.006.134-6.011.243-9.017.292-1.46.024-2.921.036-4.381.049.256-2.093.45-4.186.6-6.291q.274-3.833.377-7.666c.073-2.665.1-5.318.073-7.983-.012-1.752-.061-3.492-.122-5.245A23.459,23.459,0,0,0,88.492,63a.469.469,0,0,0,.158-.621.455.455,0,0,0-.621-.158,22.432,22.432,0,0,1-2.409,1.533c-.024-.5-.037-1.01-.061-1.509a19.769,19.769,0,0,0,3.785-3.115.456.456,0,0,0-.645-.645,18.657,18.657,0,0,1-3.188,2.7c-.024-.45-.049-.913-.073-1.363A7.342,7.342,0,0,0,87.166,58.5a.456.456,0,1,0-.645-.645c-.122.122-.243.243-.365.353-.061.061-.134.11-.195.17a.7.7,0,0,0-.1.085c-.012.012-.024.024-.037.024-.146.11-.3.219-.45.316-.1-1.424-.207-2.835-.341-4.247-.012-.1-.024-.207-.037-.3h.012c.9-.085,1.789-.268,2.689-.389.122-.012.256-.037.377-.049.024,0,.061-.012.085-.012-.012,0,.122-.012.122-.012.231-.036.462-.061.694-.085.475-.061.949-.11,1.424-.158.937-.1,1.874-.17,2.823-.231,1.862-.122,3.724-.17,5.585-.158,1.886.024,3.772.11,5.646.268q1.387.128,2.774.292c.219.024.438.061.657.085h.061c.061.012.122.012.195.024.024,0,.049.012.085.012.572,1.7,1.022,3.432,1.46,5.172.6,2.422,1.12,4.868,1.594,7.326.523,2.738,1,5.488,1.4,8.25.4,2.714.742,5.452,1,8.226.231,2.495.389,4.989.4,7.5V90.6C111.638,90.755,109.216,90.95,106.782,91.108Z" transform="translate(0 0)"/>
    <path id="Path_5348" data-name="Path 5348" d="M122.212,58.561l-.012.012a.012.012,0,0,0,.012-.012Z" transform="translate(-44.1 -13.901)"/>
    <path id="Path_5349" data-name="Path 5349" d="M121.912,59.2c0,.012-.012.024-.012.037v.012C121.9,59.236,121.912,59.212,121.912,59.2Z" transform="translate(-43.836 -14.467)"/>
    <path id="Path_5350" data-name="Path 5350" d="M121.6,60.9v.024a.045.045,0,0,0,.012.036A.091.091,0,0,0,121.6,60.9Z" transform="translate(-43.573 -15.961)"/>
    <path id="Path_5351" data-name="Path 5351" d="M88.559,346.387a.478.478,0,0,0,.462-.462c.049-.621.085-1.241.134-1.862a.47.47,0,0,0-.462-.462.479.479,0,0,0-.462.462c-.049.621-.085,1.241-.134,1.862A.47.47,0,0,0,88.559,346.387Z" transform="translate(-14.146 -264.259)"/>
    <path id="Path_5352" data-name="Path 5352" d="M189.192,405.7a.47.47,0,0,0-.462.462c-.012.365-.037.73-.061,1.083-.012.17-.037.353-.061.523,0,.049-.012.085-.012.134v.049a2.635,2.635,0,0,1-.049.3.471.471,0,0,0,.316.56.455.455,0,0,0,.56-.316,18.95,18.95,0,0,0,.219-2.336A.46.46,0,0,0,189.192,405.7Z" transform="translate(-102.366 -318.799)"/>
    <path id="Path_5353" data-name="Path 5353" d="M346.749,73.718a4.588,4.588,0,0,1,.5.852.452.452,0,0,0,.268.207.508.508,0,0,0,.353-.049.453.453,0,0,0,.207-.268.517.517,0,0,0-.049-.353,4.611,4.611,0,0,0-.937-1.363.456.456,0,1,0-.645.645A3.883,3.883,0,0,1,346.749,73.718Z" transform="translate(-240.94 -26.248)"/>
    <g id="Group_332" data-name="Group 332" transform="translate(89.857 62.516)">
      <path id="Path_5354" data-name="Path 5354" d="M336.311,233.529h0a.293.293,0,0,1-.071-.079C336.24,233.466,336.258,233.482,336.311,233.529Z" transform="translate(-321.95 -230.029)"/>
      <path id="Path_5355" data-name="Path 5355" d="M237.882,209.945a2.634,2.634,0,0,0-1.66-1.229,7.392,7.392,0,0,0-2.2-.361c-1.277-.006-2.035,1.421-2.352,2.182a17.012,17.012,0,0,0-6.117-.372s-.006,0-.006-.01c-1.552-2.15-3.76-4.8-5.233-4.815-1.335-.012-1.794,1.716-1.314,5.161a.781.781,0,0,0,.78.539l.062,0a.826.826,0,0,0,.512-.163.415.415,0,0,0,.165-.383,8.667,8.667,0,0,1,.1-4.05,18.762,18.762,0,0,1,3.589,3.877c-.03,0-.061.011-.092.013a.573.573,0,0,0-.45.284.424.424,0,0,0,.081.473.867.867,0,0,0,.762.254c1.491-.235,5-.655,7.354.213a.653.653,0,0,0,.438.007.418.418,0,0,0,.264-.262c.2-.65.877-2.055,1.614-2.063,1.289-.01,2.624.432,2.851.927a8.989,8.989,0,0,1,.321,2.463,4.074,4.074,0,0,1-.247,1.893,1.663,1.663,0,0,1-1.015-.509l-1.862-2.406a.616.616,0,0,0-.728-.169.391.391,0,0,0-.212.273.43.43,0,0,0,.095.346l1.89,2.4a2.658,2.658,0,0,0,1.8.932.846.846,0,0,0,.148.01.8.8,0,0,0,.615-.294h0c.745-.891.416-4.354.049-5.167h0Zm-2.367,8.247a.469.469,0,0,0-.192.3.422.422,0,0,0,.107.337,2.99,2.99,0,0,1,.855,2.852,1.07,1.07,0,0,1-.753.383.888.888,0,0,1-.415-.12,4.656,4.656,0,0,0-.6-.527.576.576,0,0,0-.7.028.461.461,0,0,0-.108.63,2.724,2.724,0,0,0,.669.6,1.223,1.223,0,0,1,.325,1.446,3.743,3.743,0,0,1-3.086-1.1.635.635,0,0,0-.712-.1.534.534,0,0,0-.325.6c.37,1.333.04,1.907-.12,2.092-1.369.038-2.976-1.672-3.69-2.8a.638.638,0,0,0-.591-.258.762.762,0,0,0-.611.347,18.738,18.738,0,0,1-3.076,3.7,2.285,2.285,0,0,1-.2.168,2.856,2.856,0,0,1,.054-.634c.006-.027,0-.054.011-.085.1-4.852,1.75-6,1.794-6.036a3.221,3.221,0,0,0,1.1,1.769,1.252,1.252,0,0,0,.8.2.9.9,0,0,0,.122-.017,4.125,4.125,0,0,0,2.388-2.66,1.435,1.435,0,0,0-1.376-1.549,5.424,5.424,0,0,0-1.408-.045,17.01,17.01,0,0,1,2.661-2.45.438.438,0,0,0,.19-.339.459.459,0,0,0-.169-.355.725.725,0,0,0-.436-.168.7.7,0,0,0-.444.122c-.563.408-3.537,2.639-3.625,3.982a4.059,4.059,0,0,0,.008.555.887.887,0,0,0-.56.077c-.393.2-2.416,1.482-2.568,7.057-.131.625-.207,1.7.677,1.921a1.4,1.4,0,0,0,.554.012,3.218,3.218,0,0,0,1.464-.843,19.055,19.055,0,0,0,2.639-3.069c.939,1.154,2.614,2.732,4.515,2.423l.011,0a.7.7,0,0,0,.221-.075,2.133,2.133,0,0,0,1.009-1.94,4.108,4.108,0,0,0,3.226.367.611.611,0,0,0,.275-.184,2.043,2.043,0,0,0,.343-1.82,2.32,2.32,0,0,0,1.324-.793.526.526,0,0,0,.089-.14,3.741,3.741,0,0,0-.958-3.786.565.565,0,0,0-.714-.073h0Zm-10.178.739a2.976,2.976,0,0,1,1.582-.142c.256.038.43.225.392.421a3.474,3.474,0,0,1-1.255,1.676,3.854,3.854,0,0,1-.719-1.954h0Zm-1.66-2.7a.553.553,0,0,0,.09,0,.724.724,0,0,0,.511-.246,1.161,1.161,0,0,0,.277-.565,1.029,1.029,0,0,0-.044-.6.6.6,0,0,0-.473-.377.7.7,0,0,0-.6.23,1.172,1.172,0,0,0-.288.562,1.085,1.085,0,0,0,.043.613.584.584,0,0,0,.484.381h0Zm8.427-.17a.348.348,0,0,0,.071,0,.531.531,0,0,0,.4-.218,1.067,1.067,0,0,0,.207-.5,1.078,1.078,0,0,0-.049-.535.507.507,0,0,0-.385-.336c-.314-.052-.611.252-.685.7s.117.838.441.883h0Z" transform="translate(-218.811 -205.339)" fill="#050505"/>
    </g>
  </g>
</svg>
